<?xml version="1.0" encoding="utf-8"?>
<!-- Generator: Adobe Illustrator 21.0.2, SVG Export Plug-In . SVG Version: 6.00 Build 0)  -->
<svg version="1.1" xmlns="http://www.w3.org/2000/svg" xmlns:xlink="http://www.w3.org/1999/xlink" x="0px" y="0px"
	 viewBox="0 0 138.1 58.7" style="enable-background:new 0 0 138.1 58.7;" xml:space="preserve">
<style type="text/css">
	.st0{fill:#FFFFFF;}
	.st1{display:none;}
	.st2{display:inline;fill:#FFFFFF;}
</style>
<g id="Layer_1">
	<g>
		<g>
			<path class="st0" d="M1.1,17.9c0.1,0.1,0.4,0.2,0.8,0.2C2,18.3,2.7,18.5,4,18.8c0.3,0.1,0.5,0.2,0.5,0.3v0.6L4.2,20l0.2,0.3v0.1
				l-0.1,0.3l-0.1,1.5L4,22.4H3.6l-0.3-0.3L3.4,22c-0.1,0-0.1,0-0.1-0.1c0-0.1,0-0.1,0.1-0.1h0.1c0,0,0,0,0,0c0,0,0,0,0,0l0.1-0.1
				v-0.1l-0.2-0.2H3.3l-0.6,0.3v0.1C3,22,3.2,22.1,3.2,22.2L3,22.4H0.2L0,22.1l0.2-0.7l0.1-0.1c0-0.7,0.1-1.1,0.2-1.2v-0.6l0.1-0.3
				c0-0.9,0.1-1.4,0.3-1.4H1.1z M6.9,2.7l0.3,0.3L6.9,3.2l0.1,0.1h0.3l0.1-0.1V3.1L7.3,2.8l0.1-0.1l0.4,0.1L8,2.7h0.5
				c0.2,0,0.4,0.6,0.5,1.7l0.1,0.1V5L8.8,5.2l0.3,0.3v0.2c0,0.1-0.1,0.1-0.2,0.1L8.8,5.9V6C9,6,9.2,6.1,9.3,6.3V7
				c0.1,0.1,0.2,0.5,0.2,1.2l0.3,1.5L9.7,9.8v0.1c0,0.5,0.2,0.9,0.3,1.3l0.1,1.4c0.1,0,0.2,0.2,0.2,0.6l0.1,0.1l0.1,1.4
				c0.1,0,0.2,0.2,0.2,0.6l0.1,0.1V16l-0.1,0.2v0.1c0.1,0,0.2,0.1,0.3,0.4v0.2l-0.1,0.2v0.1l0.3,0.3v0.3l-0.2,0.2h-0.1L10,17.3
				l0.3-0.1l0.1,0.1v-0.2c-0.1,0-0.2-0.1-0.2-0.2l-0.1-0.1H9.7l-0.5,0.3c-1.2,0-1.8,0.1-1.8,0.1c0,0.1,0,0.2-0.1,0.2H6.8l-0.2-0.2
				l0.1-0.3l-0.2-0.1H6l-0.1,0.1c0.3,0.1,0.5,0.2,0.5,0.3l-0.2,0.2H5.7l-0.2-0.2l0.2-0.3l-0.1-0.2c0-0.1,0.2-0.1,0.5-0.2v-0.1
				L5.8,16l0.4-0.3l-0.3-0.2l-0.5,0.1l-0.1-0.1v-0.2L5.4,15c-0.2,0-0.3,0-0.3-0.1v-0.1h0.1l0.2,0.1l0.2-0.2h0.1l0.2,0.1l0.8-0.1
				l0.2,0.1l0.2-0.3l-0.3-0.3l-0.1,0.1H6.5l-0.1-0.1v-0.3l0.1-0.1v-0.1l-0.1-0.1v-0.3l0.4-0.3v-0.2H6.7l-0.3,0.1l-0.1-0.2v-1.2
				L6,11.1v-0.8l-0.1-0.2V9.2C5.8,9.1,5.7,8.6,5.7,7.8C5.6,7.8,5.6,7.5,5.6,7L5.5,7H5.4L5.4,7v0.8L5.3,8.1L5.2,9.6
				c-0.1,0-0.1,0.2-0.1,0.7l-0.3,0.5H4.7l-0.4-0.3H4.3l-0.4,0.4v0.2l0.2,0.3c-0.1,0-0.2,0.2-0.2,0.6H3.8L3.9,12v0.1
				c-0.2,0.3-0.4,0.4-0.6,0.4l-0.3-0.3H2.8v0.1l0.1,0.2v0.3L2.8,13v0.3h0.1C2.9,13.1,3,13,3.4,13l0.2-0.2h0.1l0.1,0.1v0.1l-0.3,0.3
				H3.1v0.3l0.3,0.6l0.4-0.3v-0.5L4,13.4v-0.6l-0.1-0.2l0.4-0.5L4,12.1V12l0.6-0.6l0.2,0.2v0.5l-0.1,0.2v0.6l-0.1,0.3
				c0,1-0.1,1.5-0.4,1.5H3.9v0.2H3.8l-0.3-0.1c0,0.1-0.1,0.2-0.2,0.2v0.1c0,0.3,0.1,0.5,0.3,0.6h0.1l0.1-0.1l-0.1-0.2
				c0-0.1,0.1-0.1,0.2-0.1l-0.1-0.1v-0.1l0.4-0.2h0.6l0.5,0.5v0.1l-0.1,0.1H4.8l-0.3-0.1c-0.1,0.2-0.3,0.3-0.5,0.3v0.1l0.5,0.5v0.3
				l-0.1,0.2l0.3,0.3l0.2-0.1H5l0.4,0.3l-0.3,0.2H4.4v0.2h0.6l0.2-0.1h0.1l0.2,0.1h2c0.5,0.5,0.9,0.7,1.1,0.7v0.2l-0.4,0.1v0.2h0.1
				l0.5-0.1v0.2c-0.1,0-0.2,0.1-0.3,0.3l0.2,0.1l0.3-0.3h0.1C9.3,19,9.5,19,9.8,19.1l0.1,0.1v0.1l-0.1,0.1v0.4H10
				c0.2-0.5,0.5-0.8,0.8-1c0.2,0,0.3,0.3,0.5,0.6V20l0.1,0.2l-0.1,0.2l0.1,0.2l-0.1,0.1h-0.2c-0.1-0.1-0.2-0.1-0.5-0.1l-0.1-0.2H10
				L9.6,20L9.3,20c-1.5-0.3-2.2-0.6-2.2-0.8l-0.1-0.1v-0.5l0.3-0.3v-0.1l-0.2-0.2L7,18.2H6.2L6,18.4H4.9l-0.2-0.1H4.2l-0.3,0.2
				c-0.2,0-0.6-0.1-1.2-0.4c-1.3-0.2-1.9-0.5-1.9-0.8H0.3l-0.2-0.2v-0.1c0.1-0.1,0.2-0.5,0.3-1.3l0.2-0.1h0.3v-0.2
				c0-0.1-0.1-0.2-0.3-0.2l0.1-0.6l-0.1-0.3l0.3-1.4c0-0.9,0.1-1.4,0.3-1.4l-0.1-0.3V11l0.1-0.3c0-0.9,0.1-1.5,0.3-1.9V8.8
				c0-1.1,0.1-1.6,0.3-1.6h0.1L2,7.2H2C2,7.1,2.1,7,2.3,6.8L2.2,6.7H2.2L2,6.8L1.8,6.7l0.1-1.2l0.3-0.3L2,5V4.8l0.1-0.3
				c0-1.3,0.2-1.9,0.5-1.9H6.9z M0.4,16.4v0.1h0.2v-0.3L0.4,16.4z M1.2,13.2v0.2l0.1-0.1L1.2,13.2L1.2,13.2z M1.2,13.6V14l0.1,0.2
				v0.2l-0.1,0.2v0.1h0.1l0.3-0.1l-0.1-0.5L1.7,14v-0.3l-0.2-0.2H1.2z M1.2,15.8V16h0.1V16L1.2,15.8z M1.2,21.6L1.2,21.6l0.2,0.1
				c0.3,0,0.6-0.1,0.7-0.4H2.1l-0.4,0.1l-0.4,0.1L1.2,21.6L1.2,21.6z M2.5,11.4H2.2L2,11.3L2,11.4l-0.5-0.1H1.3v0.2h0.5l0.5,0.3h0.6
				l0.2-0.2c-0.2,0-0.3-0.1-0.3-0.4H2.7L2.5,11.4z M1.5,16.2v0.1h0.2l0.2-0.2L1.7,16L1.5,16.2z M1.6,13.2l0.1,0.2h0.1v-0.2H1.6z
				 M1.8,17.1L1.8,17.1l0.5-0.5v-0.1H1.8c-0.1,0-0.2,0.2-0.2,0.5L1.8,17.1z M1.9,10.5L1.9,10.5L2,10.5v-0.2L1.9,10.5z M2,12.5
				l0.3,0.3h0.3v-0.1l0.1-0.5H2.4L2,12.5z M2.3,16l-0.2-0.1C2.2,15.9,2.1,16,2,16V16l0.1,0.1h0.7C2.9,16,3.1,16,3.2,16v-0.2H3.1
				c-0.1,0-0.3,0.1-0.5,0.2H2.3z M2.3,7.9C2.3,8,2.2,8.1,2,8.1v0.1l0.1,0.3L2,8.7v0.2h0.1c0.1,0,0.3-0.3,0.6-0.8
				C2.6,8,2.5,7.9,2.3,7.9z M2,9.7h0.3V9.6H2.2L2,9.7z M2,14.5v0.1h0.1v-0.1H2z M2.9,16.6v0.3H3l0.3-0.1L3.5,17v0.1
				c-0.6,0.3-1.1,0.4-1.4,0.4L2,17.5v0.1h0.8L3,17.7h0.2l0.5-0.3v-0.1H3.5v-0.1l0.3-0.1v-0.3l0.3-0.3l-0.3-0.1l-0.2,0.1l-0.4-0.1
				H3.2L2.9,16.6z M2.3,5.5L2.2,5.8v0.2l0.2,0.2C2.3,6.1,2.5,6,2.7,6V5.9L2.5,5.9l0.1-0.1V5.5H2.3z M2.2,13.1h0.2v-0.2L2.2,13.1z
				 M2.2,13.9v0.2h0.1V14L2.2,13.9z M2.2,14.9v0.2l0.3,0.1h0.1V15l-0.1-0.1H2.2z M2.3,21l-0.1,0.3l0.1,0.1h0.3l-0.1-0.1v-0.1L2.5,21
				H2.3z M2.8,9c0,0.1,0.1,0.2,0.4,0.3v0.1L3,9.5L2.8,9.4H2.5v0.1L3,9.7h0.3c0.1,0,0.2-0.1,0.3-0.4C3.4,9.1,3.2,8.9,2.8,9L2.8,9z
				 M2.5,16.8v0.3l0.2-0.2v-0.1H2.5z M3.3,3.4L3.1,3.2H2.8v0.1C2.9,3.4,2.9,3.7,2.9,4L3,4.1h0.4L3.4,4h0.1L3.4,3.7V3.6l0.5-0.4
				l0.4,0.2h0.6l0.6,0.3h0.2L6,3.4V3.2C6,3.1,5.9,3.1,5.8,3C5,3.1,4.5,3.1,4.5,3.2H4.4C4.3,3.1,4.1,3,4,3C3.8,3,3.5,3.1,3.3,3.4
				L3.3,3.4z M3,7.8l0.3,0.1h0.1l0.1-0.1V7.6H3.2L3,7.8z M3.1,6.9L3.1,6.9L3.3,7V6.9H3.1z M3.4,8v0.1l0.3,0.1h0.1V8H3.4z M3.4,21
				l0.2,0.2L4,20.6v-0.1c-0.2,0.2-0.4,0.3-0.5,0.3V21z M3.5,7c0.2,0,0.3,0.1,0.3,0.3h0.3V7.1L3.9,6.9H3.6L3.5,7z M3.5,8.5L3.5,8.5
				l0.1,0.1V8.4L3.5,8.5z M3.5,16.1L3.5,16.1l0.3,0.1V16H3.6L3.5,16.1z M3.6,5v0.3l0.6,0.1V5.2L3.6,5z M3.8,10v0.1l0.3,0.1v-0.1
				L4,10H3.8z M4,4v0.2L4,4.1h0.1l0.1,0.1c0,0.1-0.1,0.1-0.3,0.2L3.9,4.7l0.2,0.1c0.2-0.1,0.3-0.2,0.3-0.3l0.2-0.1l0.2,0.1h0.1V4.5
				L4.9,4.3l0.1-0.1L4.5,3.9H4.3L4,4z M4.1,8.1v0.1h0.1L4.1,8.1L4.1,8.1z M4.2,5.9c0.2,0.2,0.5,0.3,0.8,0.4v0.1h0.1
				c0-0.2,0.1-0.3,0.3-0.3C5.4,6,5.1,6,4.6,5.9c0-0.1-0.1-0.1-0.3-0.1L4.2,5.9z M4.4,11.2h0.1v0.1H4.4V11.2z M4.4,8.2L4.4,8.2
				l0.2,0.1V8.2H4.4z M4.5,15.8h0.1v0.1H4.5V15.8z M5.1,16.6L5.1,16.6l0.2,0.1l-0.1,0.1H5.1l-0.1-0.1V16.6z M5.2,4.4L5.1,4.6h0.1
				l0.2-0.1L5.2,4.4L5.2,4.4z M5.4,4.1v0.1l0.3,0.3v0.4h0.1L6,4.7V4.5c-0.2,0-0.3-0.1-0.3-0.3L5.5,4.1H5.4z M5.5,15.8L5.7,16
				l-0.2,0.1L5.4,16v-0.1L5.5,15.8z M6.4,15.8l-0.3,0.4l0.1,0.1h0.1l0.3-0.4L6.4,15.8L6.4,15.8z M6.2,16.5v0.1h0.1L6.2,16.5
				L6.2,16.5z M6.5,9L6.5,9l0.1,0.1c0,0.2-0.1,0.3-0.3,0.3l0.2,0.4L6.4,10c0.1,0,0.2,0.2,0.3,0.5v0.1L6.4,11l0.3,0.3l-0.1,0.2v0.1
				L6.8,12l-0.3,0.3l0.2,0.1h0.1l0.3-0.3v-0.1L7,11.9v-0.8l-0.1-0.2v-0.6L7,10.2V9.7c-0.2,0-0.3-0.1-0.3-0.2V9.1l0.1-0.1V9L6.6,8.9
				L6.5,9z M6.5,7v0.1h0.2L6.5,7L6.5,7z M6.5,4L6.5,4l0.2,0.3h0.1V4H6.5z M6.7,2.9v0.2h0.1V3L6.7,2.9z M6.7,7.9v0.2L6.8,8V7.9H6.7z
				 M6.7,15v0.1L6.8,15H6.7z M6.9,4.5v0.3H7V4.5H6.9z M7.5,7.7l0.1,0.2C7.4,7.9,7.3,8,7.3,8.3C7.1,8.3,7,8.4,6.9,8.6
				C7,8.6,7,8.7,7,8.8C7.6,9,8,9.2,8.2,9.4V9.3L8.1,9.1l0.4-0.2V8.8L8,8.2L7.8,8.3L7.7,8.1V7.8l0.1-0.1V7.6L7.7,7.6H7.6L7.5,7.7z
				 M6.9,12.7v0.2h0.1l0.2-0.2L7,12.6L6.9,12.7z M6.9,17.1L6.9,17.1l0.3,0.1v-0.2H7L6.9,17.1z M7,5.4c0.3,0,0.5,0.1,0.5,0.3
				C7.2,5.9,7.1,6.1,7.1,6.3h0.1c0.7-0.1,1.1-0.2,1.1-0.4V5.9C8.3,5.8,8,5.5,7.5,5H7.5C7.4,5.1,7.2,5.2,7,5.2V5.4z M7.1,10.1v0.1
				h0.1L7.5,10V10H7.3L7.1,10.1z M7.2,16.3L7.2,16.3h0.3l0.1,0.1h0.1l0.2-0.1l0.2,0.1l0.1-0.1v-0.2L8,16v-0.3l0.1-0.1v-0.1l-0.3-0.3
				H7.6c-0.1,0-0.2,0.2-0.2,0.7L7.2,16.3z M7.3,4.7v0.3h0.1l0.1-0.1V4.7H7.3z M7.3,12.6v0.2h0.1l0.1-0.1v-0.1H7.3z M7.5,3.8l0.5,0.5
				h0.2V4.2L7.7,3.7H7.6L7.5,3.8z M7.6,14.5l0.2-0.2v-0.1H7.6c-0.1,0-0.1,0.1-0.2,0.3H7.6z M7.8,18.4L7.8,18.4L8,18.6h0.2v-0.1
				L7.8,18.4z M8,20c1.3,0.3,1.9,0.5,1.9,0.6v0.2h0.3l0.2-0.1h0.4c0,0.2,0,0.3,0.1,0.3h0.2c0.7,0,1.1,0.1,1.1,0.3v0.1L12,21.4h-0.2
				l-0.2-0.1h-0.3v0.3l-0.6-0.1h-0.2v0.1l0.5,0.5l0.5-0.1v0.1l0.1-0.1h0.1l0.1,0.1h0.1c0-0.2,0.1-0.3,0.2-0.3l0.3,0.3v0.2L12,22.4
				h-1.2l-0.2-0.1h-0.1l-0.2,0.1H8.4c-0.1,0-0.2-0.2-0.4-0.5v-0.6l0.1-0.1v-0.1L8,21.1v-0.6l-0.1-0.2v-0.2C7.8,20,7.9,20,8,20z
				 M8,7.3L8,7.3l0.2,0.3c0.4-0.1,0.6-0.2,0.6-0.3c-0.4,0-0.6,0-0.6-0.1L8,7.3z M8.1,11.4L8,11.6v0.1l0.4,0.5h0.1v-0.1L8.4,12
				L8.4,12h0.1c0.1,0,0.1,0.2,0.2,0.6l0.6,0.7v0.5l0.3,0.1l0.1-0.1l-0.1-0.3v-0.3c-0.2,0-0.3-0.1-0.3-0.4c-0.2-0.1-0.3-0.2-0.3-0.3
				v-0.1l0.2-0.5H9.1l-0.3-0.1l-0.1,0.1H8.7l-0.3-0.1l0.1-0.1v-0.1L8.1,11.4z M8.2,9.6v0.1H8.1v0.1c0,0.1,0.2,0.1,0.5,0.1L8.7,10
				h0.8V9.9c0-0.1-0.1-0.2-0.3-0.2V9.6h0.1V9.5L8.9,9.4H8.8C8.7,9.5,8.5,9.5,8.2,9.6L8.2,9.6z M8.1,14.3c0.3,0.3,0.6,0.5,0.8,0.5
				c0-0.1,0.2-0.2,0.6-0.4v-0.1l-0.8-0.3C8.6,14.1,8.4,14.2,8.1,14.3L8.1,14.3z M8.2,13.2v0.2l0.3,0.3h0.1v-0.3l-0.3-0.3H8.2z
				 M8.9,16.6h0.2c0-0.2,0-0.3,0.1-0.3l-0.1-0.1v-0.1h0.1l0.2,0.1h0.1v-0.2H9.2c-0.5,0-0.8,0.1-0.8,0.3L8.9,16.6z M8.6,9.6h0.1v0.1
				H8.6V9.6z M8.8,13.5L8.8,13.5L9,13.6v-0.1H8.8z M9.6,21.7l0.1,0.1v0.1H9.4v0.2h0.2c0.1-0.1,0.2-0.2,0.4-0.2v-0.1l-0.1-0.1v-0.1
				l0.3-0.3v-0.1H9.8L9.6,21.7z M10.4,18.1h0.1l0.5,0.3L11,18.4v0.1l-0.5-0.1l-0.3,0.4h-0.1l-0.5-0.1v-0.3
				C9.7,18.3,9.9,18.2,10.4,18.1L10.4,18.1z M9.8,15.1L9.8,15.1l0.1,0.1v-0.1H9.8z M10.4,16.1v0.2h0.1L10.4,16.1L10.4,16.1z"/>
			<path class="st0" d="M13.9,9.3h0.3l0.5,0.5v0.1l-0.4,0.3h-0.2l-0.3-0.3V9.4L13.9,9.3z M14,10.6c0.1,0.1,0.4,0.2,0.8,0.2
				c0,0.2,0.5,0.4,1.4,0.5l2.7,2.7l0.9,0.9l-0.1,0.1H18c-0.2-0.1-0.3-0.3-0.3-0.5h-0.3l-0.2-0.1h-0.1c-0.2,0.2-0.4,0.3-0.5,0.3
				l-0.3-0.1l-0.2,0.1v0.1l0.3,0.4v0.1l-0.3,0.4l0.2,0.1H17l0.1-0.1l-0.2-0.4c0.2-0.3,0.3-0.5,0.3-0.5h0.2l0.3,0.3v0.5L17.6,16v0.1
				l0.1,0.2v5.4l-0.1,0.1l-0.4-0.1c-0.4,0-0.6,0.1-0.8,0.4v0.1l0.1,0.2l-0.1,0.1h-1l-0.1-0.1l0.1-0.2v-0.1l-0.3-0.3l-0.5,0.1
				l-0.5-0.1l-0.1,0.1v0.2l0.1,0.5h-0.3l-0.1-0.1V11.6c0-0.1,0.1-0.2,0.4-0.3v-0.1l-0.4-0.5v-0.1L14,10.6z M14.2,19.7L14.2,19.7
				l0.1,0.6l-0.1,0.2v0.4h0.1c0.3-0.3,0.5-0.5,0.8-0.5v-0.1c-0.3-0.3-0.5-0.5-0.5-0.6H14.2z M14.3,16.7v0.2l0.1,0.1l0.2-0.2v-0.1
				L14.3,16.7z M14.3,18.8v0.1l0.1,0.2v0.3h0.5l0.2,0.2v0.5h0.2v-0.3l0.2-0.5h-0.1l-0.3,0.1h-0.1c-0.3-0.2-0.4-0.4-0.4-0.7l-0.1-0.1
				h-0.1L14.3,18.8z M14.7,3h0.8c0.4,0.3,0.6,0.4,0.6,0.5l-0.1,0.1v0.3c0.1,0.2,0.3,0.3,0.6,0.3c0,0.1,0.2,0.2,0.5,0.3
				c0,0.4,0.2,0.6,0.5,0.6l0.2-0.3V4.7l-0.3-0.4l0.5-0.6V3.7l-0.4-0.4h-0.1l-0.3,0.3H17l-0.3-0.3L16.9,3h0.6l0.2,0.1h0.1L18,3h2.7
				c0.1,0.1,0.3,0.1,0.6,0.1l0.1,0.4h0.1c0-0.1,0.1-0.2,0.3-0.3h0.1c0.9,0.3,1.6,0.7,2.1,1.2c0.5,0.4,0.9,1.1,1.4,2.1
				c0,0.2-0.4,0.3-1.3,0.3c-0.1,0.1-0.3,0.1-0.8,0.2l-0.1,0.1h-0.2c-0.1,0-0.2-0.2-0.3-0.5h-0.1c-0.4,0.1-0.8,0.3-1.2,0.6l-0.3-0.6
				l-1.2-0.5c-0.3,0-0.5-0.1-0.5-0.2V5.4l0.1-0.2V5l-0.2-0.2h-0.1c-0.1,0-0.2,0.2-0.3,0.6L18.1,6v0.2l0.2,0.3v1.4
				c0,0.1-0.2,0.2-0.7,0.3l-0.1,0.1h-0.2l-0.3-0.3V7.7c0-0.1,0.2-0.2,0.5-0.2L18,7c0-0.1-0.1-0.2-0.3-0.2c-0.6,0-0.9,0.2-0.9,0.7
				c-0.3,0-0.5,0.2-0.8,0.5h-0.1l-0.3-0.2c-0.6,0-0.9,0.1-1.1,0.4l-0.1-0.1V3.2L14.7,3z M14.6,13.6l0.6,0.5h0.2l0.1-0.1v-0.2
				c0-0.1-0.2-0.2-0.6-0.4h-0.1L14.6,13.6z M14.9,16.3l0.3,0.3l0.1-0.2v-0.1l-0.2-0.2L14.9,16.3z M15,16.9v0.3l0.3,0.1h0.1l0.1-0.1
				v-0.1l-0.2-0.2H15z M15.7,9l0.2,0.3v0.2l-0.3,0.3h-0.1l-0.4-0.4V9.3L15.7,9z M15.1,14.9l0.1,0.1h0.1l0.3-0.1v-0.1l-0.2-0.2h-0.1
				L15.1,14.9z M15.6,18v0.1l0.1,0.1l0.3-0.3h0.1l0.2,0.2l-0.1,0.1v0.1h0.3l0.4-0.4V18l-0.6-1c-0.1,0-0.2,0.1-0.2,0.4L15.6,18z
				 M15.8,19.3v0.1l0.2,0.2l0.1-0.1v-0.2H15.8z M17.6,8.3h0.3c0.3,0.2,0.5,0.3,0.5,0.4v2l-0.2,0.2H18l-0.3-0.2h-0.1l-0.3,0.2h-0.1
				c-0.2-0.2-0.4-0.5-0.5-0.7l-0.6-0.5V9.3c0-0.1,0.2-0.2,0.7-0.4C17,8.7,17.3,8.5,17.6,8.3z M16.4,19.7v0.2h0.2v-0.2H16.4z
				 M17.6,21.9l0.1,0.1v0.1l-0.2,0.2h-0.6l-0.1-0.1C17.2,22.2,17.4,22.1,17.6,21.9z M16.9,20.9L16.9,20.9l0.1,0.2h0.1v-0.2H16.9z
				 M17.2,16.7L17,16.9v0.3l0.1,0.3h0.2v-0.6L17.2,16.7z M18.1,11.4l0.4,0.3h0.4l5.2,1.4l0.1,0.1v0.1c-0.7,0.7-1.3,1.2-1.9,1.3
				c-0.2,0.1-0.7,0.2-1.6,0.3l-0.1,0.1l-2.3-2.3l-0.8-0.8v-0.1h0.3L18.1,11.4z M20.9,11.1c0.8,0.2,1.2,0.3,1.2,0.5l-0.1,0.1h-0.6
				c-0.4-0.1-0.6-0.2-0.6-0.3v-0.2C20.7,11.1,20.7,11.1,20.9,11.1z M25.1,7.4h0.1l0.2,0.2v2.1l-0.1,0.1h-0.1l-0.4-0.8L24.8,9h-0.1
				l-0.8,0.3v0.4c0,0.1-0.1,0.2-0.4,0.3l-0.1,0.2v0.1c0.1,0.2,0.2,0.3,0.6,0.3c0.1,0,0.2-0.2,0.2-0.5l0.1-0.1h0.1l0.3,0.3h0.6
				l0.3,0.3v0.1l-0.3,0.5l0.1,0.3v0.4l-0.3,0.3h-0.1c-0.2-0.1-0.3-0.2-0.3-0.3h-0.4c-0.3,0-0.7-0.2-1.3-0.6l-0.3-0.1l-0.2,0.2h-0.1
				l-0.2-0.1h-0.9L21,10.7c0.2-0.3,0.3-0.6,0.3-0.9h0.1l-0.1-0.3V8.1l0.3-0.3L21.8,8h0.5l0.6-0.3h0.6l0.2-0.1h0.8
				C24.8,7.6,25,7.5,25.1,7.4z M21.4,5.1l0.3,0.3h0.1c0-0.1,0.1-0.2,0.2-0.2V5.2L21.9,5h-0.3L21.4,5.1z M21.8,13.3l0.2,0.2H22
				l0.2-0.2L22,13.1H22L21.8,13.3z M22.4,10.1v0.2h0.1l0.2-0.2H22.4z M22.5,4.8v0.6l0.3,0.1l0.2-0.3c0-0.6-0.1-0.8-0.2-0.8
				c-0.1,0-0.1,0.1-0.1,0.3L22.5,4.8z M23.5,5.1v0.1l0.2,0.4h0.1L24,5.4V5l-0.1-0.1h-0.2L23.5,5.1z M23.8,11.9l0.1,0.2l-0.1,0.1
				h-0.1l-0.1-0.1L23.8,11.9z M23.7,11.1L23.7,11.1l0.1,0.2h0.3l0.3-0.1v-0.2h-0.5L23.7,11.1z"/>
			<path class="st0" d="M27.8,5.5c0.2,0.2,0.5,0.3,0.8,0.3c0.1,0.4,0.3,0.6,0.5,0.6c0.2,0.2,0.4,0.3,0.7,0.5L29.8,7v0.4
				c0,0.1-0.4,0.3-1,0.5V8c0.1,0.1,0.3,0.5,0.4,1.1c0.3,0.1,0.5,0.3,0.6,0.6v0.2L29.7,10v0.4l0.2,0.2l0.3-0.3
				c0.2,0.1,0.3,0.3,0.3,0.6c-0.1,0-0.3,0.2-0.6,0.6v0.1c0,0.1,0.2,0.2,0.7,0.2l0.1,0.1v0.5l-0.4,0.3H30l-0.6-0.5
				c-0.1,0.4-0.2,0.6-0.3,0.6c-0.1,0-0.2-0.2-0.3-0.5l-0.5-0.5L28,12.4c0,0.1,0.1,0.2,0.4,0.2l0.2,0.3v0.2l-0.5,0.3h-0.5L27.3,13
				v-0.1l0.3-0.5l-0.2-0.2H27c0,0.1,0,0.2-0.1,0.2h-0.1l-0.2-0.2v-1.1l0.3-0.3l-0.1-0.2V9.8l0.1-0.2V9.6l-0.1-0.2V9.1l0.2-0.2h0.1
				l0.6,0.6c-0.1,0.2-0.3,0.3-0.5,0.3l-0.1,0.6h0.4l0.5,0.2c0-0.2,0.3-0.3,0.8-0.5c0-0.2,0.2-0.4,0.5-0.7V9.2l-0.5-0.5V8l-0.3-0.3
				c-0.1,0-0.2,0.3-0.2,0.8l-0.1,0.1v0.1c0.3,0.3,0.5,0.6,0.5,0.8l-0.2,0.1h-0.1l-0.7-0.8c-0.3,0-0.5-0.3-0.7-0.8V7.8l0.3-1.2h0.1
				l-0.1-0.1V6.5C27.4,5.9,27.6,5.6,27.8,5.5z M26.7,13.3l0.2,0.2l-0.1,0.1l-0.2-0.2L26.7,13.3z M26.9,11.3v0.1l0.1,0.3h0.1l0.3-0.3
				l-0.3-0.3L26.9,11.3z M27.3,13.6c0.2,0,0.3,0.3,0.3,0.8c0.1,0,0.2,0.1,0.3,0.4l0.2,0.1h0.1l0.8-0.1l0.1,0.2v0.3l-0.2,0.2h-0.3
				l-0.2-0.1H28l-0.4,0.1v0.3l0.1,0.1l1.1-0.1c0.2,0.1,0.3,0.2,0.4,0.3v0.7l-0.8-0.3c-0.4,0-0.6,0.1-0.8,0.2h-0.1
				c-0.1,0-0.2-0.2-0.3-0.6v-0.3l0.1-0.2v-0.3l-0.1-0.2V15l0.1-0.1v-0.1l-0.1-0.1v-1L27.3,13.6z M38.4,11.3h0.2l0.2,0.2v1.8
				l-0.3,0.4l0.3,0.2l-0.1,1.7v0.5c-0.1,0.1-0.2,0.9-0.5,2.3c-0.1,0.4-0.3,0.7-0.6,1c0,0.5-0.2,1-0.6,1.4c-0.9,0.9-1.9,1.4-3,1.4
				h-0.1l-0.2,0.1h-1.6c-0.1-0.1-0.5-0.2-1.2-0.2c-0.1-0.1-0.3-0.2-0.8-0.3c-0.6-0.3-1.1-0.9-1.6-1.6v-0.2c0-0.1,0.2-0.2,0.7-0.4
				l0.1-0.1v-0.1c-0.4,0-0.6-0.1-0.6-0.2v-0.1c0.4-0.4,0.6-0.8,0.6-1.2l-0.2-0.1c-0.2,0.1-0.6,0.3-1,0.8l-0.5-0.8v-0.5
				c0-0.1,0.2-0.2,0.6-0.3h0.6c0.6,0.6,1.3,0.8,2.1,0.8l0.1-0.1v-0.2l-0.3-0.4v-0.1l0.7-0.6h0.1l0.1,0.1v0.3l-0.1,0.2v0.2
				c0.3,0.3,0.5,0.7,0.6,1l0.5,0.3h0.9c0.3-0.2,0.7-0.5,1-1.2l0.1-1.4l0.1-0.1v-1.2l0.1-0.2V14l0.1-0.5l-0.1-0.5v-0.6
				c0-0.1,0.7-0.3,2.1-0.6C37.5,11.6,38.1,11.5,38.4,11.3z M29.3,3.9l0.3,0.3v0.1c-0.2,0.2-0.3,0.5-0.3,0.8l-0.5,0.5
				c-0.6,0-0.9-0.1-0.9-0.3V5.2c0.1-0.3,0.4-0.5,0.6-0.5c0-0.2,0.2-0.3,0.6-0.4C29.1,4,29.2,3.9,29.3,3.9z M27.8,6.1L27.8,6.1
				c0,0.2,0.3,0.5,0.9,1h0.1L28.9,7V6.8l-0.7-0.8H28L27.8,6.1z M29.6,13.2h0.1l0.1,0.1v0.3c-0.4,0.5-0.6,0.9-0.8,0.9
				c-0.1,0-0.2-0.2-0.4-0.5l0.2-0.4l-0.1-0.1h-0.2c-0.1,0-0.1,0.2-0.1,0.6l-0.2,0.1h-0.1l-0.2-0.2v-0.3c0-0.3,0.2-0.5,0.7-0.6
				l0.1-0.1c0.1,0,0.2,0.1,0.2,0.3h0.2L29.6,13.2z M28.3,19.5L28.3,19.5l0.3,0.2l-0.2,0.2l-0.3-0.3L28.3,19.5z M28.7,10.8V11h0.2
				v-0.2H28.7z M31.1,12.9l0.1,0.1l-0.1,0.3v1.2l0.1,0.2V16c0,0.1-0.2,0.1-0.5,0.1l-0.2,0.7L30,17.2h-0.2l-0.1-0.1v-0.3l0.8-0.8
				v-0.2l-0.3-0.3H30c-0.1,0-0.2,0.2-0.3,0.5h-0.3l-0.2-0.2v-0.1c0.2-0.6,0.6-0.9,1-1.1h0.3l0.2,0.1h0.1l0.2-0.2v-0.1
				c-0.1-0.3-0.3-0.4-0.5-0.4l-0.1-0.2v-0.3c0.1-0.1,0.1-0.2,0.1-0.5L31.1,12.9z M29.9,3.2L30,3.4l-0.1,0.1l-0.1-0.1L29.9,3.2z
				 M30.2,4.1h0.5l0.3,0.3c0,0.1-0.2,0.2-0.6,0.2l-0.1,0.2v0.1c0,0.1,0.2,0.2,0.5,0.4v0.1l-0.1,0.1h-0.1c-0.4-0.1-0.6-0.2-0.6-0.3
				V4.5L30.2,4.1z M30.1,8h0.2c0.1,0,0.2,0.1,0.2,0.4l0.4,0.1l-0.1,0.6v0.5l-0.2,0.2h-0.1c-0.2-0.1-0.4-0.4-0.5-0.7V9.1l0.5-0.5V8.5
				h-0.3l-0.3-0.3L30.1,8z M30.3,7.2h0.2l0.2,0.2l-0.1,0.1h-0.3l-0.1-0.1V7.4L30.3,7.2z M31.3,2.8h2.1l1.4,0.4l0.3,0.1l0.1,0.1v0.1
				l-0.1,0.1v0.1l-0.6-0.1c-0.4,0.1-0.6,0.3-0.6,0.6l0.3,0.2h0.3l0.2-0.1h0.3l0.5,0.3h0.1c0.2-0.1,0.3-0.3,0.3-0.5l0.1-0.1h0.1
				l0.7,0.7c0,0.1-0.1,0.2-0.3,0.2v0.3c-0.2,0.3-0.4,0.5-0.6,0.5V5.6c-0.1-0.3-0.3-0.5-0.6-0.5c-0.2-0.2-0.6-0.3-1.2-0.4
				c0-0.1-0.1-0.2-0.4-0.3V4.3l0.1-0.6c-0.1-0.1-0.6-0.2-1.4-0.2h-0.1l-0.3,0.2h-0.1L31,3.4h-0.6l-0.1-0.1V3.2
				c0-0.1,0.1-0.1,0.4-0.1c0-0.1,0.2-0.1,0.5-0.1L31.3,2.8z M30.9,6.5h0.3l0.4,0.3v0.1L31.2,7c-0.2-0.1-0.4-0.3-0.5-0.5L30.9,6.5z
				 M31.4,4.7h0.2c0.1,0,0.2,0.2,0.3,0.5l0.5,0.5v0.2c-0.2,0.3-0.3,0.5-0.3,0.5H32c-0.1-0.1-0.3-0.1-0.6-0.1l-0.2-0.4V5.6l0.1-0.2
				V5.3l-0.1-0.2V4.8L31.4,4.7z M32.6,4.7h0.3c0.9,0.2,1.4,0.5,1.4,0.8c0.3,0,0.5,0,0.5,0.1v0.5c-0.2,0.3-0.3,0.5-0.4,0.5h-0.2
				c-0.5-0.2-0.7-0.4-0.7-0.7l-0.5-0.6c-0.4,0-0.6-0.1-0.6-0.2V5L32.6,4.7z M33.6,7c0.4,0,0.7,0.2,1.2,0.7l0.5-0.1l2.5,0.5
				c0.2,0.1,0.3,0.6,0.3,1.4c-0.1,0.1-0.4,0.2-0.8,0.2L37,10.1h-0.5c-0.2,0-0.6,0.2-1.3,0.5h-0.1v0.2l0.1,0.1h0.5l1.1-0.5l1.2-0.2
				l0.1,0.2v0.6c0,0.2-0.6,0.3-1.6,0.4c-0.2,0.1-0.6,0.2-1.4,0.3L34.4,12h-0.1l-0.1-0.1c0.1-0.1,0.1-0.3,0.1-0.6
				c0.2-0.1,0.3-0.2,0.3-0.3v-0.3c0-0.5,0.2-1,0.5-1.6V8.9c0-0.2-0.3-0.3-0.8-0.3c-0.4-0.2-0.6-0.5-0.6-1C33.6,7.5,33.6,7.4,33.6,7
				L33.6,7z M34,9.1L34,9.1l0.3,0.3v1l-0.1,0.1h-0.1L34,10.3V9.1z M36.4,17.2l0.1,0.1v0.5L36.2,18h-0.3c-0.2-0.3-0.5-0.6-0.9-0.8
				c-0.1,0.2-0.3,0.3-0.5,0.3v0.2c0.6,0.1,1,0.2,1.2,0.5c0.3,0,0.7,0.2,1,0.6l0.5,0.1c0.1-0.3,0.3-0.5,0.5-0.8l0.1-0.3
				c-0.2-0.3-0.5-0.6-0.9-0.8h-0.2L36.4,17.2z M34.9,12.7l0.1,0.1h0.3l0.2-0.2v-0.1l-0.2-0.2h-0.1L34.9,12.7z M35.3,15.6
				c0,0.1-0.2,0.3-0.5,0.6v0.3l0.3,0.1h0.1c0.3-0.4,0.5-0.7,0.5-0.8l-0.1-0.1H35.3z M35.2,14.2l-0.1,0.3l0.6,0.3H36v-0.3h-0.6
				c-0.1,0-0.1-0.1-0.1-0.2H35.2z M36.8,6.1h0.5c0.2,0,0.3,0.5,0.5,1.4l-0.2,0.1h-0.1c-0.6-0.2-0.8-0.4-0.8-0.8l-0.3-0.3V6.5
				C36.4,6.4,36.5,6.3,36.8,6.1z M37.4,12v0.1h0.2L37.4,12L37.4,12z M37.5,15.8L37.5,15.8l0.1,0.1l0.3-0.1l-0.2-0.2h-0.1L37.5,15.8z
				 M37.9,12.4c-0.1,0.2-0.2,0.3-0.2,0.5v0.3h0.1l0.3-0.4v-0.2L37.9,12.4z M37.8,14.2v0.2h0.3v-0.2H37.8z"/>
		</g>
		<g>
			<path class="st0" d="M41.9,7.1c0.2,0,0.4,0.1,0.6,0.3h0.1l0.3-0.3c0.3,0.2,0.5,0.3,0.5,0.3c-0.1,0.1-0.1,0.3-0.1,0.7
				c-0.1,0-0.1,0.1-0.1,0.2l-0.1,1.4c-0.1,0-0.1,0.2-0.1,0.7c-0.1,0-0.1,0.1-0.1,0.2c0,0.8-0.1,1.3-0.3,1.4v0.9
				c0,0.7-0.1,1.1-0.2,1.2V15l-0.1,0.2v0.6L42,15.9l0.1,0.1v0.5L42,16.7v0.6l-0.1,0.2v0.6l-0.1,0.1l0.1,0.1v0.6l-0.3,0.5
				c-0.2-0.3-0.4-0.9-0.5-1.8c0-0.3,0-0.4-0.1-0.5v-0.8l-0.1-0.2v-1.7l-0.1-0.8l0.1-0.7v-0.5c0-0.2,0.3-0.3,0.8-0.3v-0.2h-0.1
				l-0.6,0.1l-0.1-0.2v-0.3l0.1-0.2v-0.6C41,10.5,41,10.3,41,9.8l0.1-0.1h0.1c0.1,0.2,0.2,0.3,0.3,0.3h0.1V9.9l-0.5-0.5V9.4l0.5-1.6
				c0.1,0,0.2-0.2,0.2-0.5L41.9,7.1z M41.2,10.9v0.3l0.4,0.5h0.1v-0.5l-0.2-0.2H41.2z M41.5,12.8v0.5c-0.2,0-0.3,0.1-0.3,0.2v0.1
				l0.2,0.2h0.3v-0.1l-0.1-0.2v-0.2c0.2,0,0.3-0.1,0.3-0.2v-0.3L41.5,12.8z M43.5,5.1l0.2,0.2v0.1c-0.1,0.1-0.1,0.3-0.1,0.6
				l-0.5,0.3v0.1l0.4,0.3v0.3L43.3,7h-1.1L42,6.9V6.8c0.1-0.2,0.4-0.4,0.7-0.5l0.1-0.1V6.2L42.7,6V5.8C43,5.3,43.3,5.1,43.5,5.1z
				 M46.8,3.3h0.8l0.2,0.1h0.1l0.2-0.1h0.6l1,0.3c0.6,0.2,0.9,0.4,1,0.6v3.1l-0.1,0.1l-1.4-0.5l-0.8-0.1h-0.6
				c-0.7,0-1.3,0.6-1.7,1.7c-0.2,0.4-0.3,1-0.4,1.7l-0.1,0.6l-0.1,0.1v1.8L45.3,13l0.1,0.4v1.9l0.1,0.2v0.6c0.1,0.2,0.2,0.5,0.2,1
				c-0.3,0.3-0.6,0.4-0.8,0.4c-0.1,0.3-0.3,0.5-0.6,0.8c-0.1,0-0.2,0.1-0.2,0.3L44,18.8h-0.3l-0.2-0.1l-0.3,0.3h-0.8l-0.2-0.2v-0.2
				c0.1-0.1,0.2-0.6,0.2-1.4l0.1-0.1v-0.6l0.1-0.2l0.1-1.4l0.1-0.1v-0.6l0.1-0.2v-0.1c0-0.7,0.1-1,0.2-1l0.3,0.2l0.2-0.2
				c-0.2-0.4-0.3-0.7-0.3-0.9c0-0.3,0.1-0.4,0.3-0.4v-0.2h-0.1l-0.2,0.1l-0.1-0.1l0.1-0.8v-0.2l0.2-0.8l0.1-0.1L43.6,8l0.1-0.1V7.3
				l0.1-0.2V7.1c0-0.6,0.1-1,0.2-1.1L44.4,6c0.1,0,0.2-0.2,0.2-0.6l0.7-0.6C45.3,4.9,45.5,5,46,5L46,5.1l0.2-0.1h0.3l0.2,0.1h0.1
				l0.4-0.3L47,4.5l-0.8,0.1h-0.5c-0.1,0-0.2-0.2-0.3-0.5c-0.3,0-0.5-0.1-0.5-0.2c0.1-0.1,0.3-0.3,0.6-0.4h0.1l0.3,0.3
				C46.4,3.6,46.6,3.4,46.8,3.3z M45.4,18.4c0.5,0.9,1,1.3,1.5,1.3l0.1,0.1h0.6c0.1-0.1,0.3-0.1,0.8-0.1c0-0.1,0.3-0.2,0.8-0.2
				c0.3-0.2,0.6-0.3,0.8-0.3l0.1,0.1v3.2c-0.3,0.3-0.8,0.5-1.4,0.6l-0.4,0.1l-0.1,0.1L47,23.3l-1.6-0.1c0-0.1-0.2-0.1-0.6-0.1
				l-1.2-0.5c-0.1-0.1-0.2-0.3-0.6-0.5L42.2,21v-0.3c0.2-0.3,0.3-0.4,0.5-0.4v-0.1l-0.5-0.8l0.2-0.2c0.1,0.2,0.3,0.3,0.6,0.3
				l0.2,0.2v0.1c-0.1,0.2-0.2,0.3-0.3,0.3v0.2h0.1c0.5,0,0.9-0.3,1.2-1C44.3,19.3,44.7,19,45.4,18.4z M43.1,13.8v0.1l0.3,0.1
				l0.2-0.1c0-0.1-0.1-0.2-0.3-0.2L43.1,13.8z M43.1,21L43.1,21l0.1,0.2h0.1V21H43.1z M43.5,14.4v0.3h0.3l0.1-0.3l-0.2-0.2h-0.1
				L43.5,14.4z M44.6,4.1l0.2,0.2l-0.2,0.2v0.1l0.1,0.2v0.1c-0.1,0.2-0.3,0.3-0.5,0.3l-0.1-0.1V4.9c0.1-0.1,0.2-0.4,0.3-0.8l0.1-0.1
				H44.6z M44.2,5.3l0.1,0.1v0.1l-0.1,0.1l-0.1-0.1V5.4L44.2,5.3z M46.2,6.2h-0.3L45.7,6h-0.1c-0.1,0-0.2,0.2-0.2,0.6l-0.2,0.1h-0.6
				L44.4,7v0.3l0.3,0.2h0.1c0.6-0.5,0.9-0.9,0.9-1.1l0.1-0.1h0.3l0.5,0.3h0.1c0.2-0.1,0.5-0.5,0.8-1.4V5.2h-0.1
				c-0.2,0-0.5,0.2-0.6,0.6C46.7,5.8,46.5,5.9,46.2,6.2z M44.7,20.3v0.1h0.2L44.7,20.3L44.7,20.3z M47.5,21.4l-0.2,0.3l0.2,0.8h0.2
				v-1L47.5,21.4z M48.4,3.6v0.2h0.2V3.6H48.4z M49.2,4.2l0.1,0.3h0.2l0.1-0.1V4.2L49.4,4L49.3,4L49.2,4.2L49.2,4.2z"/>
		</g>
		<g>
			<path class="st0" d="M52.3,17.9c0.1,0.1,0.4,0.2,0.8,0.2c0.1,0.2,0.9,0.4,2.1,0.6c0.3,0.1,0.5,0.2,0.5,0.3v0.6L55.5,20l0.2,0.3
				v0.1l-0.1,0.3l-0.1,1.5l-0.3,0.2h-0.4l-0.3-0.3l0.1-0.2c-0.1,0-0.1,0-0.1-0.1c0-0.1,0-0.1,0.1-0.1h0.1c0,0,0,0,0,0c0,0,0,0,0,0
				l0.1-0.1v-0.1l-0.2-0.2h-0.1l-0.6,0.3v0.1c0.3,0.1,0.5,0.1,0.5,0.3l-0.2,0.2h-2.8l-0.3-0.3l0.2-0.7l0.1-0.1
				c0-0.7,0.1-1.1,0.2-1.2v-0.6l0.1-0.3c0-0.9,0.1-1.4,0.3-1.4H52.3z M58.1,2.7l0.3,0.3l-0.2,0.3l0.1,0.1h0.3l0.1-0.1V3.1l-0.2-0.3
				l0.1-0.1l0.4,0.1l0.1-0.1h0.5c0.2,0,0.4,0.6,0.5,1.7l0.1,0.1V5l-0.1,0.2l0.3,0.3v0.2c0,0.1-0.1,0.1-0.2,0.1l-0.1,0.1V6
				c0.2,0,0.3,0.1,0.5,0.3V7c0.1,0.1,0.2,0.5,0.2,1.2l0.3,1.5L61,9.8v0.1c0,0.5,0.2,0.9,0.3,1.3l0.1,1.4c0.1,0,0.2,0.2,0.2,0.6
				l0.1,0.1l0.1,1.4c0.1,0,0.2,0.2,0.2,0.6l0.1,0.1V16l-0.1,0.2v0.1c0.1,0,0.2,0.1,0.3,0.4v0.2L62,17.1v0.1l0.3,0.3v0.3l-0.2,0.2H62
				l-0.7-0.6l0.3-0.1l0.1,0.1v-0.2c-0.1,0-0.2-0.1-0.2-0.2l-0.1-0.1H61l-0.5,0.3c-1.2,0-1.8,0.1-1.8,0.1c0,0.1,0,0.2-0.1,0.2h-0.5
				l-0.2-0.2l0.1-0.3l-0.2-0.1h-0.5l-0.1,0.1c0.3,0.1,0.5,0.2,0.5,0.3l-0.2,0.2H57l-0.2-0.2l0.2-0.3l-0.1-0.2c0-0.1,0.2-0.1,0.5-0.2
				v-0.1L57,16l0.4-0.3l-0.3-0.2l-0.5,0.1l-0.1-0.1v-0.2l0.1-0.3c-0.2,0-0.3,0-0.3-0.1v-0.1h0.1l0.2,0.1l0.2-0.2H57l0.2,0.1l0.8-0.1
				l0.2,0.1l0.2-0.3l-0.3-0.3l-0.1,0.1h-0.3l-0.1-0.1v-0.3l0.1-0.1v-0.1l-0.1-0.1v-0.3l0.4-0.3v-0.2H58l-0.3,0.1l-0.1-0.2v-1.2
				l-0.2-0.3v-0.8l-0.1-0.2V9.2C57,9.1,57,8.6,57,7.8c-0.1-0.1-0.1-0.3-0.1-0.8L56.8,7h-0.1L56.7,7v0.8l-0.1,0.3l-0.1,1.5
				c-0.1,0-0.1,0.2-0.1,0.7l-0.3,0.5H56l-0.4-0.3h-0.1l-0.4,0.4v0.2l0.2,0.3c-0.1,0-0.2,0.2-0.2,0.6h-0.1l0.1,0.1v0.1
				c-0.2,0.3-0.4,0.4-0.6,0.4l-0.3-0.3h-0.3v0.1l0.1,0.2v0.3L54.1,13v0.3h0.1c0-0.2,0.2-0.2,0.5-0.3l0.2-0.2h0.1l0.1,0.1v0.1
				l-0.3,0.3h-0.3v0.3l0.3,0.6l0.4-0.3v-0.5l0.1-0.2v-0.6l-0.1-0.2l0.4-0.5l-0.2-0.1V12l0.6-0.6l0.2,0.2v0.5L56,12.4v0.6l-0.1,0.3
				c0,1-0.1,1.5-0.4,1.5h-0.3v0.2H55l-0.3-0.1c0,0.1-0.1,0.2-0.2,0.2v0.1c0,0.3,0.1,0.5,0.3,0.6h0.1l0.1-0.1l-0.1-0.2
				c0-0.1,0.1-0.1,0.2-0.1L55,15.1v-0.1l0.4-0.2H56l0.5,0.5v0.1l-0.1,0.1h-0.3l-0.3-0.1c-0.1,0.2-0.3,0.3-0.5,0.3v0.1l0.5,0.5v0.3
				l-0.1,0.2l0.3,0.3l0.2-0.1h0.2l0.4,0.3l-0.3,0.2h-0.6v0.2h0.6l0.2-0.1h0.1l0.2,0.1h2c0.5,0.5,0.9,0.7,1.1,0.7v0.2l-0.4,0.1v0.2
				h0.1l0.5-0.1v0.2c-0.1,0-0.2,0.1-0.3,0.3l0.2,0.1l0.3-0.3h0.1c0.1,0.1,0.3,0.2,0.6,0.2l0.1,0.1v0.1l-0.1,0.1v0.4h0.3
				c0.2-0.5,0.5-0.8,0.8-1c0.2,0,0.3,0.3,0.5,0.6V20l0.1,0.2l-0.1,0.2l0.1,0.2l-0.1,0.1h-0.2c-0.1-0.1-0.2-0.1-0.5-0.1L62,20.3h-0.6
				L60.9,20L60.6,20c-1.5-0.3-2.2-0.6-2.2-0.8l-0.1-0.1v-0.5l0.3-0.3v-0.1l-0.2-0.2l-0.1,0.1h-0.8l-0.2,0.1h-1.1L56,18.2h-0.6
				l-0.3,0.2c-0.2,0-0.6-0.1-1.2-0.4c-1.3-0.2-1.9-0.5-1.9-0.8h-0.5l-0.2-0.2v-0.1c0.1-0.1,0.2-0.5,0.3-1.3l0.2-0.1h0.3v-0.2
				c0-0.1-0.1-0.2-0.3-0.2l0.1-0.6l-0.1-0.3l0.3-1.4c0-0.9,0.1-1.4,0.3-1.4l-0.1-0.3V11l0.1-0.3c0-0.9,0.1-1.5,0.3-1.9V8.8
				c0-1.1,0.1-1.6,0.3-1.6h0.1l0.1,0.1h0.1c0-0.1,0.1-0.3,0.3-0.5l-0.1-0.1h-0.1l-0.2,0.1l-0.1-0.1l0.1-1.2l0.3-0.3L53.3,5V4.8
				l0.1-0.3c0-1.3,0.2-1.9,0.5-1.9H58.1z M51.7,16.4v0.1h0.2v-0.3L51.7,16.4z M52.5,13.2v0.2l0.1-0.1L52.5,13.2L52.5,13.2z
				 M52.5,13.6V14l0.1,0.2v0.2l-0.1,0.2v0.1h0.1l0.3-0.1l-0.1-0.5L53,14v-0.3l-0.2-0.2H52.5z M52.5,15.8V16h0.1V16L52.5,15.8z
				 M52.5,21.6L52.5,21.6l0.2,0.1c0.3,0,0.6-0.1,0.7-0.4h-0.1L53,21.4l-0.4,0.1L52.5,21.6L52.5,21.6z M53.7,11.4h-0.3l-0.1-0.1
				l-0.1,0.1l-0.5-0.1h-0.2v0.2h0.5l0.5,0.3h0.6l0.2-0.2c-0.2,0-0.3-0.1-0.3-0.4H54L53.7,11.4z M52.8,16.2v0.1H53l0.2-0.2L53,16
				L52.8,16.2z M52.9,13.2l0.1,0.2h0.1v-0.2H52.9z M53.1,17.1L53.1,17.1l0.5-0.5v-0.1h-0.5c-0.1,0-0.2,0.2-0.2,0.5L53.1,17.1z
				 M53.2,10.5L53.2,10.5l0.1,0.1v-0.2L53.2,10.5z M53.2,12.5l0.3,0.3h0.3v-0.1l0.1-0.5h-0.1L53.2,12.5z M53.6,16l-0.2-0.1
				c0,0.1-0.1,0.1-0.2,0.1V16l0.1,0.1h0.7c0.1-0.1,0.3-0.2,0.4-0.2v-0.2h-0.1c-0.1,0-0.3,0.1-0.5,0.2H53.6z M53.6,7.9
				c0,0.1-0.1,0.2-0.3,0.2v0.1l0.1,0.3l-0.1,0.3v0.2h0.1c0.1,0,0.3-0.3,0.6-0.8C53.9,8,53.8,7.9,53.6,7.9z M53.3,9.7h0.3V9.6h-0.2
				L53.3,9.7z M53.3,14.5v0.1h0.1v-0.1H53.3z M54.2,16.6v0.3h0.1l0.3-0.1l0.2,0.3v0.1c-0.6,0.3-1.1,0.4-1.4,0.4l-0.1,0.1v0.1h0.8
				l0.2,0.1h0.2l0.5-0.3v-0.1h-0.1v-0.1l0.3-0.1v-0.3l0.3-0.3l-0.3-0.1l-0.2,0.1l-0.4-0.1h-0.1L54.2,16.6z M53.6,5.5l-0.1,0.3v0.2
				l0.2,0.2c0-0.1,0.1-0.1,0.3-0.1V5.9l-0.2-0.1l0.1-0.1V5.5H53.6z M53.4,13.1h0.2v-0.2L53.4,13.1z M53.4,13.9v0.2h0.1V14L53.4,13.9
				z M53.4,14.9v0.2l0.3,0.1h0.1V15l-0.1-0.1H53.4z M53.6,21l-0.1,0.3l0.1,0.1h0.3l-0.1-0.1v-0.1l0.1-0.3H53.6z M54.1,9
				c0,0.1,0.1,0.2,0.4,0.3v0.1l-0.2,0.2l-0.2-0.1h-0.3v0.1l0.5,0.2h0.3c0.1,0,0.2-0.1,0.3-0.4C54.7,9.1,54.5,8.9,54.1,9L54.1,9z
				 M53.7,16.8v0.3l0.2-0.2v-0.1H53.7z M54.5,3.4l-0.2-0.1h-0.3v0.1c0.1,0.1,0.1,0.3,0.1,0.6l0.1,0.1h0.4L54.7,4h0.1l-0.1-0.3V3.6
				l0.5-0.4l0.4,0.2h0.6l0.6,0.3h0.2l0.4-0.3V3.2c0-0.1-0.1-0.2-0.3-0.2c-0.8,0-1.2,0.1-1.2,0.2h-0.1C55.5,3.1,55.4,3,55.2,3
				C55,3,54.8,3.1,54.5,3.4L54.5,3.4z M54.3,7.8l0.3,0.1h0.1l0.1-0.1V7.6h-0.3L54.3,7.8z M54.4,6.9L54.4,6.9L54.6,7V6.9H54.4z
				 M54.7,8v0.1L55,8.2h0.1V8H54.7z M54.7,21l0.2,0.2l0.3-0.5v-0.1c-0.2,0.2-0.4,0.3-0.5,0.3V21z M54.8,7C55,7.1,55,7.2,55,7.3h0.3
				V7.1l-0.2-0.2h-0.3L54.8,7z M54.8,8.5L54.8,8.5l0.1,0.1V8.4L54.8,8.5z M54.8,16.1L54.8,16.1l0.3,0.1V16h-0.1L54.8,16.1z M54.9,5
				v0.3l0.6,0.1V5.2L54.9,5z M55,10v0.1l0.3,0.1v-0.1L55.2,10H55z M55.2,4v0.2l0.1-0.1h0.1l0.1,0.1c0,0.1-0.1,0.1-0.3,0.2l-0.1,0.3
				l0.2,0.1c0.2-0.1,0.3-0.2,0.3-0.3l0.2-0.1l0.2,0.1h0.1V4.5l-0.1-0.2l0.1-0.1l-0.4-0.3h-0.3L55.2,4z M55.4,8.1v0.1h0.1L55.4,8.1
				L55.4,8.1z M55.4,5.9c0.2,0.2,0.5,0.3,0.8,0.4v0.1h0.1c0-0.2,0.1-0.3,0.3-0.3c0-0.1-0.3-0.2-0.8-0.3c0-0.1-0.1-0.1-0.3-0.1
				L55.4,5.9z M55.6,11.2h0.1v0.1h-0.1V11.2z M55.7,8.2L55.7,8.2l0.2,0.1V8.2H55.7z M55.8,15.8h0.1v0.1h-0.1V15.8z M56.3,16.6
				L56.3,16.6l0.2,0.1l-0.1,0.1h-0.1l-0.1-0.1V16.6z M56.5,4.4l-0.1,0.2h0.1l0.2-0.1L56.5,4.4L56.5,4.4z M56.7,4.1v0.1L57,4.5v0.4
				H57l0.3-0.3V4.5c-0.2,0-0.3-0.1-0.3-0.3l-0.3-0.1H56.7z M56.8,15.8L57,16l-0.2,0.1L56.7,16v-0.1L56.8,15.8z M57.6,15.8l-0.3,0.4
				l0.1,0.1h0.1l0.3-0.4L57.6,15.8L57.6,15.8z M57.4,16.5v0.1h0.1L57.4,16.5L57.4,16.5z M57.8,9L57.8,9l0.1,0.1
				c0,0.2-0.1,0.3-0.3,0.3l0.2,0.4L57.6,10c0.1,0,0.2,0.2,0.3,0.5v0.1L57.6,11l0.3,0.3l-0.1,0.2v0.1l0.3,0.4l-0.3,0.3l0.2,0.1h0.1
				l0.3-0.3v-0.1l-0.1-0.2v-0.8l-0.1-0.2v-0.6l0.1-0.2V9.7c-0.2,0-0.3-0.1-0.3-0.2V9.1l0.1-0.1V9l-0.2-0.1L57.8,9z M57.8,7v0.1H58
				L57.8,7L57.8,7z M57.8,4L57.8,4L58,4.3h0.1V4H57.8z M58,2.9v0.2h0.1V3L58,2.9z M58,7.9v0.2L58.1,8V7.9H58z M58,15v0.1l0.1-0.1H58
				z M58.1,4.5v0.3h0.1V4.5H58.1z M58.7,7.7l0.1,0.2c-0.1,0-0.2,0.1-0.3,0.4c-0.2,0-0.3,0.1-0.4,0.3c0.1,0,0.1,0.1,0.1,0.2
				c0.6,0.2,1,0.4,1.2,0.6V9.3l-0.1-0.2l0.4-0.2V8.8l-0.5-0.6l-0.2,0.1L59,8.1V7.8l0.1-0.1V7.6L59,7.6h-0.1L58.7,7.7z M58.1,12.7
				v0.2h0.1l0.2-0.2l-0.1-0.1L58.1,12.7z M58.1,17.1L58.1,17.1l0.3,0.1v-0.2h-0.2L58.1,17.1z M58.3,5.4c0.3,0,0.5,0.1,0.5,0.3
				c-0.2,0.3-0.3,0.5-0.3,0.7h0.1c0.7-0.1,1.1-0.2,1.1-0.4V5.9c0-0.1-0.3-0.4-0.8-0.8h-0.1c-0.1,0.1-0.2,0.1-0.5,0.1V5.4z
				 M58.4,10.1v0.1h0.1l0.2-0.2V10h-0.2L58.4,10.1z M58.5,16.3L58.5,16.3h0.3l0.1,0.1H59l0.2-0.1l0.2,0.1l0.1-0.1v-0.2L59.3,16v-0.3
				l0.1-0.1v-0.1l-0.3-0.3h-0.1c-0.1,0-0.2,0.2-0.2,0.7L58.5,16.3z M58.6,4.7v0.3h0.1l0.1-0.1V4.7H58.6z M58.6,12.6v0.2h0.1l0.1-0.1
				v-0.1H58.6z M58.7,3.8l0.5,0.5h0.2V4.2L59,3.7h-0.1L58.7,3.8z M58.9,14.5l0.2-0.2v-0.1h-0.2c-0.1,0-0.1,0.1-0.2,0.3H58.9z
				 M59.1,18.4L59.1,18.4l0.1,0.2h0.2v-0.1L59.1,18.4z M59.3,20c1.3,0.3,1.9,0.5,1.9,0.6v0.2h0.3l0.2-0.1H62c0,0.2,0,0.3,0.1,0.3
				h0.2c0.7,0,1.1,0.1,1.1,0.3v0.1l-0.1,0.1h-0.2l-0.2-0.1h-0.3v0.3L62,21.4h-0.2v0.1l0.5,0.5l0.5-0.1v0.1l0.1-0.1H63l0.1,0.1h0.1
				c0-0.2,0.1-0.3,0.2-0.3l0.3,0.3v0.2l-0.3,0.3h-1.2L62,22.2h-0.1l-0.2,0.1h-1.9c-0.1,0-0.2-0.2-0.4-0.5v-0.6l0.1-0.1v-0.1
				l-0.1-0.1v-0.6l-0.1-0.2v-0.2C59.1,20,59.2,20,59.3,20z M59.2,7.3L59.2,7.3l0.2,0.3C59.8,7.4,60,7.3,60,7.2c-0.4,0-0.6,0-0.6-0.1
				L59.2,7.3z M59.4,11.4l-0.1,0.2v0.1l0.4,0.5h0.1v-0.1L59.6,12l0.1-0.1h0.1c0.1,0,0.1,0.2,0.2,0.6l0.6,0.7v0.5l0.3,0.1l0.1-0.1
				l-0.1-0.3v-0.3c-0.2,0-0.3-0.1-0.3-0.4c-0.2-0.1-0.3-0.2-0.3-0.3v-0.1l0.2-0.5h-0.1l-0.3-0.1L60,11.8H60l-0.3-0.1l0.1-0.1v-0.1
				L59.4,11.4z M59.5,9.6v0.1h-0.1v0.1c0,0.1,0.2,0.1,0.5,0.1L60,10h0.8V9.9c0-0.1-0.1-0.2-0.3-0.2V9.6h0.1V9.5l-0.3-0.1h-0.1
				C60,9.5,59.8,9.5,59.5,9.6L59.5,9.6z M59.4,14.3c0.3,0.3,0.6,0.5,0.8,0.5c0-0.1,0.2-0.2,0.6-0.4v-0.1l-0.8-0.3
				C59.9,14.1,59.6,14.2,59.4,14.3L59.4,14.3z M59.4,13.2v0.2l0.3,0.3h0.1v-0.3l-0.3-0.3H59.4z M60.2,16.6h0.2c0-0.2,0-0.3,0.1-0.3
				l-0.1-0.1v-0.1h0.1l0.2,0.1h0.1v-0.2h-0.4c-0.5,0-0.8,0.1-0.8,0.3L60.2,16.6z M59.8,9.6H60v0.1h-0.1V9.6z M60.1,13.5L60.1,13.5
				l0.2,0.1v-0.1H60.1z M60.9,21.7l0.1,0.1v0.1h-0.3v0.2h0.2c0.1-0.1,0.2-0.2,0.4-0.2v-0.1l-0.1-0.1v-0.1l0.3-0.3v-0.1h-0.4
				L60.9,21.7z M61.7,18.1h0.1l0.5,0.3l-0.1,0.1v0.1l-0.5-0.1l-0.3,0.4h-0.1L61,18.7v-0.3C61,18.3,61.2,18.2,61.7,18.1L61.7,18.1z
				 M61.1,15.1L61.1,15.1l0.1,0.1v-0.1H61.1z M61.6,16.1v0.2h0.1L61.6,16.1L61.6,16.1z"/>
			<path class="st0" d="M65.9,3.2h3.4l0.2,0.2l-0.1,0.1l-0.3-0.1c0,0.1-0.3,0.3-0.8,0.6v0.3l0.2,0.2h0.1c0.3-0.3,0.6-0.5,0.8-0.5
				l0.1,0.2v2.3l-0.1,0.2l-0.3-0.1H69l-0.2,0.2v0.2h0.1L69.5,7l0.1,0.2V8L69,8.7v0.1l0.6,0.5v1.3l-0.1,0.2l-0.6-0.1v0.1L69,11v7.7
				l0.3,0.1h0.1l0.2-0.1h0.2l0.9,0.6l0.1-0.2c-0.1,0-0.2-0.2-0.2-0.4l0.1-0.1h0.5c0.1,0.1,0.4,0.2,0.8,0.3l0.2,0.2h0.2l0.2-0.1
				L72.5,19v-0.1l0.3-0.3l0.2,0.1l-0.1,1.8l0.1,1.6l-0.2,0.1h-7.4l-0.2-0.2v-13l0.1-0.1l1,0.6h0.1l0.1-0.1C66,9.3,65.7,9.1,65.7,9
				V8.2c0-0.1,0.1-0.2,0.4-0.2l0.2-0.3V7.6L65.7,7V6.7l0.5-0.5V5.9l-0.5-0.5v-2L65.9,3.2z M65.5,15.5l0.5,0.3h0.1
				c0.1-0.1,0.3-0.1,0.6-0.1l0.1-0.2V15l-0.4-0.2h-0.2L65.5,15.5z M66.1,18.7v0.1l0.3,0.3v0.1l-0.1,0.1v0.1l0.6,0.7l0.1-0.2v-0.2
				c-0.2-0.3-0.3-0.7-0.4-1.1l-0.1-0.1h-0.3L66.1,18.7z M66.3,16.9v0.7l0.2,0.2h0.1l0.2-0.2v-0.6l-0.2-0.2L66.3,16.9z M66.6,8.3
				l0.1,0.1L66.7,9c0.1,0.2,0.2,0.3,0.3,0.3h0.1l0.3-0.4V8.4l-0.3-0.3h-0.2L66.6,8.3z M66.6,9.6L66.6,9.6l0.1,0.1V9.6H66.6z
				 M66.8,13.2v0.1l0.2,0.2h0.1l0.2-0.2v-0.2L67.2,13H67L66.8,13.2z M66.9,9.7L66.9,9.7c0,0.1,0.4,0.4,1.2,0.8h0.3v-0.1L66.9,9.7z
				 M66.9,17.9v0.4l0.2,0.2l0.3-0.2l0.1-0.1v-0.1l-0.1-0.2v-0.1c0.1-0.4,0.2-0.6,0.3-0.6c0.3,0,0.5-0.2,0.5-0.7l0.3-0.2l0.2,0.1h0.1
				l0.1-0.1v-0.1l-0.3-0.3c0-0.2-0.1-0.3-0.2-0.3h-0.1c-0.1,0-0.2,0.2-0.3,0.6c-0.4,0-0.6,0.2-0.6,0.5l-0.3,0.6
				C67.1,17.6,67,17.8,66.9,17.9z M67,6.7V7h0.2l0.2-0.2V6.7H67z M67.2,6L67.2,6l0.3,0.1l0.1-0.1V6l-0.2-0.2L67.2,6z M67.3,20.4
				c0,0.3,0.2,0.5,0.6,0.7c0.1,0,0.2-0.2,0.3-0.5v-0.1l-0.3-0.3L67.3,20.4z M67.9,8.6V9l0.3,0.3h0.2l0.2-0.2V8.6l-0.2-0.2h-0.3
				L67.9,8.6z M68,18.6v0.3c0,0.1,0.1,0.2,0.4,0.3v0.1h0.1l0.2-0.2V19l-0.4-0.5h-0.2L68,18.6z M68.5,10.5v0.1h0.1L68.5,10.5
				L68.5,10.5z M68.7,10.6L68.7,10.6l0.1,0.1v-0.1H68.7z M69.2,19.7v0.2h0.1l0.1-0.1v-0.1H69.2z M70,19.7v0.6l0.5,0.3h0.6l0.1-0.4
				c-0.1-0.1-0.3-0.1-0.8-0.2L70.3,20v-0.1l0.1-0.1v-0.1l-0.2-0.2h-0.1L70,19.7z M71.6,21.6l0.1,0.1h0.2l-0.1-0.3h-0.1L71.6,21.6z"
				/>
		</g>
		<g>
			<path class="st0" d="M71.3,2.1h3.9c0.2,0,0.3,0.3,0.3,0.9l0.1,0.1v0.3l-0.1,0.1v0.1l0.1,0.1v0.5l-0.5,0.3h-0.8l-0.1,0.3L74.6,5
				h0.7c0.1-0.1,0.3-0.2,0.6-0.2L76,5v0.1l-0.1,0.1v0.1C76,5.2,76,5.4,76,5.9c0.1,0,0.2,0.2,0.2,0.6l0.1,0.1v0.3l-0.1,0.1V7
				c0.1,0,0.1,0.2,0.1,0.6c0.1,0,0.2,0.2,0.2,0.6l0.1,0.1v0.5l-0.1,0.1v0.1h0.2l0.1-0.1V8.2c0.2-0.4,0.3-1.2,0.5-2.5
				c0.1,0,0.2-0.3,0.2-1c0.1,0,0.2-0.3,0.3-1L78,3.5V3.4l-0.1-0.2V3C77.9,3,78,2.7,78,2.2l0.1-0.1h4.1l0.2,0.1l-0.7,2.5l-0.5,1.4
				c-0.3,1.6-0.6,2.5-0.8,2.5c-3.2,0.8-5.2,1.4-5.8,1.7L74.3,10V9.6l0.1-0.2V9.2H74c-0.1,0-0.2,0.2-0.3,0.5v0.3l0.3,0.3l-0.2,0.2
				h-0.2c-0.1,0-0.4-0.8-0.8-2.4l-1.5-5.2l0.1-0.1V2.8c-0.1,0-0.2-0.2-0.2-0.5L71.3,2.1z M73.9,7.4l-0.1,0.2v0.1l0.3-0.1V7.4
				L73.9,7.4z M74.2,10.6h0.1l0.1,0.1l-0.1,0.4h-0.1L74,10.9v-0.1L74.2,10.6z M81,8.7l0.1,0.2c-0.4,1.1-0.7,2.3-1,3.5
				c-0.1,0.2-0.3,0.3-0.5,0.3l-0.1,0.1v0.2l0.3,0.3v0.3l-0.5,0.8V15l-0.1,0.1h-0.1L78.9,15c-0.4,0.3-0.6,0.6-0.6,0.9
				c-0.1,0-0.1,0.1-0.1,0.3l-0.1,0.1h-0.6c-0.2-0.2-0.4-0.3-0.6-0.3h-0.1c-0.1,0.1-0.4,0.3-0.8,0.4c-0.4,0.6-0.6,0.9-0.7,0.9
				l-0.1-0.1v-1.5l-0.4-1.9V13c-0.2-0.2-0.3-0.4-0.5-0.7v-0.1l0.1-0.1l0.3,0.2l0.1-0.1h0.1l-0.1-0.6v-1c0-0.2,0.5-0.3,1.5-0.5
				c0-0.1,1-0.4,3-0.8L81,8.7z M74.9,5.9L74.9,5.9L75.2,6V5.9l-0.1-0.1L74.9,5.9z M78.8,16.3h0.2c0.2,0,0.3,0.3,0.3,0.8h0.1
				l-0.1,0.8v3.4L79,21.5h-0.5l-0.3-0.2h-0.1l-0.3,0.2h-1.2c-0.4,0-0.6-0.2-0.6-0.5l-0.3-0.2l-0.5,0.2l-0.1-0.2v-0.5l0.3-0.3h0.1
				l0.4,0.4l0.3-0.1h0.2c0-0.3,0.3-0.7,0.9-1.2l0.5-0.4l0.1,0.1h0.1c0.5-0.2,0.7-0.5,0.7-1V17l-0.1-0.1l-0.3,0.2l-0.3-0.2
				c-0.2,0-0.5,0.2-0.8,0.5v0.1l0.3,0.3v0.1c-0.6,0.8-1,1.2-1,1.4l-0.3,0.2H76l-0.2-0.2l0.1-0.5h-0.2c0,0.2-0.1,0.4-0.3,0.5
				l-0.1-0.2v-0.5l0.1-0.2v-0.2l-0.1-0.2V18c0.2-0.4,0.5-0.6,0.8-0.6v-0.3l0.3-0.3h0.3l0.2,0.1h0.1l0.6-0.5h0.4l0.4,0.3h0.1
				C78.3,16.6,78.5,16.5,78.8,16.3z M75.8,13v0.1H76c0.3-0.2,0.5-0.3,0.5-0.3l-0.2-0.2L75.8,13z M76.4,17.2
				c-0.1,0.1-0.2,0.4-0.3,0.8l-0.3,0.3v0.3H76c0.1,0,0.2-0.2,0.3-0.5c0.1,0,0.2-0.2,0.3-0.6l0.1-0.1v-0.1L76.4,17.2z M76.7,11.2v0.2
				l0.2,0.3l-0.1,0.2h0.1c0.1,0,0.1,0.1,0.1,0.2h0.3l0.2-0.2v-0.3c-0.2-0.2-0.3-0.4-0.3-0.5h-0.1L76.7,11.2z M76.9,13.2L76.9,13.2
				l0.3,0.3l0.2-0.2v-0.2l-0.2-0.2L76.9,13.2z M77.2,15.1L77.2,15.1l0.1,0.1V15L77.2,15.1z M77.5,14L77.5,14l0.3,0.1v-0.2h-0.1
				L77.5,14z M78,4.2l-0.1,0.3L78,4.5H78l0.1-0.1l-0.1-0.2H78z M78.9,5.9l-0.1,0.3v0.3l0.3,0.3h0.3c0-0.1,0.1-0.2,0.3-0.3V6.3
				l-0.4-0.4H78.9z M78.9,11.5L78.9,11.5l0.3,0.1v-0.3h-0.1L78.9,11.5z M79.1,15.2h0.1v0.2L79,15.6l-0.1-0.1v-0.1L79.1,15.2z
				 M78.9,7.7L78.9,7.7l0.1,0.2h0.1V7.7H78.9z M79.3,4.5l0.2,0.2h0.1V4.6l-0.1-0.1L79.3,4.5z M80.4,5.1c-0.1,0.3-0.2,0.4-0.3,0.4
				v0.2h0.7l0.1-0.1V5.5C80.7,5.2,80.5,5.1,80.4,5.1z M81.1,3.9v0.4h0.1l0.3-0.6h-0.1L81.1,3.9z"/>
		</g>
		<g>
			<path class="st0" d="M83.6,10.2H84l0.5,0.5v0.1L84,11h-0.2l-0.3-0.3v-0.4L83.6,10.2z M83.7,11.5c0.1,0.1,0.4,0.2,0.8,0.2
				c0,0.2,0.5,0.4,1.4,0.5l2.7,2.7l0.9,0.9L89.3,16h-1.6c-0.2-0.1-0.3-0.3-0.3-0.5h-0.3l-0.2-0.1h-0.1c-0.2,0.2-0.4,0.3-0.5,0.3
				L86,15.7l-0.2,0.1v0.1l0.3,0.4v0.1l-0.3,0.4l0.2,0.1h0.6l0.1-0.1l-0.2-0.4c0.2-0.3,0.3-0.5,0.3-0.5h0.2l0.3,0.3v0.5l-0.1,0.2V17
				l0.1,0.2v5.4l-0.1,0.1l-0.4-0.1c-0.4,0-0.6,0.1-0.8,0.4V23l0.1,0.2l-0.1,0.1h-1L85,23.2l0.1-0.2v-0.1l-0.3-0.3l-0.5,0.1l-0.5-0.1
				l-0.1,0.1v0.2l0.1,0.5h-0.3l-0.1-0.1V12.6c0-0.1,0.1-0.2,0.4-0.3v-0.1l-0.4-0.5v-0.1L83.7,11.5z M83.9,20.6L83.9,20.6l0.1,0.6
				l-0.1,0.2v0.4h0.1c0.3-0.3,0.5-0.5,0.8-0.5v-0.1c-0.3-0.3-0.5-0.5-0.5-0.6H83.9z M84,17.6v0.2l0.1,0.1l0.2-0.2v-0.1L84,17.6z
				 M84,19.7v0.1l0.1,0.2v0.3h0.5l0.2,0.2V21H85v-0.3l0.2-0.5h-0.1l-0.3,0.1h-0.1c-0.3-0.2-0.4-0.4-0.4-0.7l-0.1-0.1h-0.1L84,19.7z
				 M84.3,4h0.8c0.4,0.3,0.6,0.4,0.6,0.5l-0.1,0.1v0.3c0.1,0.2,0.3,0.3,0.6,0.3c0,0.1,0.2,0.2,0.5,0.3c0,0.4,0.2,0.6,0.5,0.6
				l0.2-0.3V5.6l-0.3-0.4l0.5-0.6V4.6l-0.4-0.4h-0.1l-0.3,0.3h-0.1l-0.3-0.3L86.6,4h0.6l0.2,0.1h0.1L87.7,4h2.7
				C90.5,4,90.7,4.1,91,4.1l0.1,0.4h0.1c0-0.1,0.1-0.2,0.3-0.3h0.1c0.9,0.3,1.6,0.7,2.1,1.2c0.5,0.4,0.9,1.1,1.4,2.1
				c0,0.2-0.4,0.3-1.3,0.3C93.6,7.9,93.3,8,92.8,8l-0.1,0.1h-0.2c-0.1,0-0.2-0.2-0.3-0.5h-0.1c-0.4,0.1-0.8,0.3-1.2,0.6l-0.3-0.6
				l-1.2-0.5c-0.3,0-0.5-0.1-0.5-0.2V6.4L89,6.2V5.9l-0.2-0.2h-0.1c-0.1,0-0.2,0.2-0.3,0.6l-0.6,0.6v0.2L88,7.4v1.4
				c0,0.1-0.2,0.2-0.7,0.3l-0.1,0.1h-0.2l-0.3-0.3V8.6c0-0.1,0.2-0.2,0.5-0.2L87.7,8c0-0.1-0.1-0.2-0.3-0.2c-0.6,0-0.9,0.2-0.9,0.7
				c-0.3,0-0.5,0.2-0.8,0.5h-0.1l-0.3-0.2c-0.6,0-0.9,0.1-1.1,0.4l-0.1-0.1V4.2L84.3,4z M84.3,14.5l0.6,0.5h0.2l0.1-0.1v-0.2
				c0-0.1-0.2-0.2-0.6-0.4h-0.1L84.3,14.5z M84.6,17.2l0.3,0.3l0.1-0.2v-0.1L84.8,17L84.6,17.2z M84.7,17.8v0.3l0.3,0.1H85l0.1-0.1
				V18l-0.2-0.2H84.7z M85.4,9.9l0.2,0.3v0.2l-0.3,0.3h-0.1l-0.4-0.4v-0.1L85.4,9.9z M84.8,15.8l0.1,0.1H85l0.3-0.1v-0.1l-0.2-0.2
				h-0.1L84.8,15.8z M85.3,19v0.1l0.1,0.1l0.3-0.3h0.1l0.2,0.2L86,19.3v0.1h0.3l0.4-0.4V19L86,18c-0.1,0-0.2,0.1-0.2,0.4L85.3,19z
				 M85.4,20.2v0.1l0.2,0.2l0.1-0.1v-0.2H85.4z M87.3,9.3h0.3C87.9,9.4,88,9.6,88,9.6v2l-0.2,0.2h-0.2l-0.3-0.2h-0.1L87,11.8h-0.1
				c-0.2-0.2-0.4-0.5-0.5-0.7l-0.6-0.5v-0.5c0-0.1,0.2-0.2,0.7-0.4C86.7,9.6,87,9.4,87.3,9.3z M86.1,20.6v0.2h0.2v-0.2H86.1z
				 M87.3,22.8l0.1,0.1v0.1l-0.2,0.2h-0.6l-0.1-0.1C86.8,23.1,87.1,23,87.3,22.8z M86.5,21.8L86.5,21.8l0.1,0.2h0.1v-0.2H86.5z
				 M86.9,17.7l-0.1,0.2v0.3l0.1,0.3h0.2v-0.6L86.9,17.7z M87.8,12.4l0.4,0.3h0.4l5.2,1.4l0.1,0.1v0.1c-0.7,0.7-1.3,1.2-1.9,1.3
				c-0.2,0.1-0.7,0.2-1.6,0.3l-0.1,0.1L88,13.5l-0.8-0.8v-0.1h0.3L87.8,12.4z M90.6,12c0.8,0.2,1.2,0.3,1.2,0.5l-0.1,0.1H91
				c-0.4-0.1-0.6-0.2-0.6-0.3v-0.2C90.4,12,90.4,12,90.6,12z M94.8,8.3h0.1l0.2,0.2v2.1L95,10.7h-0.1L94.6,10l-0.1-0.1h-0.1
				l-0.8,0.3v0.4c0,0.1-0.1,0.2-0.4,0.3L93,11.1v0.1c0.1,0.2,0.2,0.3,0.6,0.3c0.1,0,0.2-0.2,0.2-0.5l0.1-0.1h0.1l0.3,0.3h0.6
				l0.3,0.3v0.1l-0.3,0.5l0.1,0.3v0.4l-0.3,0.3h-0.1c-0.2-0.1-0.3-0.2-0.3-0.3h-0.4c-0.3,0-0.7-0.2-1.3-0.6l-0.3-0.1L92,12H92
				l-0.2-0.1h-0.9l-0.2-0.2c0.2-0.3,0.3-0.6,0.3-0.9h0.1L91,10.4V9.1l0.3-0.3l0.2,0.1h0.5l0.6-0.3h0.6l0.2-0.1h0.8
				C94.5,8.5,94.7,8.4,94.8,8.3z M91.1,6l0.3,0.3h0.1c0-0.1,0.1-0.2,0.2-0.2V6.1l-0.2-0.2h-0.3L91.1,6z M91.5,14.2l0.2,0.2h0.1
				l0.2-0.2L91.7,14h-0.1L91.5,14.2z M92,11v0.2h0.1l0.2-0.2H92z M92.2,5.8v0.6l0.3,0.1l0.2-0.3c0-0.6-0.1-0.8-0.2-0.8
				c-0.1,0-0.1,0.1-0.1,0.3L92.2,5.8z M93.2,6v0.1l0.2,0.4h0.1l0.3-0.3V6l-0.1-0.1h-0.2L93.2,6z M93.5,12.8l0.1,0.2l-0.1,0.1h-0.1
				L93.3,13L93.5,12.8z M93.4,12L93.4,12l0.1,0.2h0.3L94,12v-0.2h-0.5L93.4,12z"/>
		</g>
		<g>
			<path class="st0" d="M97.9,3.6l1,4.9c0,0.1,0,0.2,0.1,0.2L99,9.1v0.1l0.4,1.2l-0.1,0.3c0.1,0,0.2,0.4,0.3,1.2l0.1,0.1V12
				l-0.1,0.1v0.1c0.1,0,0.2,0.3,0.3,1l0.1,0.1v0.3l-0.1,0.1v0.1c0.1,0,0.2,0.2,0.2,0.5l0.1,0.5l0.1,0.1v0.1l-0.1,0.1v0.1
				c0.1,0,0.1,0.2,0.1,0.5l0.1,0.1v0.2l-0.1,0.1c-0.8-1-1.7-2-2.9-3.2c-0.6-0.7-1.1-1.5-1.4-2.3L96,10.4l0.1-0.2
				c-0.1,0-0.2-0.3-0.4-0.9V9l0.1-0.1V8.9l-0.1-0.1V7.4l0.1-0.1l-0.1-0.3V6.7c0.5-1.6,1.1-2.5,1.7-2.8C97.5,3.7,97.7,3.6,97.9,3.6z
				 M96.2,18l2.5,0.7c0.1,0.1,0.2,0.4,0.4,0.8c0.4,0,0.6,0.2,0.6,0.3v0.1L99.7,20V20l0.3,0.2h0.5l0.1-0.1V20
				c-0.3-0.4-0.5-0.6-0.7-0.6c-0.3-0.1-0.5-0.2-0.5-0.3v-0.1c0.2-0.3,0.5-0.5,1.1-0.8l0.1-0.1l0.5,0.3c0.1,0.6,0.2,1,0.3,1.1v0.2
				l-0.1,0.1v0.1c0.1,0,0.1,0.2,0.1,0.6c0.1,0,0.1,0.2,0.1,0.5l0.1,0.1v0.3l-0.1,0.1v0.1c0.1,0,0.1,0.2,0.1,0.5l0.1,0.1l-0.2,0.2
				h-0.2c-0.1,0-0.2-0.1-0.3-0.4h-0.1l-0.1,0.1H101l0.1,0.1V22l-0.3,0.3h-2.4l-0.8-0.2c-1.1-0.2-1.7-0.4-1.7-0.6v-2.2
				c0-0.1,0.2-0.2,0.5-0.3v-0.2l-0.1-0.2l0.1-0.2c-0.2-0.1-0.3-0.2-0.3-0.4L96.2,18L96.2,18z M96.1,19.9V20l0.2,0.2l0.1-0.1h0.3
				l0.2,0.1h0.3l0.2-0.1h0.3l0.2,0.1l0.2-0.1c0.1,0,0.1,0.2,0.2,0.6l0.3,0.3L98,21.4l0.2,0.1h0.1l0.2-0.1h0.1l0.2,0.1H99l0.2-0.2V21
				c-0.3,0-0.4-0.2-0.4-0.6l0.5-0.4c-0.2-0.2-0.8-0.3-1.6-0.5l-0.3-0.3h-0.1C96.5,19.6,96.1,19.8,96.1,19.9z M96.4,9.8L96.4,9.8
				l0.2,0.3l0.6-0.3V9.7c-0.2-0.3-0.3-0.5-0.4-0.5h-0.1L96.4,9.8z M97,7l0.3,0.3l0.1-0.1l-0.3-0.3L97,7z M97.3,21.1v0.1h0.1
				L97.3,21.1L97.3,21.1z M101.7,3.3l1.4,0.1c0.3,0.2,0.8,0.3,1.7,0.5l0.2,0.3l-0.1,1.7l0.1,1.6l-0.2,0.1h-0.1
				c-0.6-0.3-1.2-0.5-1.8-0.6l-0.5-0.1l-0.1-0.1h-0.5c-0.9,0.3-1.3,0.5-1.3,0.7l-0.3,0.7v0.5c0.1,0.1,0.1,0.3,0.1,0.6
				c0.1,0.5,1.2,1.8,3.1,3.8c0.6,0.8,1,1.4,1.2,1.9c0.1,0,0.3,0.5,0.6,1.4h0.1l0.1,1.7v0.5c0,0.1-0.2,0.1-0.6,0.2l-0.2,0.2
				c-0.4-0.4-0.6-0.6-0.8-0.6l-0.8,0.1l-0.6-0.1l-0.3,0.4v0.5l0.2,0.2l0.1-0.1h0.3l0.6,0.3h1l0.2-0.1h0.1c0.4,0.1,0.6,0.2,0.6,0.3
				l-0.3,0.8c-0.4,0.3-0.8,0.5-1,0.5l-1,0.5l-0.1,0.1v0.1l0.1,0.1h0.3c0.1,0,0.3-0.1,0.5-0.2h0.3l0.1,0.1c-0.7,0.6-1.2,0.8-1.5,0.8
				h-0.1c-0.1,0-0.3-0.8-0.6-2.5c-0.1-0.2-0.4-1.6-0.9-4.1l-1.7-7.8c-0.4-1.9-0.7-3.1-0.8-3.6V4.1c0.3-0.4,0.9-0.6,1.6-0.6l0.1-0.1
				L101.7,3.3z M99.8,3.8v0.3l0.2,0.2l0.1-0.1V4l-0.2-0.2H99.8z M100.2,21v0.3h0.3l0.1-0.1l-0.1-0.1H100.2z M100.8,17.4
				c0.1,0,0.2,0.1,0.2,0.4l-0.1,0.1h-0.1l-0.2-0.2v-0.1L100.8,17.4z M102.6,20.6l0.1,0.1h0.3l0.1-0.1l-0.2-0.2h-0.2L102.6,20.6z
				 M104.1,21l0.1,0.1l-0.1,0.1l-0.1-0.1L104.1,21z"/>
			<path class="st0" d="M107.4,3.3h6.8l0.1,0.1c-0.1,0.3-0.4,0.5-0.7,0.7l-0.1,0.1h-0.1l-0.5-0.5c-0.1,0-0.2,0.1-0.3,0.4h-0.1
				l-0.3-0.3H112L111.8,4h-1l-0.3,0.3l0.4,0.3L110.5,5l0.1,0.1h0.2l0.2-0.1h0.5l0.3-0.1l-0.1-0.1V4.7c0-0.1,0.2-0.1,0.6-0.1
				c0-0.1,0.2-0.2,0.5-0.3c0,0.1,0.2,0.1,0.5,0.1l0.2,0.3v0.1c-1,1.5-1.5,2.2-1.6,2.2h-0.8L111,7.1v0.6l0.1,0.2v0.3l-3.3,5
				c-0.2,0.3-0.3,0.6-0.5,0.8h-0.1V7.4l0.1-0.1c0.8,0.1,1.3,0.2,1.4,0.3h0.1l0.2-0.1h1V7.3l-0.2-0.2h-0.9l-0.4-0.2L107.8,7h-0.5
				l-0.1-0.1V5.1l0.5-0.5l0.1,0.1h0.2c0.2-0.1,0.4-0.2,0.6-0.2V4.5c0-0.1-0.2-0.2-0.6-0.3c-0.2-0.3-0.3-0.5-0.3-0.5h-0.1L107.3,4
				l-0.1-0.1V3.5L107.4,3.3z M107.4,10v0.1l0.2,0.2l0.1-0.2l-0.2-0.1H107.4z M111.3,8.4L111.3,8.4l0.2,0.1v0.8l-0.1,0.2v1l0.2,0.2
				h4.1l0.1,0.1v3.4l-0.2,0.2h-1.5l-0.2-0.1h-1l-0.2,0.1h-0.3l-0.2-0.1h-0.6l-0.2,0.2V15l0.1,0.2V16l-0.3,0.5l-0.2-0.1H111
				c-0.6,0.3-1,0.5-1.2,0.5v0.3h0.6l0.2,0.1c0.3-0.1,0.6-0.3,0.8-0.5l0.1,0.1V18l-0.4,0.3h-0.4l-0.2-0.1h-0.9l-0.4-0.3H109
				c0,0.1-0.1,0.2-0.2,0.2l-0.5-0.2h-0.6l-0.1-0.1V14c1.7-2.5,2.6-3.9,2.8-4.1C110.4,9.7,110.7,9.2,111.3,8.4z M107.7,18.5l1.5,0.4
				c0.2,0,0.4,0,0.5,0.1h0.3l0.2-0.1h0.1l1.2,0.5l0.2-0.1h0.1c0.1,0.1,0.7,0.2,1.7,0.2l0.6,0.2c0,0.1,0.2,0.2,0.5,0.4h0.5l0.2-0.1
				h0.3l0.3,0.3v0.1c0,0.1-0.4,0.3-1.3,0.6l-0.6,0.3c-0.3,0-0.6,0.1-0.9,0.3l-0.1-0.1v-0.1l0.1-0.2v-0.1h-0.4
				c-0.4,0-0.6,0.2-0.6,0.5c0,0.3-0.1,0.4-0.4,0.4c0,0.2-0.3,0.3-0.8,0.3l-0.1,0.1h-0.3l-0.6-0.3l-0.3,0.3h-1.8l-0.3-0.3v-3.4
				L107.7,18.5z M107.7,10.7v0.1h0.2v-0.1H107.7z M107.9,15.9l0.2,0.4h0.1l0.2-0.2l-0.4-0.3L107.9,15.9z M108.5,20.6v0.2
				c0.1,0.2,0.2,0.3,0.3,0.3L109,21v-0.5l-0.3-0.1h-0.1L108.5,20.6z M108.8,4.3L108.8,4.3c0.1,0.1,0.2,0.2,0.3,0.4v0.1l-0.6,1.1
				l0.1,0.2l-0.1,0.1l0.1,0.1h0.1c0.3-0.1,0.5-0.4,0.5-1l0.7-0.8V4.1L109.7,4h-0.1C109.1,4,108.8,4.1,108.8,4.3z M110,14.5v0.2h0.1
				v-0.1L110,14.5z M110.4,15.5v0.1l0.2,0.2h0.1l0.1-0.1v-0.1c0-0.1-0.1-0.1-0.2-0.1L110.4,15.5z M111.9,4.8V5c0.2,0,0.4,0,0.5,0.1
				l0.2-0.2V4.8H111.9z M116.3,20.6L116.3,20.6l0.1,1.5l-0.3,0.3h-0.8l-0.2-0.1h-0.2l-0.2,0.1h-2.5l-0.1-0.1v-0.1
				c0-0.1,0.2-0.2,0.7-0.4h0.4l0.2,0.1h0.1c0.1,0,0.2-0.1,0.3-0.4l0.9-0.4h0.6C115.6,20.8,116,20.6,116.3,20.6z M115,3.1h1.2
				l0.3,0.3v0.4l-0.1,0.2v0.3l0.1,0.2v0.1l-0.1,0.2v0.1l0.1,0.2v1.4l-0.2,0.2h-3.5l-0.1-0.1c0.6-1,1.2-1.8,1.6-2.3h1.1V3.9l-0.1-0.2
				l0.1-0.2l-0.2-0.1l-0.3,0.3h-0.1l-0.1-0.1V3.6L115,3.1z M112.6,18.8h0.1v0.1L112.6,18.8L112.6,18.8z M114.4,18.7l0.1,0.1
				l-0.3,0.2h-0.1l-0.3-0.3l0.1-0.1H114.4z M114.4,4.7v0.2l1,0.1l0.5-0.1V4.7H114.4z M114.9,18.7h0.1l0.1,0.1v0.1l-0.2,0.2h-0.1
				l-0.1-0.1v-0.1L114.9,18.7z M115.3,21.5v0.2h0.3v-0.3L115.3,21.5z M115.9,18.7h0.2l0.2,0.2v0.2l-0.1,0.1
				c-0.3-0.1-0.4-0.2-0.5-0.3L115.9,18.7z M116,20.1h0.2v0.1H116V20.1z"/>
		</g>
		<g>
			<path class="st0" d="M23.8,24l3.4-0.2c0.2,0,0.3,0.2,0.4,0.5l0.5,0c0-0.4,0-0.5,0.2-0.5l2.2-0.1l0.3,0.3l0.1,1l0.2,0.3l0.1,1.8
				l-0.5,0.6c0.3,0,0.6,0.1,0.8,0.5l0,0.5l0.2,2.4l-0.3,0.2l-0.2,0L30.9,31l-0.3,0l0,0.2c0.2,0.2,0.4,0.7,0.5,1.5l0.1,0.1l0.1,1.4
				l-0.2,0.3c0.2,0,0.3,0.4,0.4,1.2l0.1,1l0.2,0.3l0.1,1.4l-0.2,0.3l0,0.1l0.2,0.3l-0.2,0.2l0.5,0.5l0.1,1.8c0,0.1-0.3,0.3-0.8,0.4
				l-0.4-0.1l-0.3,0l0,0.3l0.5,0.2l0.6,0l0.3-0.2l0.2,0.3l0,0.4l-0.2,0.2l-0.1-0.1l-0.1,0l-0.1,0.1l0,0.1l0.2,0.2l0,0.3l-0.5,0.5
				l-0.1,0l-0.3-0.2l-0.3,0.1l-0.1-0.1c0,0.2-0.5,0.3-1.6,0.4l-2.8,0l-0.6-0.5l-0.3-2.9l0-0.5L25,39.7l0-0.3l-0.3-2.9l-0.2-0.2
				l-0.1-1.3l-0.2-0.3l-0.1-1.4l0.2-0.2c0.6,0.6,0.9,1,0.9,1.1L26,34l1.5,0l0.1-0.1l0-0.2c-0.9-0.4-1.5-0.8-2-1.3
				c-0.4-0.2-0.9-0.3-1.5-0.2l-0.1-0.1l0-0.1c0.7-0.3,1-0.4,1-0.6l-0.5-0.4l0-0.4l0.2-0.2l0.3,0l0.6,0.5l0.2,0l0-0.4
				c-0.4-0.5-0.6-0.9-0.6-1.2c-0.1,0-0.2,0.2-0.2,0.5l-0.1,0.1l-0.1,0c-0.3,0-0.5-0.4-0.5-1.3l0-0.4L24,27.8l0-0.1l0.2-0.3l0-0.2
				l-0.4-1.1L23.7,26l-0.1-1.1l-0.1-0.7L23.8,24z M26.2,27.2l-1.1,0.1l-0.5,0.1c0,0.2,0.5,0.3,1.5,0.4c0.2,0.3,0.6,0.4,1.1,0.4
				l1.2-0.1c0-0.4,0-0.5,0.2-0.5l0.6,0l0.3,0.2l0.3-0.1l0.1,0.1l0,0.2c0,0.1-0.2,0.2-0.5,0.2l0,0.1c0.1,0.2,0.4,0.3,0.9,0.3l0.4-0.5
				l-0.5-0.4l0.1-0.1l0-0.1L29.9,27l-0.7,0.1L28,27.2l-0.3,0.2l-0.1-0.1l-0.1,0l0.1-0.1l0-0.2l-0.8-0.1l-0.3,0L26.2,27.2z
				 M25.8,31.1c0,0.1-0.2,0.2-0.6,0.2l0,0.1l0.2,0l0,0.2l-0.1,0.1l0,0.1l0.5,0l0.4-0.3l0.9,0.1l0.1-0.1l0-0.2L26.8,31l-0.2,0.2
				l-0.4,0L25.8,31.1z M25.7,34.6l0,0.5l0.3,0l0-0.2L25.7,34.6z M26.8,28.6c0,0.2-0.2,0.4-0.5,0.6l0,0.3l1-0.1l0.3-0.3
				c-0.1,0-0.2-0.1-0.3-0.4l-0.1-0.1L26.8,28.6z M27.3,47.1l0.2,0l0,0.2l-0.2,0L27.3,47.1z M29,45.5l0.6,0l0.3,0.2l0.1,0l0.3-0.2
				l0.5,0l0.3,0.2l1-0.1c0.3,0.2,0.6,0.3,0.9,0.3l0.7-0.4l1.5-0.1l0.2,0.2l0,0.1l-0.2,0.2L34.2,46l-0.3,0.3l0,0.1l0.3,0.3l0.3-0.2
				l0.1,0l0.6,0.5c0,0.1-0.3,0.3-1,0.4c0,0.1-0.1,0.2-0.4,0.2l-0.1,0.5l-0.5-0.1l-0.1,0c0,0.2-0.2,0.3-0.5,0.4l-0.2,0.4l0,0.1
				c0.4,0,0.5,0.1,0.6,0.3l0,0.2c0,0.1-0.1,0.2-0.3,0.2l0,0.4c1-0.1,1.5-0.3,1.5-0.8l0.1-0.1l1.3-0.1c0.1,0.1,0.5,0.2,1.1,0.2
				l0.1,0.1l0,0.1l-0.1,0.1l-0.1,0l-1.1-0.1l0,0.1c0,0.1,0.3,0.2,0.8,0.3c0.6,0,1-0.3,1.3-0.8l0-0.2c-0.6,0-1-0.2-1.3-0.8l0-0.3
				l0.2-0.3l0-0.1l-0.1,0l-0.5,0.1l-0.1-0.1l0-0.6l0.3-0.6l0.5,0l0-0.1l-0.5,0l0-0.2l0.8,0l0.3-0.2l0.3,0.2l1.4-0.1l0.3-0.2l0.1,0
				l0.5,0.4l0,0.3l-0.2,0.3l0.1,1.1L39.1,48l0.1,1.1c0,0.3-0.3,0.4-0.9,0.5l-0.1,0.1l0,0.2c0.5,0,0.8,0.1,0.8,0.3l0.1,1.6l-0.2,0.3
				l0,2.8l-0.5,0.5l-2.6,0.1l-0.3-0.2l-0.2,0l-0.3,0.2l-2.2,0.1l-0.2-0.2l0.2-0.3l0-0.1l-0.3-0.3l-0.2,0L31.6,55l0,0.5l-0.2,0.2
				L29,55.9l-0.5-0.4L28.3,53L28,52.8L28,51.2l-0.2-0.3l0-0.3l0.7-0.8c-0.1,0-0.2-0.2-0.2-0.5c-0.3,0-0.6-0.3-0.7-0.8l0-0.1l0.3-0.3
				l0.8,0l0-0.3L28,47.1l0-0.1c0.1-0.3,0.3-0.4,0.5-0.5l0-0.2c-0.2,0-0.3-0.1-0.3-0.2C28.1,46,28.4,45.8,29,45.5z M27.7,42.3l0,0.2
				l0.1,0l0-0.2L27.7,42.3z M28,38.2l0,0.2l0.5,0.1l0.3,0l-0.3-0.3L28,38.2z M28.2,35.5l0.2,0.2l0.1,0l0-0.2L28.2,35.5z M28.6,42.2
				l0,0.1l1.3-0.1l0.2-0.2L30,41.9l-1.2,0.1L28.6,42.2z M28.8,48.7l0.2,0.2l0.4,0l0-0.5l-0.3,0L28.8,48.7z M28.9,49.9l0,0.3l0.6,0
				l0-0.3L28.9,49.9z M29.1,47.2l0,0.2l0.2,0.2l0.1,0l0-0.4L29.1,47.2z M29.2,26l0,0.3l0.6,0l0-0.3L29.2,26z M29.8,31.4l0,0.2l0.5,0
				l0-0.2L29.8,31.4z M29.9,36l0,0.2l0.2,0.4l0.5,0c0-0.2,0.1-0.4,0.3-0.7l0-0.2l-0.5,0L29.9,36z M30,34.9c0.4,0.2,0.6,0.4,0.6,0.6
				l0.2,0l0.1-0.8l0-0.2l-0.2,0C30.4,34.7,30.2,34.9,30,34.9z M30.5,37.8l0,0.9l0.2,0.2l0.1,0l0.2-0.5l0-0.8L30.5,37.8z M30.5,48.2
				l0,0.1l0.2,0.2l0.3-0.3L30.5,48.2z M30.8,49.1l-0.2,0.5l0,0.3l0.6,0.5l0.6,0l0.4-0.5c0-0.4-0.4-0.8-1-0.9L30.8,49.1z M30.8,43.7
				l0,0.1l0.5-0.1l0-0.2l-0.3,0L30.8,43.7z M30.8,54.4l0,0.2l0.2,0l0-0.2L30.8,54.4z M31.1,46.7l0,0.2l0.2,0l0-0.2L31.1,46.7z
				 M31.8,47.9l0,0.3l0.4,0l0.4-0.2l0-0.3l-0.2,0L31.8,47.9z M32.4,54.1l0,0.1l0.2,0l0.3-0.3l0-0.2L32.4,54.1z M33,43.9l0.2,0.2
				l-0.1,0.1l-0.3,0l0-0.1L33,43.9z M35.6,23.4l1.9-0.1l0.2,0.2l0,0.8l0.1,0c0.1,0,0.2-0.1,0.2-0.3l0.2,0l0.1,0.6l0.1,0l0.3-0.3
				l0-0.2l-0.1-0.5l0.4-0.2l4.3-0.2c0.4,0.1,0.6,0.5,0.6,1.4l0,0.9l-0.2,0.2l0.7,1.4l0.2,2.6l0.2,0.2l0,0.5c0,0.3-0.3,0.4-0.9,0.5
				L44,30.7l0,0.1l0.3,0.4l0.1,1.5l0.4,1.3l0.1,0.1l0.3,3l0.2,0.2l0.1,1.1l0.2,0.3l0,0.5l-0.2,0.3l0,0.1c0,0.2,0.5,0.5,1.3,0.9
				l0.1,0.6L47,41.3l-0.5-0.1L44,41.4l-0.2,0.2l0,0.1c0.2,0,0.3,0.1,0.3,0.2l0.1-0.1l0.1,0l0.5,0.1l0.2-0.2l0.6,0l0.9,0.5l0,0.1
				c0,0.2-0.3,0.3-0.8,0.5c-0.2,0.6-0.3,1-0.5,1.1l-0.4,0l-1-0.1l-0.3,0.1l-0.7-0.1l-0.7,0.1c-0.4-0.1-0.5-0.2-0.6-0.3l0-0.1
				c-0.1-1.2-0.3-1.8-0.6-1.8c-0.4,0-0.6,0-0.7-0.2l-0.1-1L40.1,40l0.1-0.5c-0.1,0-0.2-0.2-0.3-0.7l-0.2-0.2l0-0.6l-0.2-1.2L40,36
				l-0.8,0c-0.1,0-0.2,0.1-0.2,0.3l0,2.5L38.9,39l0.1,1.7l-0.2,0.3l0,0.1l0.1,0.5L38.7,42l0,0.1l0.2,0.2l0.4-0.1l0.2,0.3l0,0.4
				l-0.2,0.3l0,0.1l0.1,0.5l-1.3,0.7c-0.6-0.3-1.1-0.5-1.3-0.5l-0.3,0.3l-1.6,0.1l-0.7-0.3l-0.3,0.1l-0.2-0.3l0.1-0.3
				c-0.1,0-0.3-0.2-0.5-0.7l-0.1,0.1l-0.1,0l-0.3-0.3l0-0.2l0.3-0.3l0.2,0.2l0.4,0l0.3-0.2l0.2,0l0.3,0.2l0.1,0l-0.1-0.5l0-0.8
				c-0.5-0.2-0.9-0.3-1.4-0.2l-0.1-0.1l-0.1-1l0.2-0.3l-0.1-1l0.2-0.3L33.4,37l0.2-0.2l-0.1-0.1l-0.1-1.2l0.4-0.6l0-0.1l-0.2-0.3
				l0-0.6l0.4-2.5c0.6-0.1,1-0.2,1-0.4l-0.1-1.8l0.3-0.4l0-0.1l-0.2-0.3l0-0.1c0-0.2,0.3-0.4,1-0.6l0.2-0.3L35.8,27l-0.2,0l-0.3,0.2
				L35,27.1l0-0.8c0.2-0.3,0.3-0.6,0.3-0.9l-0.1-0.5l0.3-0.3l0-0.1l-0.2-0.3l0-0.3L35.6,23.4z M33,46.6l0,0.2l0.1,0l0-0.2L33,46.6z
				 M33,47l0,0.4l0.1,0l0-0.4L33,47z M33.4,41.6l0,0.1l-0.2,0.2l-0.1-0.1l0-0.1l0.1-0.1L33.4,41.6z M33.3,52.5l-0.2,0.5l0,0.2
				l0.5-0.6l-0.2-0.2L33.3,52.5z M33.4,47.1l0,0.2l0.1,0l0-0.2L33.4,47.1z M34.1,48.6l0.1,0l0,0.3L34,49.1l-0.2-0.2L34.1,48.6z
				 M34.3,51c0,0.3-0.1,0.6-0.5,1l0,0.2c0.6,0,1.3-0.4,1.9-1.1l-0.1,0l-1.1,0.2L34.4,51L34.3,51z M34,54.3l0,0.2l0.1,0l0-0.2
				L34,54.3z M34.8,43.8l0,0.3l0.5,0l0-0.3L34.8,43.8z M34.8,39.7l0.4,0.8l0.3,0L35.4,40l0-0.2c0-0.4,0.2-0.5,0.5-0.6l0-0.3
				l-0.2-0.2L34.8,39.7z M35,32.2l0,0.2l0.3,0l0-0.2L35,32.2z M35.1,34.6l0,0.2l0.1,0l0-0.2L35.1,34.6z M35.1,42.9l0,0.3l0.2,0.2
				l0.1-0.4l-0.1-0.1L35.1,42.9z M35.2,30.8l0,0.5l0.5,0l0-0.2l-0.3-0.3L35.2,30.8z M35.2,41.3l0,0.1l0.2,0l0-0.1L35.2,41.3z
				 M35.2,41.6l0,0.2l0.5,0l0-0.2L35.2,41.6z M35.4,50.5l0,0.2l0.1,0l0-0.2L35.4,50.5z M36.7,24.3l0,0.5c0,0.2-0.3,0.3-1.1,0.4
				l-0.2,0.3l1.6-0.1c0.1,0,0.2,0.2,0.2,0.5l0.2,0l0.9-0.8l0-0.4l-0.2,0l-0.4,0.3l-0.1,0l-0.8-0.5l0-0.1l0.1-0.1l0-0.1L36.7,24.3z
				 M35.6,24.5l0.3,0.3l0.3-0.3l-0.2-0.2l-0.2,0L35.6,24.5z M35.9,29.2l0,0.5l0.1,0l0.2-0.2L35.9,29.2z M35.9,51l0,0.3l0.1,0l0-0.3
				L35.9,51z M35.9,34.6l0,0.2l0.2-0.2L35.9,34.6z M36.2,29.9l0.1,0.1l-0.3,0.9l0.5,0.2l1-0.1l0.3-0.2l-0.1-0.1l0.1-0.5l0-0.1
				l-0.6-0.6C37.1,29.7,36.7,29.9,36.2,29.9z M36.1,43.6l0.3,0.3l0-0.5l-0.1,0L36.1,43.6z M36.1,48.7l0.2,0l0,0.2l-0.2,0L36.1,48.7z
				 M36.3,52.1l0.6,0.2c0-0.1,0.2-0.2,0.5-0.2l0.1-0.1l0-0.2l-0.3-0.1C36.6,51.8,36.3,51.9,36.3,52.1z M36.4,32.1l0,0.4l0.1,0
				l0.2-0.2L36.5,32L36.4,32.1z M36.5,38.5l0,1.3l0,0.2l0.3,0.4l0,0.2l-0.3,0.4l0,0.3c0,0.3,0.2,0.6,0.6,0.9l-0.2,0.3l0,0.2l0.2,0
				l0.3-0.3l-0.1-1.3L37.1,41l0-0.5c0-0.2,0.2-0.3,0.7-0.4l0-0.1L36.9,39l0-0.5L36.5,38.5z M36.6,36.7l-0.1,0.5l0.3,0.2l0.1,0
				l-0.1-0.7L36.6,36.7z M36.6,32.8l0,0.1l0.3,0l0-0.3l-0.1,0L36.6,32.8z M36.6,47.9l0,0.1l0.2,0l0-0.1L36.6,47.9z M36.7,43.6l0,0.1
				l0.2,0.2l0.3,0l0-0.3L36.7,43.6z M36.8,33.7c0.1,0,0.2,0.1,0.2,0.3l0.1-0.1l0.2,0c0.4,0.2,0.6,0.5,0.6,0.8l0.1,0.1l0.3,0
				c0-0.2,0.1-0.3,0.3-0.3l0-0.2c-0.3,0-0.5-0.3-0.8-0.8l-0.9,0L36.8,33.7z M38,27.2L37,27.2l0,0.1l0.3,0.3l1.2-0.1l0.5-0.1l0.3,0.3
				l0.3-0.3L39,26.8l-0.4,0L38,27.2z M37.6,31.6l0,0.3l0.3,0L37.6,31.6z M37.9,50.6l0,0.2l0.3,0l0-0.2L37.9,50.6z M37.9,48.1
				c0,0.1,0.1,0.2,0.3,0.2c0.3,0,0.6-0.2,0.7-0.6l0-0.6l-0.4,0L37.9,48.1z M38.4,36.3l0,0.1l0.3,0l0-0.1L38.4,36.3z M38.5,35.2
				l0,0.1l0.2,0.2l0.5,0l0.2-0.2l0-0.1L38.5,35.2z M38.9,28.5l0,0.5l0.3-0.3L39,28.5L38.9,28.5z M39.1,33.3l0.4,0.6l-0.1,0.4l0,0.1
				l0.4,0.1l0.1-0.1l0-0.1l-0.2-0.2c0-0.1,0.2-0.2,0.5-0.2l0-0.3c-0.4,0-0.5-0.2-0.6-0.5l-0.3,0L39.1,33.3z M39.2,30.6l0,0.3
				l0.4,0.2l0.2-0.3l0-0.2L39.2,30.6z M40.1,27.3l0,0.3l0.2-0.2l-0.1-0.1L40.1,27.3z M40.3,31.6l0.1,0.5l-0.3,0.3l0,0.3l0.8-0.4
				l0-0.5l-0.3-0.3L40.3,31.6z M40.7,37.2l0.1,0.1l0.3,0l0-0.1L40.9,37L40.7,37.2z M40.8,39.6l0,0.1l0.2,0.2l0.3,0l0.2-0.2l0-0.3
				l-0.5,0L40.8,39.6z M42,38.6l-1,0.1l-0.1,0.5l0.9,0l0.2,0.2l0,0.2l-0.1,0.1l0,0.1l0.1,0.1l0.3,0l0.3-0.2l0.3,0.3l1.3-0.1l0-0.3
				L43,39.6l-0.2-0.2l0-0.1c0.3,0,0.4-0.1,0.4-0.2l0-0.2l-0.5-0.6L42,38.6z M41.4,35.1l0,0.2l0.3,0l0-0.2L41.4,35.1z M41.5,23.8
				l0,0.3l0.4,0.2l0.4,0l0.2-0.2l0-0.1c-0.3,0-0.6,0-0.8-0.2L41.5,23.8z M41.9,41.6l0,0.2l0.1,0l0-0.2L41.9,41.6z M42,32.9l0,0.2
				l0.5,0l-0.2-0.2L42,32.9z M47.6,44.7l1.2-0.1l0.3,0.2l0.3-0.2l0.3,0.2l0.4,0l0.3-0.2c0.3,0.2,0.5,0.3,0.8,0.3l0.6-0.4l0.4,0
				c0.3,0.2,0.6,0.3,1,0.3l0.6,0l0.3,0.2l0,1.3l0,0.8L54,47.3c0-0.2-0.3-0.3-0.9-0.4l0-0.1l0.1-0.3l-0.3-0.2l-0.3,0.2l-0.2,0l0-0.2
				l0.1-0.1l0-0.1c-0.1,0-0.2-0.2-0.2-0.5l-0.1,0c0,0.2-0.1,0.5-0.4,0.9l0.2,0.2L51.7,47l0,0.2c0,0.1,0.4,0.3,1.1,0.4l0.3,0.3l0.2,0
				l0.5-0.5l0.2,0.2l0,0.4c0,0.1-0.3,0.3-0.8,0.6l0,0.2c0,0.1,0.2,0.2,0.4,0.2l0.2,0.4c0.1,1.2,0,1.9-0.2,2.2l0.1,2
				c-0.2,0.6-0.4,0.9-0.5,0.9l-3.2,0.2l-0.2-0.2l0-0.3l0.3-0.7l-0.1-0.4l-0.2,0c0,0.2-0.2,0.4-0.6,0.6l0.1,0.1l0,0.6l-0.3,0.3
				l-2.7,0.1l-0.3-0.2l-0.1,0L45.6,55L44,55.1l-0.3-0.3l0-0.1l0.3-0.3l0.2,0.2c0.5-0.2,0.9-0.6,1.1-1.1L45,53.1l0-0.6l-0.3,0
				c-0.2,0-0.5,0.5-0.8,1.6l-0.1,0l-0.3-0.3l-0.1-1l-0.2-0.3l-0.1-1c0-0.1,0.4-0.5,1-0.9l0-0.2l-0.3,0l-0.4,0.3l-0.1,0l0-0.5
				l-0.3-0.4l0-0.2l0.5-0.5l1.1-0.1l0.7,0.4c0-0.2,0.3-0.3,0.9-0.5l0-0.1l-0.2-0.3l0-0.2c0.1-0.4,0.3-0.6,0.5-0.6l0-0.1l-0.1-0.7
				c-0.7,0-1.3,0.4-1.8,1l-1.1,0.9c-0.1,0-0.2,0.1-0.2,0.3l-0.2,0l-0.5-0.8l0.2-0.3l0.5,0.1l0.1,0l0.2-0.2c-0.2-0.4-0.3-0.6-0.5-0.6
				l-0.1,0l-0.3,0.2l-0.3-0.3l-0.1-1.3l0.2-0.2l1.8,0.7l0.2-0.2l0.5,0l0.1-0.3l0.5,0.1l0.1,0c0.6-0.5,1.3-0.8,1.9-0.9L47.6,44.7z
				 M42.4,30.7l0,0.2l0.2,0.2l0.7-0.1l0-0.1l-0.2-0.2L42.4,30.7z M42.6,42.2l0.2,0.6l0.3,0l0-0.4l-0.2-0.2L42.6,42.2z M43.4,28.8
				l0,0.2l0.3,0.3L44,29l-0.3-0.2L43.4,28.8z M44,38.9l0.1,0.1l0.1,0l0.2-0.2l0-0.1l-0.2,0L44,38.9z M44.9,47.8l0.2,0.2l0,0.1
				l-0.2,0l-0.2-0.2l0.1-0.1L44.9,47.8z M44.9,51l0,0.1l0.2,0l0-0.1L44.9,51z M45.6,50.8l0,0.2l0.2,0.2l0.1-0.1l0-0.1L45.6,50.8z
				 M45.7,52.1l0,0.3l0.3,0l0-0.3L45.7,52.1z M45.9,54.4l0.1,0.1l0.8,0c0.1,0,0.3-0.3,0.6-0.9l-0.2-0.2l-0.5,0L45.9,54.4z
				 M46.4,49.7l0,0.5l0.1,0l0.2-0.2L46.4,49.7z M46.8,45.5l0,0.5l0.4,1.2l0.1,0.1l0,0.3c0,0.2-0.1,0.3-0.4,0.3l0,0.1l0.2,0.3
				l-0.3,0.1l0,0.1c0,0.8,0.5,1.5,1.5,2l0.1,0.4l-0.9,0l-0.2,0.2l0.3,0.2l0.3-0.1c0.3,0.4,0.5,0.7,0.5,0.9L48,52.7l-0.1,0l-0.3-0.2
				l-0.2,0l0,0.4l0.2,0.2l0.6,0l0.6-0.1l0.5,0.1l0.1,0l0-0.1l-0.1-0.5l0.3,0l0,0.3l0.1,0l0-0.3l-0.9-0.7l0.3-0.2l0.2,0l0.3,0.3
				l-0.1,0.3l0.1,0.1l0.1,0c0.6-0.4,0.9-0.6,0.9-0.7l-0.2-0.2l0-0.2c0.1-0.4,0.5-0.8,1.1-1.1l-0.1-0.1l-0.2,0c-0.4,0-0.7,0.1-1,0.4
				l-0.2,0l-0.3-0.3l0-0.8l0.2-0.2l0.3,0.2l0.2,0l0.6-0.5l0.9,0.4l0.2,0l0-0.8L52,48l-0.1,0l-0.5,0.4l-0.1-0.1l-0.1,0
				c-0.4,0.1-0.6,0.2-0.6,0.4l-0.1-0.1l-0.1,0l-0.4,0.1c0-0.1-0.1-0.2-0.3-0.2l-0.1-0.1l0-0.2l1.4-1.9l0-0.2l-0.3-0.3l-1,0.8l-0.9,0
				l-0.1-0.1l-0.1,0c0.2-0.7,0.5-1,1-1l0-0.1l-0.1-0.1l-0.3,0l-0.3,0.2l-1.1,0.1c-0.1,0-0.2-0.1-0.2-0.3l-0.2,0L46.8,45.5z
				 M48.4,25.6l0.4,0l0.3,0.3l0.7-0.1l0.4,0l0.8,0.5l0.6-0.6l3.2-0.1l0.3,0.4l0,0.6L55.2,27l0.1,1.1c-0.2,0.7-0.6,1.1-1.1,1.1
				l-1.7,0.7l0.6,0.5l0.3-0.2l0.4,0c0.2,0,0.3,0.1,0.3,0.4l0,2.9l-0.4,0.7l0,0.2l0.2,0.3l0,0.8l-0.2,0.4l0,2.3l0.1,0.3l0.1,0
				l0.3-0.2l0.3,0.3l0,0.1l-0.2,0.4l0,2.5l-0.2,0.2l0.1,1.2l-0.5,0.6l-0.5,0c-0.2-0.2-0.5-0.3-1-0.3l-0.1-0.1l0-0.1
				c0-0.1,0.1-0.2,0.3-0.2l0-0.5l0.2-0.3l-0.5-0.4l0.2-0.2l0-0.6l-0.2-0.3l0-0.1l0.1-0.1l0-0.1l-0.8-0.6l0.2-0.2l0-0.2l-0.2,0
				c0,0.2-0.3,0.3-1.1,0.4l0,0.1c0.7,0,1.1,0.1,1.1,0.5l0,0.2l-1,1.1l-1,0.1l-0.3,0.3c0.6,0,1,0,1.1,0.2l0.8,0l0.3-0.2l0.5,0.4
				l-0.2,0.3l0,0.4l0.3,0.4l-0.6,0.5l-1.3,0.1l-0.9-0.3c-0.4,0.1-0.7,0.2-1,0.4l-0.2,0l-0.3-0.3l-0.1-1.2l0.4-0.8l-0.2-0.2l0.1-0.4
				l-0.1-0.7c0.4-0.1,0.5-0.2,0.5-0.4l-0.2-0.2l-0.1,0l-0.5,0.5l-0.2,0l-0.5-0.4l0-0.1c0.2-0.6,0.5-0.9,0.8-0.9l0.1-0.1l0-0.1
				c-0.5-0.2-0.8-0.4-0.8-0.5l0-0.5l0.2-0.3L47,35.5c-0.1-1,0.2-1.5,0.9-1.6c0-0.2,0.5-0.4,1.3-0.6l0.4-0.6c-0.6,0-0.9,0-0.9-0.2
				l0.5-0.5L49.1,32L49,32l-0.3,0.2l-0.5,0c0,0.4-0.1,0.7-0.5,0.9l-0.3,0L47,32.9l0.2-0.3l-0.1-1.7l0.3-0.3l1.3-0.1l0.2,0.2
				c0,0.1-0.2,0.2-0.5,0.2l0,0.3l0.8,0.1l0.2,0l0.3-0.3l-0.2-0.2l0.1-0.3l-0.1,0c-0.8-0.3-1.2-0.6-1.2-0.8l0.1-0.3l-0.2-0.2l0-0.8
				l0.2-0.3L48,27.7l0-0.2l0.2-0.3l-0.1-1.2L48.4,25.6z M47.2,42.6l0.2,0.3l0,0.2l-0.2,0.2L47,43.2l0-0.3L47.2,42.6z M47.6,53.9
				l0.3,0.2l0.3-0.3l-0.3-0.2L47.6,53.9z M47.9,35.6l0.2,0.2l-0.2,0.3l0,0.1l0.8,0l0-0.1l-0.5-0.8L47.9,35.6z M55.4,22.4l0.1,0.1
				l0,0.8l-0.2,0.3l0.1,1l-0.5,0.6l-0.3,0l-0.5-0.4l0.4-0.6l0-0.2c0-0.2-0.3-0.3-0.8-0.4l-0.3,0.1l0,0.8L53,24.7l-0.4,0l-0.3-0.2
				l-1.6,0.1c-0.3,0.2-0.5,0.4-0.7,0.4l-0.8-0.1l-0.7,0.1l-0.2-0.3l-0.1-1.3c0-0.2,0.1-0.3,0.4-0.3c1-0.1,1.8,0.2,2.2,0.7l0.2,0
				c0.1,0,0.4-0.4,0.8-1.1l0.2,0c0.4,0.2,0.6,0.4,0.6,0.7l0.3,0l0.5-0.2c0-0.1-0.2-0.2-0.4-0.2l0-0.2l0.3,0l0.1,0.1l0.1,0l0.2-0.2
				l1-0.1L55.4,22.4z M48.8,39.7l-0.1,0l-0.1-0.1l-0.1,0l0,0.4l1-0.1c0-0.3,0.2-0.4,0.5-0.5l0-0.1l-0.7-0.2
				C49,39.4,48.8,39.6,48.8,39.7z M48.7,41.4l0.5,0l0-0.2l-0.3,0L48.7,41.4z M49.3,37.6c-0.1,0.4-0.3,0.6-0.5,0.6l0,0.2l0.6,0
				l0.2-0.5L49.3,37.6z M49.3,33.9l0,0.3l-0.5-0.1l0,0.4l0.2,0.2l0.2,0l0.7-0.1l0.6,0.5l-0.1,0.3l0.1,0l0.8,0.5
				c0.4,0,0.7,0.1,0.9,0.3l0.2,0l0-0.3c0-0.2-0.3-0.3-0.9-0.3l-0.2-0.3l0.2-0.3l0-0.1L50.9,34l-0.8,0.4l-0.2,0
				c-0.1,0-0.2-0.2-0.2-0.5L49.3,33.9z M49.9,33.3l0,0.3l1-0.1l0.3-0.2l0.8,0l0-0.1c0-0.2-0.3-0.3-0.9-0.3L49.9,33.3z M50.8,52.1
				c0,0.1-0.2,0.2-0.7,0.3l0.1,0.1l0,0.1l-0.1,0.3l0.7,0.6l-0.1,0.1l0,0.1L51,54l0.5,0l-0.1-0.4c0-0.4,0.2-0.6,0.5-0.6
				c0-0.2-0.3-0.5-1-0.7L50.8,52.1z M50.2,28.4l0,0.2l0.2,0.3l0,0.9l-0.2,0.3l0.3,0.2l0.1,0L51,30l-0.2-0.2c0-0.2,0.1-0.3,0.4-0.3
				l0.3,0.1l0.3-0.7c-0.2-0.1-0.4-0.2-0.8-0.2l-0.1-0.3L50.2,28.4z M50.4,39l0,0.2l0.9,0l0-0.2L50.4,39z M51.6,31.4l-0.2,0.2l-0.6,0
				l0,0.5l1.1,0.1l0.1-0.1l0-0.4L51.6,31.4z M51,36.3c0.1,0.5,0.2,0.7,0.4,0.7l0.1-0.1l0.1,0l-0.1-0.1l0-0.2l0.1-0.1l0-0.1l-0.3-0.2
				l-0.1,0.1L51,36.3z M51.3,41l0.2,0l0,0.2l-0.2,0L51.3,41z M51.8,50.7l0,0.3l0.3,0l0.2-0.2l-0.1-0.1L51.8,50.7z M51.8,34.5l0,0.1
				l0.3,0l0.2-0.3l0-0.2c-0.1,0-0.2,0.2-0.2,0.4L51.8,34.5z M51.9,38.9l0,0.2l0.4,0.2l0.2,0l0.3-0.2l0.2,0l0.3,0.2l0.4-0.5
				c-0.1,0-0.2-0.1-0.2-0.3l-0.5,0C52.9,38.7,52.6,38.8,51.9,38.9z M52.1,29.5l0.3,0l0-0.3L52.1,29.5z M52.7,51.4l-0.2,0.3
				c0.3,0.4,0.5,0.7,0.5,1.1l0.3,0l0-0.8l0.2-0.3C53.5,51.5,53.2,51.4,52.7,51.4z M52.6,50.2l0,0.4l0.3,0c0.5-0.3,0.7-0.5,0.7-0.7
				l0-0.1l-0.5-0.1l-0.1,0L52.6,50.2z M52.9,34.2l0,0.1l0.5,0l0-0.1L53.2,34l-0.1,0L52.9,34.2z M53,53.3l0,0.2l0.1,0l0.2-0.2
				L53,53.3z M53.4,24.5l0.2,0.2l-0.2,0L53.4,24.5z"/>
			<path class="st0" d="M59.2,26.1c0.4,0.2,0.9,0.4,1.4,0.5c0.3,0.7,0.5,1.1,0.8,1c0.3,0.3,0.7,0.5,1.2,0.7l0.1,0.1l0,0.6
				c0,0.2-0.6,0.5-1.6,0.9l0,0.1c0.2,0.2,0.5,0.8,0.7,1.8c0.5,0.1,0.8,0.4,1,0.9l0,0.3l-0.2,0.3l0,0.6l0.3,0.3l0.5-0.5
				c0.4,0.2,0.6,0.5,0.6,1c-0.2,0-0.6,0.4-1,1.1l0,0.2c0,0.2,0.4,0.3,1.2,0.3l0.1,0.1l0,0.9l-0.6,0.6l-0.4,0l-1.1-0.7
				c-0.1,0.7-0.3,1.1-0.4,1.1c-0.2,0-0.4-0.3-0.6-0.8L60.7,37l-0.5,0.6c0,0.2,0.2,0.3,0.7,0.3l0.3,0.4l0,0.3l-0.7,0.5l-0.8,0
				l-0.6-0.5l0-0.2l0.4-0.8l-0.3-0.3l-0.6,0c0,0.2-0.1,0.3-0.2,0.3l-0.2,0l-0.3-0.3l-0.1-1.8l0.4-0.6l-0.2-0.3l-0.1-1.3l0.2-0.3
				l0-0.1l-0.2-0.3l0-0.5l0.3-0.3l0.1,0l1.1,1c-0.2,0.4-0.5,0.6-0.8,0.6l-0.2,1.1l0.6,0l0.8,0.3c0-0.3,0.4-0.5,1.3-0.8
				c0-0.3,0.2-0.7,0.8-1.2l0-0.5l-0.8-0.8l-0.1-1.2l-0.5-0.4c-0.1,0-0.2,0.4-0.3,1.3L60,31.1l0,0.2c0.6,0.5,0.9,1,0.9,1.4l-0.3,0.2
				l-0.2,0l-1.3-1.2c-0.4,0-0.9-0.4-1.3-1.2l0-0.4l0.4-2l0.1,0L58.4,28l0-0.2C58.7,26.8,59,26.2,59.2,26.1z M58.1,39.1l0.3,0.3
				l-0.2,0.2l-0.3-0.3L58.1,39.1z M58.4,35.9l0,0.2l0.1,0.5l0.2,0l0.5-0.6l-0.6-0.5L58.4,35.9z M59.2,39.6c0.3,0,0.5,0.4,0.5,1.3
				c0.1,0,0.3,0.2,0.5,0.6l0.3,0.2l0.2,0l1.3-0.2l0.2,0.3l0,0.4l-0.3,0.3l-0.4,0l-0.3-0.2l-0.8,0l-0.6,0.2l0,0.4l0.2,0.2l1.8-0.2
				c0.3,0.1,0.5,0.2,0.7,0.5l0.1,1.2l-1.4-0.4c-0.6,0-1,0.2-1.3,0.4l-0.1,0c-0.1,0-0.3-0.4-0.6-1l0-0.5l0.2-0.3l0-0.4l-0.2-0.3
				l0-0.2l0.1-0.1l0-0.1L59,41.6l-0.1-1.6L59.2,39.6z M61.6,23.3l0.5,0.4l0,0.1c-0.3,0.4-0.5,0.9-0.5,1.4L60.7,26
				c-1,0-1.5-0.1-1.5-0.4l0-0.1c0.2-0.6,0.5-0.9,1-0.9c0-0.3,0.3-0.5,0.9-0.7C61.3,23.5,61.4,23.3,61.6,23.3z M59.3,27.2l0,0.1
				c0.1,0.2,0.6,0.7,1.6,1.4l0.2,0l0.2-0.2l0-0.3L60,26.8l-0.4,0L59.3,27.2z M77.4,34.9l0.3,0l0.3,0.3l0.2,3l-0.5,0.7l0.6,0.3l0,2.9
				l0,0.8c-0.1,0.2-0.3,1.4-0.6,3.8c-0.2,0.7-0.5,1.3-1,1.8c0,0.9-0.2,1.7-0.8,2.4c-1.4,1.7-3,2.5-4.9,2.6l-0.1,0l-0.3,0.2l-2.7,0.1
				c-0.1-0.2-0.8-0.2-2-0.2c-0.1-0.2-0.6-0.3-1.4-0.5c-1-0.5-2-1.3-2.8-2.4l0-0.3c0-0.1,0.4-0.4,1.1-0.7l0.1-0.1l0-0.2
				c-0.7,0-1.1-0.1-1.1-0.3l0-0.2c0.6-0.7,1-1.4,1-2l-0.3-0.2c-0.4,0.2-0.9,0.6-1.7,1.4l-0.9-1.4l0-0.8c0-0.1,0.3-0.3,0.9-0.6l1-0.1
				c1.1,0.9,2.3,1.3,3.6,1.2l0.1-0.1l0-0.3l-0.6-0.6l0-0.1l1.1-1.1l0.1,0l0.2,0.2l0,0.4l-0.2,0.3l0,0.3c0.5,0.5,0.9,1.1,1.2,1.7
				l0.9,0.5l1.5-0.1c0.5-0.3,1-1,1.5-2l0-2.3l0.2-0.2l-0.1-1.9l0.2-0.3l-0.1-1.2l0.1-0.9l-0.2-0.9l-0.1-1.1c0-0.2,1.2-0.6,3.5-1.2
				C76,35.4,76.9,35.1,77.4,34.9z M63,38.8l0.2,0l0.2,0.2l0,0.5c-0.6,0.9-1,1.5-1.2,1.6c-0.1,0-0.4-0.2-0.7-0.7l0.3-0.7l-0.1-0.1
				l-0.3,0c-0.1,0-0.2,0.3-0.2,1L61,40.8l-0.1,0l-0.3-0.3l0-0.4c0-0.6,0.3-0.9,1.1-1l0.1-0.1c0.2,0,0.3,0.1,0.3,0.4l0.3,0L63,38.8z
				 M61.3,49.3l0.1,0l0.3,0.3l-0.3,0.3L61,49.5L61.3,49.3z M61.3,34.8l0,0.3l0.3,0l0-0.3L61.3,34.8z M62.6,22.2l0.2,0.2l-0.2,0.2
				l-0.2-0.2L62.6,22.2z M63.2,23.5l0.8,0l0.5,0.4c0,0.2-0.3,0.3-1.1,0.4l-0.2,0.3l0,0.1c0,0.1,0.3,0.3,0.9,0.6l0,0.2l-0.2,0.2
				l-0.1,0c-0.7-0.2-1.1-0.3-1.1-0.5l-0.1-1.1L63.2,23.5z M65.5,38.1l0.2,0.2l-0.1,0.5l0.1,2l0.2,0.3l0.1,2c0,0.1-0.3,0.2-0.8,0.3
				L65,44.7L64,45.4l-0.3,0l-0.2-0.2l0-0.4l1.2-1.5l0-0.3l-0.6-0.5l-0.2,0c-0.1,0-0.3,0.3-0.5,0.9l-0.4,0l-0.3-0.3l0-0.2
				c0.4-1,0.9-1.6,1.5-1.9l0.4,0l0.3,0.2l0.2,0l0.3-0.3l0-0.2c-0.2-0.4-0.5-0.6-0.9-0.6l-0.2-0.3l0-0.5c0.1-0.2,0.2-0.4,0.2-0.8
				L65.5,38.1z M63.3,30.1l0.3,0c0.2,0,0.3,0.2,0.4,0.6l0.7,0.2L64.6,32l0,0.8l-0.3,0.3l-0.1,0c-0.4-0.2-0.7-0.6-0.9-1.1l0-0.1
				l0.7-0.9l0-0.1l-0.5,0L63,30.4L63.3,30.1z M64.9,21.3l3.4-0.2l2.4,0.5l0.5,0.2l0.1,0.1l0,0.1l-0.1,0.1l0,0.1l-1.1-0.1
				c-0.7,0.2-1,0.6-1,1.1l0.4,0.3l0.4,0l0.3-0.2l0.5,0l0.9,0.5l0.1,0c0.3-0.2,0.5-0.5,0.5-0.9l0.1-0.1l0.1,0l1.2,1.1
				c0,0.2-0.2,0.3-0.5,0.4l0,0.5c-0.3,0.6-0.6,0.9-1,0.9l0-0.1c-0.2-0.6-0.6-0.8-1.1-0.8c-0.3-0.2-1-0.4-2.1-0.5
				c0-0.1-0.2-0.3-0.7-0.4l0-0.2l0.1-1.1c-0.2-0.2-1-0.3-2.4-0.2l-0.2,0l-0.4,0.3l-0.2,0l-0.9-0.5l-1,0.1l-0.2-0.2l0-0.1
				c0-0.1,0.2-0.2,0.6-0.2c0-0.1,0.3-0.2,0.8-0.3L64.9,21.3z M63.6,28.8l0.3,0l0.3,0.3l-0.2,0.2l-0.4,0l-0.2-0.2l0-0.1L63.6,28.8z
				 M64.5,27.5l0.4,0l0.7,0.4l0,0.1l-0.5,0.5c-0.4-0.2-0.7-0.4-0.9-0.7L64.5,27.5z M65.2,24.4l0.3,0c0.1,0,0.3,0.3,0.6,0.8l0.9,0.7
				l0,0.3c-0.2,0.5-0.4,0.8-0.5,0.8l-0.1,0c-0.1-0.1-0.5-0.2-1.1-0.2L65,26.2l0-0.2l0.2-0.3l0-0.2l-0.2-0.3l0-0.4L65.2,24.4z
				 M67.1,24.3l0.5,0c1.5,0.3,2.3,0.7,2.3,1.3c0.5,0,0.8,0,0.8,0.2l0,0.8c-0.3,0.6-0.5,0.9-0.6,0.9l-0.3,0c-0.8-0.2-1.2-0.6-1.2-1.1
				l-0.9-0.9c-0.6,0-1-0.1-1-0.3l0-0.2L67.1,24.3z M69.1,28.2c0.6,0,1.3,0.3,2,1.1l0.9-0.2l4.2,0.6c0.4,0.2,0.6,1,0.7,2.3
				c-0.1,0.2-0.6,0.3-1.4,0.4L75,32.9l-0.8,0c-0.3,0-1,0.3-2.1,1l-0.1,0l0,0.3l0.2,0.2l0.9,0l1.8-0.8l1.9-0.4l0.2,0.3l0.1,1
				c0,0.3-0.9,0.6-2.7,0.8c-0.3,0.2-1,0.5-2.2,0.7l-1.4,0.5l-0.1,0l-0.2-0.2c0.1-0.2,0.2-0.5,0.2-1c0.3-0.2,0.5-0.3,0.5-0.5l0-0.5
				c0-0.8,0.2-1.7,0.7-2.7l0-0.4c0-0.4-0.5-0.5-1.4-0.5c-0.7-0.3-1.1-0.8-1.2-1.7c-0.1,0-0.3-0.2-0.4-0.6L69.1,28.2z M70,31.6l0.1,0
				l0.5,0.4l0.1,1.6l-0.2,0.2l-0.1,0l-0.2-0.2L70,31.6z M74.6,44.8l0.2,0.2l0,0.8l-0.4,0.5l-0.5,0c-0.4-0.5-0.9-0.9-1.6-1.2
				c-0.1,0.3-0.4,0.5-0.8,0.5l0,0.3c1,0.1,1.7,0.3,2,0.7c0.6,0,1.1,0.3,1.7,1l0.9,0.1c0.2-0.5,0.4-0.9,0.8-1.3l0.1-0.5
				c-0.3-0.5-0.8-0.9-1.6-1.3l-0.3,0L74.6,44.8z M71.7,37.5l0.2,0.2l0.5,0l0.3-0.3l0-0.1L72.4,37l-0.2,0L71.7,37.5z M72.7,42.2
				c0,0.2-0.2,0.5-0.7,1l0,0.4l0.4,0.2l0.1,0c0.5-0.7,0.8-1.1,0.8-1.4l-0.2-0.2L72.7,42.2z M72.4,39.9l-0.2,0.4l1.1,0.4l0.5,0l0-0.5
				l-1,0.1c-0.1,0-0.2-0.1-0.2-0.3L72.4,39.9z M74.4,26.4l0.8,0c0.3,0,0.6,0.8,1,2.3l-0.3,0.2l-0.2,0c-0.9-0.2-1.4-0.6-1.5-1.2
				l-0.5-0.5l0-0.2C73.6,26.9,73.9,26.7,74.4,26.4z M75.8,36l0,0.2l0.3,0L75.9,36L75.8,36z M76.3,42.4l0,0.1l0.2,0l0.5-0.1L76.7,42
				l-0.1,0L76.3,42.4z M76.7,36.7c-0.2,0.3-0.3,0.5-0.3,0.8l0,0.5l0.1,0l0.5-0.7l0-0.3L76.7,36.7z M76.7,39.7l0,0.3l0.5,0l0-0.3
				L76.7,39.7z"/>
			<path class="st0" d="M81,32.2l0.5,0l2.8,0.5c2,0.2,3,0.4,3.1,0.7l0.1,1.5c0,0.1,0.3,0.2,0.8,0.2l0.2,0.2l0.1,0l0.3-0.2l0.8,0
				c0.6,0,1.3-0.5,2.1-1.4l0.1,0c1,0.4,2.5,0.6,4.6,0.7c0,0.1,0.7,0.3,2.1,0.3l0.1,0.1l0,0.2c-0.5,1.6-1.6,2.9-3.2,4.2l0,0.3
				l0.5,0.6l0,0.4c0,0.2-0.5,0.3-1.4,0.5l-0.1,0.1l0,0.1l0.3,0.2l0.3,0l0.8-0.5l0.1,0c0.3,0.4,0.7,1.2,1.1,2.3l0.2,0.2l-0.1,0.3
				l1.2,2.4l0.1,0.1l-0.1,0.1l0,0.1c0.1,0,0.2,0.2,0.2,0.6l0.5,0.7L99,48l0,0.1l1.3,2.6l-0.1,0.1l0,0.1l0.5,0.6l0,0.2l-0.3,0.3
				l-6.9,0.4c-0.3,0-0.9-1.3-1.6-3.8c-0.1,0-0.4-0.5-0.7-1.5l0.1-0.3l-0.7-1.3l0.1-0.3L90,44l0-0.2l0.1-0.1l0-0.1
				c-0.1,0-0.2-0.2-0.2-0.6l-0.5-0.7l0.1-0.1l0-0.1c-0.1,0-0.3-0.5-0.6-1.5c-0.5,0-0.8,0-0.8-0.2c0-0.1,0.2-0.2,0.5-0.2l0-0.2
				c0.2,0,0.3-0.3,0.5-0.9l0-0.5l-0.5-0.2l-0.2,0c-1,1-1.5,1.6-1.5,2l0,1.2l0.1,0.3l0.5,0l0-0.6l0.2-0.2l0.2,0.2l0.3,6.6
				c-0.1,0.2-0.4,0.5-0.9,0.7c0,0.3-0.3,0.6-1,0.7l-0.1,0.3c0.3,0.2,0.5,0.3,0.8,0.3l0.5,0l0.6-0.6l0.2,0.2l0.2,3.1l-0.3,0.3
				l-5.9,0.3l-0.3-0.3l-0.1-1.1l0.2-0.3l0-0.6l-0.2-0.3l-0.1-1.6l0.2-0.3l-0.1-1.7l-0.2-0.3L81.4,45l0.2-0.3L81.5,43l-0.2-0.3
				l-0.1-1.4l0.2-0.3l-0.1-1.7l-0.2-0.3L81,37.5l0.2-0.3l0-0.1L81,36.7l-0.1-1.4l0.4-0.9l0.1,0l0.1,0.1l0.1,0l0.3-0.4l0-0.3l-1.1-1
				l0-0.3L81,32.2z M81.4,20.6l9.4-0.5l0.3,0.2l1.2-0.1l1.6,0.3c1,0.3,2.2,1,3.3,2.1l0,0.2l-0.2,0.3l0,0.1l0.2,0.2l0.4-0.1
				c0.5,0.4,0.9,1,1.3,1.8l-0.1,0.1l0,0.1c0.1,0,0.3,0.3,0.4,0.8l0.2,0.9l0.2,0.2l0.1,1.1l-0.1,0.1l0,0.1c0.1,0,0.2,0.1,0.2,0.3
				l0,2.9c-0.1,0-0.2,0.7-0.4,2.2l-0.1,0.1l-0.9,0c-0.2-0.1-1.7-0.3-4.7-0.6c-0.1-0.1-0.6-0.2-1.4-0.2l-0.1-0.1l0-0.1
				c0.3,0,0.5-0.9,0.7-2.7l0.2-0.9c0.3-0.4,0.5-0.9,0.5-1.5l0.4-0.5l-0.2-0.2l-0.1-1.1l-1.3-1.4l-0.1,0c-0.2,0-0.3,0.3-0.3,0.9
				l-0.8,0.5l-0.2,0l-0.5-0.4c0.3-0.2,0.4-0.8,0.3-1.6c0.9-0.4,1.4-0.7,1.4-0.8c0.1-0.1,0.2-0.5,0.2-1.2l0.3-0.2
				c0.1,0,0.2,0.1,0.2,0.3l0.8,0l0.6,0.4l0.5-0.6l-0.8-0.7l-0.2,0l-0.6,0.5c-0.4-0.6-0.7-0.9-0.8-0.9l-0.2,0l-1.2,0.4l-0.2,0.3
				l0,0.1l0.2,0.3l0,0.5l-0.3,0.3c-0.3-0.6-0.7-0.8-1.2-0.8l-0.8-0.6l-0.2,0c-0.4,0.5-0.7,0.7-0.9,0.7l0,0.2l0.2,0.3l0,0.2l-0.2,0.2
				l-0.2,0c-0.1,0-0.2-0.1-0.2-0.4l-0.1-0.1l-0.1,0l-0.6,0.7l0,0.4l0.2,0.4l0.1,0l0.4-0.3l0.2,0l0.7,0.5l0.6,0L89,24
				c0.4,0.2,0.7,0.6,0.7,1.1l-0.3,0.3c-0.3-0.5-0.5-0.7-0.6-0.7l-0.5,0c-0.2,0-0.3,0.4-0.4,1.1l-0.5,0.5l-0.1,0
				c-0.9-0.3-1.7-0.6-2.3-1.2l-1.2,0.1l-0.3-0.2l-1.2,0.1c-0.6,0-0.9-0.1-1-0.4l-0.1-1l0.1-0.5l-0.1-0.6l0-0.6l-0.2-0.3l0-0.4
				L81.4,20.6z M83.2,26.4c0.3,0.1,0.7,0.6,1.4,1.7l0.6,0c0-0.2,0.1-0.3,0.2-0.3l0.1,0c0.1,0.1,0.5,0.2,1.1,0.2
				c0.2,0.1,0.5,0.8,1.1,2.1l0.1,0.1l0,0.2c0,0.1-0.2,0.2-0.5,0.2l0,0.3l0.1,0l0.3-0.1l0.1,0.1l0.1,1.6l-0.2,0.2l-0.5,0l-2.9-0.5
				l-0.9-0.1L82.7,32c-0.2-0.1-0.3-0.5-0.4-1.1l-0.1-0.1l-0.4-0.1l-0.1-0.1l-0.1-2.5c0.5-0.5,0.7-1,0.7-1.7l0.1-0.1L83.2,26.4z
				 M81.6,36.8l0.1,0.1l0,0.1l0.7-0.1l0.1,0l0.6,0.5l0.2-0.3l0-0.3l-0.7-0.6l-0.1,0C81.9,36.5,81.6,36.7,81.6,36.8z M83.3,35.9
				l0,0.1l0.3,0.3l0.2-0.3l0-0.4l-0.2,0L83.3,35.9z M86,42.3c-0.2,0.8-0.6,1.2-1.3,1.3l0,0.5c0.2,0,0.4,0.1,0.6,0.4l0,0.3l-0.2,0.3
				l0,0.2l0.5,0.1l0.1-0.1l0-0.3l-0.1-0.6c0.3-0.8,0.7-1.2,1.3-1.3l0-0.4C86.9,42.5,86.6,42.3,86,42.3z M85.5,37.4l0.5,0.4l0.1,0
				l0.3-0.3l0-0.8l-0.2,0L85.5,37.4z M85.5,29.2l0,0.1l0.1,0.5l0.1,0l0.3-0.4l-0.3-0.2L85.5,29.2z M85.7,50.9l0,0.1l0.3,0l0-0.1
				L85.7,50.9z M85.7,30.5l0,0.1l0.2,0l0.2-0.2L86,30.3l-0.1,0L85.7,30.5z M89.3,36.5l-0.1,0l-0.3-0.2l-1,0.1l-0.3,0.3l0,0.2
				c0.2,0,0.5,0.2,0.9,0.5c0.5,0,0.8,0.2,0.8,0.7l0.1,0.1l0.1,0l0.6-0.4l1-0.1c0.2,0,0.3-0.3,0.5-0.9c0.8,0,1.3-0.2,1.5-0.6l0-0.2
				l-1.4,0.1c-0.3-0.2-0.6-0.3-1-0.3C90.1,35.9,89.6,36.1,89.3,36.5z M89.8,39.2l0,0.2c0,0.1,0.3,0.3,0.9,0.6l0.4,0l0.4-0.5l0-0.1
				l-0.3-0.3L89.8,39.2z M92,39.3l0,0.3l0.1,0l0-0.3L92,39.3z M93.5,24.3l0.3,0.2l0.1,0l0.3-0.3L93.9,24l-0.1,0L93.5,24.3z
				 M93.8,31.9l0,0.4c0.3,0.4,0.6,0.6,0.9,0.6l0.2,0l0.1-0.8l0-0.1l-0.6-0.5l-0.3,0L93.8,31.9z M94.1,44.2l0.2,0.2l0.3,0l0.4-0.5
				l0-0.1l-0.3-0.3L94.1,44.2z M94.2,38.4l0,0.1l0.5,0l0-0.5l-0.1,0L94.2,38.4z M94.5,24.3l0.6,0.4l1.1-0.1l0.3-0.3l0-0.1l-0.2-0.3
				l0-0.9l0.2-0.3l0-0.2l-0.4,0C95.3,22.7,94.8,23.3,94.5,24.3z M97.1,48.7l0,0.3l0.3,0l0-0.1l-0.2-0.2L97.1,48.7z M97.7,24.2l0,0.3
				l0.3,0l0-0.3L97.7,24.2z M98.3,50.8l0,0.1l0.2,0l0-0.1L98.3,50.8z"/>
		</g>
		<g>
			<path class="st0" d="M104.1,21.8l5.7-0.3l0.3,0.3l-0.2,0.2l-0.4-0.1c-0.1,0.2-0.5,0.6-1.2,1.1l0,0.5l0.3,0.3l0.2,0
				c0.5-0.6,1-0.9,1.2-0.9l0.2,0.3l0.2,3.8l-0.2,0.3l-0.5-0.1l-0.2,0l-0.3,0.3l0,0.3l0.1,0l1-0.2l0.2,0.3l0.1,1.3l-0.9,1.2l0,0.2
				l1,0.8l0.1,2.2l-0.2,0.3l-1-0.2l0,0.1l0.2,0.3l0.7,12.8l0.4,0.2l0.1,0l0.3-0.2l0.3,0l1.6,1l0.2-0.3c-0.2-0.1-0.3-0.3-0.4-0.6
				l0.1-0.1l0.8,0c0.2,0.2,0.7,0.4,1.4,0.5l0.3,0.3l0.3,0l0.3-0.2l-0.1-0.1l0-0.1l0.4-0.5l0.3,0.2l0.1,3l0.2,2.7l-0.3,0.2l-12.3,0.6
				l-0.3-0.3l-1.1-21.6l0.2-0.2l1.8,0.9l0.2,0l0.2-0.2c-1-0.3-1.5-0.6-1.6-0.8l-0.1-1.3c0-0.2,0.2-0.3,0.6-0.4l0.3-0.4l0-0.3l-1-0.8
				l0-0.5l0.7-0.9l0-0.4l-0.8-0.7l-0.2-3.3L104.1,21.8z M104.4,42.3l0.8,0.4l0.2,0c0.1-0.2,0.5-0.2,1-0.3l0.2-0.3l0-0.8l-0.7-0.3
				l-0.3,0L104.4,42.3z M105.8,30.3l0.2,0.2l-0.1,0.9c0.2,0.3,0.3,0.5,0.5,0.5l0.2,0l0.5-0.7l0-0.9l-0.6-0.5l-0.3,0L105.8,30.3z
				 M105.8,47.5l0,0.2l0.5,0.5l0,0.2l-0.1,0.1l0,0.1l1.1,1.1l0.2-0.3l0-0.3c-0.4-0.6-0.6-1.2-0.7-1.8l-0.1-0.1l-0.4,0L105.8,47.5z
				 M105.9,44.6l0.1,1.2l0.3,0.3l0.2,0l0.3-0.3l-0.1-1l-0.3-0.3L105.9,44.6z M105.9,32.4l0,0.1l0.2,0l0-0.1L105.9,32.4z M106.3,27.5
				l0,0.5l0.3,0l0.3-0.3l0-0.2L106.3,27.5z M106.3,32.5l0,0.1c0,0.1,0.7,0.5,2.1,1.1l0.4,0l0-0.2L106.3,32.5z M106.4,38.3l0,0.2
				l0.3,0.3l0.2,0l0.3-0.3l0-0.3L107,38l-0.3,0L106.4,38.3z M106.5,26.3l0,0.1l0.5,0.1l0.1-0.1l0-0.1l-0.3-0.3L106.5,26.3z
				 M107,46.2l0,0.6l0.3,0.3l0.4-0.3l0.1-0.1l0-0.2l-0.2-0.3l0-0.1c0.2-0.7,0.3-1.1,0.5-1.1c0.5,0,0.8-0.4,0.8-1.2l0.4-0.3l0.3,0.2
				l0.2,0l0.2-0.2l0-0.2l-0.6-0.5c0-0.3-0.1-0.4-0.3-0.4l-0.1,0c-0.2,0-0.3,0.3-0.4,1c-0.6,0-1,0.3-0.9,0.9l-0.5,1
				C107.3,45.6,107.2,46,107,46.2z M107.8,30.6l0,0.6l0.6,0.5l0.3,0l0.3-0.3l0-0.9l-0.3-0.3l-0.5,0L107.8,30.6z M107.9,50.2
				c0,0.4,0.4,0.8,1,1.1c0.1,0,0.3-0.3,0.5-0.8l0-0.2l-0.5-0.4L107.9,50.2z M108.9,47.3l0,0.5c0,0.1,0.2,0.3,0.7,0.4l0,0.2l0.2,0
				l0.3-0.3l0-0.2l-0.7-0.8l-0.3,0L108.9,47.3z M109.1,33.6l0,0.2l0.1,0l0-0.2L109.1,33.6z M109.4,33.8l0,0.1l0.2,0l0-0.1
				L109.4,33.8z M110.9,48.9l0,0.3l0.1,0l0.2-0.2l0-0.1L110.9,48.9z M112.3,48.8l0.1,1.1l0.8,0.5l1.1-0.1l0.2-0.7
				c-0.1-0.1-0.6-0.2-1.4-0.2l-0.1-0.1l0-0.1l0.2-0.2l0-0.2l-0.3-0.3l-0.1,0L112.3,48.8z M115.2,51.9l0.2,0.2l0.3,0l-0.1-0.5l-0.1,0
				L115.2,51.9z"/>
		</g>
		<g>
			<path class="st0" d="M117.5,18.7l9.7-0.5l2.1,0.3l0,0.1c-0.2,0.4-0.5,0.6-1,0.6c-0.3,0-0.7-0.1-1.3-0.5l-0.3,0.2l-0.5,0l0,0.2
				l0.3,0.4l-0.5,0.6l0.7,0.4l2.5-0.1l0.3-0.2l1.4-0.1c0.1,0.1,0.8,0.2,2.1,0.3c0.7,0.5,1.4,1.5,2.3,3.1l-0.1,0.1l0,0.1l0.2,0.2
				l0,0.3c0,0.3-0.1,0.9-0.4,1.7l0,0.8l0.6,0.5l0.2-0.2l0-0.2l-0.2-0.3l0-0.5l0.4-0.6l0.4,0.7l0.1,1c0.2,0.3,0.4,0.8,0.4,1.5l0,0.4
				l0.2,0.3l0.1,2.2l0.2,0.3l0.1,1.1l-0.2,0.3l0.1,1.2l-0.2,0.3l0,0.1c0.3,0,0.7,0.2,1,0.6l0,0.3l-0.2,0.3l0.1,1.6l-0.4,0.5
				l-0.2-0.2l-0.1,0l-0.5,0.2l0,0.3l0.3,0.3l0.1,0l0.4-0.3l0.2,0.4c0.1,1.7-0.4,4-1.6,6.8c-0.5,1.1-1.5,2.2-2.7,3.2
				c-1.5,0.9-2.9,1.3-4.1,1.4l-0.3,0l-0.3,0.2l-3.2,0.2c-0.5-0.4-1.4-1.5-2.5-3.3l-2.3-3.2c-1-1.2-1.5-2-1.5-2.4l-0.3-5.2
				c0-0.1,0.3-0.3,0.8-0.4l0-0.2c0-0.2-0.3-0.3-0.9-0.4l-0.3-5.5l0.1-0.5c-0.4-0.1-0.7-0.3-0.7-0.4l-0.1-2.2l0.3-0.4l0-0.1l-0.3-0.4
				l-0.1-1.7c0.6-0.7,1.3-1,2.2-1.1c0.9,0.2,1.3,0.4,1.3,0.6l0,0.3l-0.1,0.1l0,0.1l0.3,0.2l0.2,0l0.5-0.6c-0.2-0.5-0.6-0.8-1.5-1
				l-0.3-0.4l0.1-0.1l0-0.1l-0.8-0.6l-0.2,0.2l-0.1,0c-0.1,0-0.2-0.1-0.2-0.3l-0.6,0l-0.7,0.9l-0.2-0.2l-0.2-3.4L117.5,18.7z
				 M118.7,20.5c-0.2,0-0.3-0.2-0.4-0.5l-0.3,0l0,0.1c0,0.7,0.2,1.1,0.4,1.1l0.3,0.2c0.7-0.4,1.1-0.8,1.2-1.1l0-0.2l-0.3-0.3l-0.1,0
				c-0.1,0-0.3,0.3-0.5,0.8L118.7,20.5z M118.6,42.3c1.3,1.6,2.1,2.9,2.5,3.6c0.2,0,0.9,0.9,2,2.6l1.3,1.7l-0.3,0.3l-4.8,0.3
				l-0.3-0.3l-0.4-8L118.6,42.3z M123.3,21.1l0,0.6c0.4,0.8,0.6,1.2,0.7,1.1l0.1,0l0.5-0.5l0.1,0l0.6,0.7l0,0.2l-0.8,0l-0.8,0.8
				l-0.1,0l-0.3-0.2l-0.6,0c-0.3,0-0.5,0.7-0.6,2.1l-0.4,0.3l-1.8,0.1l-0.3-0.2l-0.6,0l-0.3,0.3l0,0.1c0.3,0.6,0.5,0.9,0.6,0.9
				c0.3,0,0.6-0.2,0.9-0.7l1.1-0.1l0.3-0.2l0.3,0l0.5,0.5l0,0.3l-0.5,0.9l0,0.1l0.8,0c0.2,0,0.5,0.1,0.8,0.3l0.2,0l0-0.2
				c0-0.1-0.2-0.3-0.7-0.4l-0.2-0.3l0-0.5l0.5-0.7l-0.5-0.7l0-0.6c0.4-0.6,0.8-0.9,1.1-0.9l0.1,0.1l0.1,1.8l0.2,0.3l0.1,1.5
				l-0.2,0.3l0.1,1.1l0.2,0.3l0,0.8l-0.1,0.5l0.7,0.6l0,0.2l-0.2,0.3l0,0.8l0.2,0.3l0,0.6l-0.2,0.3l0.1,1l-0.5,0.7l0,0.8l0.6,1.3
				l0.1,2.2l-0.2,0.2l-0.1,0c0-0.1-0.4-0.6-1.1-1.2c0-0.3-0.3-0.7-0.8-1.3c-0.2-0.9-0.4-1.3-0.7-1.3l-0.6-0.3c-0.6,0-1.3,0.5-2,1.5
				l0.3,0.1l1.3-1.3l0.2,0c0.3,0.1,0.7,0.9,1.2,2.2c0.8,1.1,1.3,1.7,1.5,1.6c0.7,0.1,1,0.3,1,0.8l0.2,0.5l0.1,1.1l-0.2,0.3l0.1,1.5
				l0.3,0.3l1.5-0.1c0.1-0.1,0.5-0.2,1.1-0.3c0.7-0.4,1.3-1,1.8-1.9c0.6-1.8,0.9-3.7,0.8-5.8l-0.1-1.6l0.2-0.3l-0.1-1.5l0.2-0.3
				c0-0.2-0.2-0.3-0.7-0.3l-0.3-0.4L130,31c-0.1-2.1-0.6-4-1.5-5.7c-0.8-0.8-1.5-1.2-2.1-1.2c-0.3,0-0.6-0.3-0.7-1l-0.5-0.7
				l-0.1-1.3l0.3-0.4l-0.1-0.1l0-0.1l-0.7,0.1l-0.2,0l-0.4-0.3l-0.1,0C123.7,20.2,123.5,20.5,123.3,21.1z M119.1,24.3l0,0.2l0.3,0.3
				l0.3-0.2l-0.1-0.3L119.1,24.3z M119.3,34l0,0.4l0.3,0.3l0.3-0.6l-0.3-0.2L119.3,34z M119.4,29.9l0,0.3l3.3,0.7
				C122.7,30.7,121.6,30.4,119.4,29.9z M120,21.6l0,0.1c0.1,0,0.4,0.2,0.9,0.6l0.2-0.3l-0.8-0.7L120,21.6z M120.1,33.7l0,0.4l0.5,0
				l0.5-0.6l-0.3-0.3l-0.3,0L120.1,33.7z M122.1,34c0,0.2-0.2,0.4-0.5,0.6c0,0.2-0.3,0.3-1,0.4l-0.1,0.1l0,0.3
				c0,0.1,0.3,0.3,0.9,0.6l0.1,0c0.4-0.3,0.8-0.8,1.2-1.5l0.4,0.3l0.1,0l0.2-0.2c0-0.1-0.4-0.3-1.1-0.5l-0.1-0.1L122.1,34z
				 M121.4,33l0.9,0.5l0.7-1l-1.1-0.9l-0.1,0C121.5,31.6,121.4,32.1,121.4,33z M124.1,41.7l0,0.1l0.3,0l0-0.1L124.1,41.7z
				 M124.2,18.8l0,0.3l0.3,0.3l0.2,0l0.3-0.3l0-0.1l-0.2-0.2L124.2,18.8z M126.2,21.4l-0.2,0.3c0,0.1,0.4,0.3,1.1,0.5l0.5,0l0.3-0.3
				l0-0.5l-0.2,0l-0.6,0.6L126.2,21.4z M130.6,19.1l0.3,0l0.8,0.5l-0.2,0.2l-0.8,0l-0.3-0.3l0-0.2L130.6,19.1z M131.2,25l0,0.1
				c0,0.3,0.5,0.4,1.3,0.5l0.1,0.1l0.4,0c0.2,0,0.4-0.4,0.5-1.1l0.3-0.2l0.5,0l0-0.1c-0.2-0.3-0.5-0.5-0.8-0.5c-0.6,0-1,0.3-1.3,0.7
				c-0.5,0-0.9,0.2-1,0.6L131.2,25z M131.6,30.7l0.1,0.1l0,0.8l-0.1,0.1l0,0.1c0.7,0.3,1.1,0.6,1.2,0.8l0,0.6l-0.2,0.3l0,0.1
				c0,0.1,0.4,0.4,1.3,0.7l0.1,0.1l0,0.1l0.7-0.1l0.1,0c0.3,0.1,0.5,0.4,0.5,0.8l0.3,0l0.2-0.5c0-0.1-0.3-0.3-0.8-0.5l0-0.2l0.2-0.3
				l0-0.5l-0.5-0.6l-0.3,0l-0.2,0.2l0.2,0.2l0,0.9l-0.3,0.3c-0.5-0.2-0.8-0.4-0.8-0.5l0-0.2c0.1-0.4,0.3-0.6,0.5-0.6l0-0.2
				c0-0.1-0.3-0.3-0.9-0.5l0-0.4l0.3-0.4l-0.1-1l-0.3-0.3l-0.8,0L131.6,30.7z M132.5,22.2l0,0.3l0.3,0l0-0.3L132.5,22.2z
				 M132.5,39.7l0,0.3l0.2-0.2l-0.1-0.1L132.5,39.7z M133.2,26.2l0.1,1l-0.2,0.3c0.1,0,0.2,0.1,0.2,0.3l0.4,0
				c0.3-0.2,0.5-0.4,0.6-0.7l0-0.6l-0.6-0.5l-0.1,0L133.2,26.2z M135.3,29c0,0.2-0.2,0.3-0.7,0.4l-0.8,0.5l0.1,0.1l0,0.4l-0.1,0.1
				l0,0.1l0.2,0.2l0,0.3l-0.2,0.3l0,0.1l0.2,0.2l0.2,0c0.4,0,0.5-0.6,0.6-1.8l0.9-0.8l-0.3-0.2L135.3,29z M134,35.1l0.1,0.1l0,0.3
				l-0.1,0.1l0,0.1c0.1,0,0.3,0.5,0.5,1.4l1,0.8l0.2-0.2c-0.8-1.1-1.2-1.8-1.2-2l-0.1-0.7l-0.2,0l-0.1,0.1L134,35.1z M135.5,31.7
				l0,0.1l0.2,0l0-0.3L135.5,31.7z"/>
		</g>
	</g>
</g>
<g id="Layer_2" class="st1">
	<path class="st2" d="M138.1,22.7c-1.2,0-2.4,0-3.6-0.1c-0.8,0-1.4-0.3-1.9-0.8c-2.7-2.8-5.5-5.7-8.2-8.5c-0.1-0.1-0.1-0.2-0.2-0.3
		c0,0-0.1,0-0.1,0c0,0.1,0,0.2,0,0.3c0,2.2,0,4.4,0,6.6c0,0.4,0.1,0.7,0.1,1.1c0.1,0.5,0.4,0.8,0.9,1c0.3,0.1,0.6,0.2,1,0.2v0.4
		h-5.7v-0.4c0.2,0,0.3-0.1,0.5-0.1c1.1-0.2,1.5-0.6,1.5-1.8c0-0.5,0-0.9,0-1.4c0-2.2,0-4.5,0-6.7c0-0.3-0.1-0.6-0.1-0.9
		c-0.1-0.6-0.5-0.9-1-1.1c-0.3-0.1-0.5-0.1-0.8-0.2V9.7c0.1,0,0.2,0,0.3,0c1.1,0,2.1,0,3.2,0c1,0,1.9,0.4,2.6,1.1
		c2.5,2.6,5,5.1,7.5,7.7c0.1,0.1,0.3,0.3,0.4,0.4c0-0.1,0-0.2,0-0.3c0-2,0-4.1,0-6.1c0-0.4-0.1-0.8-0.1-1.2c-0.1-0.5-0.4-0.9-0.9-1
		c-0.3-0.1-0.6-0.2-1-0.2V9.7h5.8v0.4c-0.3,0.1-0.6,0.1-0.9,0.2c-0.6,0.2-1.1,0.5-1.1,1.2c0,1-0.1,1.9-0.1,2.9c0,2,0,4.1,0,6.1
		c0,1,0.3,1.4,1.3,1.6c0.2,0.1,0.5,0.1,0.7,0.2V22.7z M18.5,0c-0.1,0-0.2,0.1-0.3,0.1C17,0.7,16,1.7,15.4,3
		c-0.1,0.2-0.1,0.3-0.4,0.3c-2.1,0-4.2-0.1-6.3-0.1c-2.3,0-4.6-0.1-6.9-0.1c-0.7,0-1.4,0-2.1,0C-0.4,3.4-0.2,3.4,0,3.4
		c0.7,0.1,1.4,0.3,2,0.4C3.3,4.2,4.2,5,4.4,6.3c0.2,1.3,0.3,2.6,0.3,3.8c0,5.8,0,11.6,0,17.4c0,1.1-0.1,2.3-0.3,3.4
		c-0.2,1.4-1.1,2.4-2.5,2.8c-0.6,0.2-1.3,0.3-2,0.5c-0.3,0.1-0.3,0.2-0.2,0.4c0.1,0,0.3,0,0.4,0c3.8,0,7.6-0.1,11.5-0.1
		c1.6,0,3.2,0,4.8-0.4c3.9-0.8,7.4-2.4,10.5-4.9c0.6-0.5,1.1-1,1.7-1.5c-0.2-0.1-0.3-0.2-0.4-0.3c-0.8-0.6-1.7-0.8-2.7-1
		c-0.1,0-0.3,0.1-0.3,0.2c-0.5,0.6-1,1.3-1.5,1.9c-3,3.2-6.6,5.2-11.1,5.3c-1.4,0-2.2-0.5-2.5-1.9c-0.4-1.3-0.4-2.7-0.4-4
		c0-6.3,0-12.7,0.1-19c0-1,0.1-2,0.5-3c0.3-0.9,0.9-1.6,1.8-1.7c1-0.1,2.1,0,3.1,0c0,0.1,0,0.1,0,0.2c-0.3,1.1-0.3,2.1-0.1,3.2
		c0.2,1.1,0.5,2.1,1,3.1c0.4,0.8,0.6,1.7,0.4,2.6c-0.2,0.7-0.4,1.4-0.7,2.1c-0.2,0.4-0.4,0.8-0.6,1.2c-0.9-1.1-1-2.4-1.3-3.6
		c-0.2,0.4-0.5,0.7-0.6,1.1c-0.9,2.1-1,4.1,0.1,6.2c0.9,1.6,2.2,2.8,3.8,3.7c0.2,0.1,0.5,0.1,0.7,0.1c2.3-0.6,4-2,5.2-4
		c1-1.7,1.5-3.6,1.3-5.6c-0.2-2-0.9-3.8-1.7-5.7c0-0.1-0.1-0.1-0.1-0.2c0,1.8-0.4,3.5-1.2,5.2c0-0.2-0.1-0.4-0.1-0.5
		c-0.2-1.7-0.6-3.3-1.6-4.7c-0.5-0.7-1-1.5-1.5-2.3c-0.3-0.6-0.5-1.3-0.4-2c0.2,0,0.3,0,0.4,0c0.1,0,0.3,0,0.4,0.1
		c1.8,0.2,3.6,0.5,5.3,1.3c2.6,1.1,4.4,3,5.2,5.8c0.5,2,0.5,4.1,0.1,6.1c-0.4,2.6-1.2,5-2.5,7.2c0,0.1-0.1,0.2-0.1,0.2
		c0.1,0,0.1,0,0.1,0c1.1,0,2.1,0,3.2,0c0.5,0,1,0.1,1.4-0.1c0.4-0.2,0.6-0.8,0.8-1.2c1.4-2.4,2.3-4.9,2.6-7.7
		c0.1-1.2,0.2-2.4,0.1-3.6c-0.2-2.5-1.6-4.4-3.8-5.8c-1.6-1-3.5-1.6-5.3-2.1c-2.1-0.5-4.1-0.8-6.2-0.9c-0.5,0-1.1-0.1-1.7-0.1
		c0.2-1.2,0.7-2.3,1.2-3.4C18.6,0,18.5,0,18.5,0 M22.9,16.3c-0.1,1-0.2,1.9-0.6,2.9c-0.2,0.6-0.5,1.1-0.9,1.4
		c0.5-1.2,0.7-2.3,0.7-3.5c-0.3,0.3-0.6,0.6-0.9,0.8c-0.3,0.2-0.6,0.5-0.9,0.6c-0.5,0.2-0.8,0.1-1.1-0.3c-0.6-0.9-0.7-2-0.7-3
		c0-0.6,0-1.2-0.1-1.8c-0.3,0.6-0.6,1.2-0.9,1.8c-0.3,0.5-0.5,1.1-0.8,1.6c-0.4,1-0.8,1.9-1.1,2.9c-0.3,0.8-0.1,1.6,0.3,2.4
		c0,0.1,0.1,0.2,0.1,0.3c0,0,0,0,0,0.1c-1.3-0.9-2.3-1.9-2.7-3.4c-0.3-1.2-0.3-2.4,0-3.6c0.5,1.1,0.9,2.2,1.8,3
		c0.2-0.6,0.3-1.1,0.5-1.6c0.4-0.8,0.7-1.7,1.2-2.4c1-1.7,1-3.5,0.3-5.3c0-0.1-0.1-0.2-0.1-0.4c0.3,0.3,0.6,0.6,0.9,1
		c0.5,0.7,1.1,1.4,1.5,2.2c0.5,0.9,0.4,1.9,0.4,2.9c0,0.6-0.1,1.2-0.2,1.8c0,0.1,0,0.2,0,0.4c1.9-0.8,2.6-2.5,3.3-4.4
		C23,14,23,15.1,22.9,16.3 M19.4,34.5c-1.4,0.5-2.9,0.8-4.4,1c-0.3,0-0.3,0.1-0.3,0.4c0,1.8,0.2,3.7,0.6,5.5c0.7,3.3,2.3,6,4.9,8.1
		c2.5,2,5.3,3.3,8.4,4.1c1.4,0.4,2.4,1.1,3.1,2.4c0.2,0.4,0.4,0.8,0.6,1.2c0.2,0.5,0.4,1.1,0.5,1.7c0-0.1,0-0.1,0.1-0.2
		c0.3-0.9,0.6-1.7,1-2.5c0.7-1.3,1.7-2.1,3.2-2.5c2.8-0.7,5.5-1.9,7.9-3.7c2.2-1.7,3.9-3.8,4.8-6.4c0.9-2.6,1.1-5.2,1.1-7.9
		c0-2.1,0-4.2,0.1-6.2c0.1-1.7,0.7-2.3,2.3-2.7c0.4-0.1,0.9-0.2,1.3-0.3v-0.7c-4.1,0-8.2,0-12.2,0c-0.1,0.6-0.1,0.6,0.5,0.8
		c0.5,0.1,1.1,0.3,1.6,0.5c0.6,0.2,1,0.7,1.2,1.3c0.1,0.5,0.2,1,0.3,1.6c0,2,0.1,3.9,0.1,5.9c0,1.6-0.2,3.2-0.6,4.8
		c-0.4,1.7-1.1,3.4-2.4,4.7c-2.2,2.3-4.9,3.6-8,4.2c-0.2,0-0.4,0.1-0.5,0.4c-0.6,1.2-1.1,2.5-1.4,3.9C33,53.7,33,54,32.9,54.2
		c0,0.2-0.1,0.5-0.1,0.7c-0.4-1.9-1-3.7-1.9-5.4c-0.1-0.2-0.2-0.3-0.4-0.3c-0.7-0.1-1.5-0.3-2.2-0.5c-2.8-0.9-5-2.4-6.6-4.9
		c-1.3-2.2-1.9-4.7-2.1-7.3c0-0.7,0-1.4,0-2.1C19.5,34.5,19.5,34.5,19.4,34.5 M86.6,41c-0.6-0.2-1-0.7-1-1.3c0-1.4,0-2.9,0-4.3
		c0-0.1,0.1-0.3,0.2-0.3c0.5-0.2,0.9-0.3,1.4-0.5c0.2-0.1,0.3,0,0.5,0.1c2.4,3,5.5,5.1,9.1,6.5c1.8,0.7,3.6,1.1,5.5,0.9
		c0.6-0.1,1.2-0.1,1.7-0.1c3.4,0,6.9,0,10.3,0.1c0.4,0,0.7,0.1,0.8,0.5c0.1,0.3,0.3,0.2,0.5,0.2c0.1,0,0.2-0.2,0.2-0.3
		c0.2-0.9,0.5-1.9,0.7-2.8c0.2-0.8,0.4-1.5,0.6-2.3c-0.4-0.1-0.6,0-0.8,0.4c-0.1,0.3-0.4,0.6-0.6,0.9c-0.7,1-1.6,1.6-2.8,1.7
		c-1.1,0.1-2.2,0.2-3.3,0.2c-1.1,0-1.3-0.2-1.3-1.3c0-3.3,0-6.6,0-9.9c0-0.6,0-1.1,0.1-1.7c0.1-0.7,0.5-1.3,1.2-1.5
		c0.3-0.1,0.6-0.2,0.9-0.2c0.5-0.1,0.5-0.1,0.4-0.6h-9.5c-0.1,0.6,0,0.5,0.4,0.6c0.3,0.1,0.5,0.1,0.8,0.2c0.7,0.2,1.1,0.6,1.2,1.3
		c0,0.2,0.1,0.5,0.1,0.7c0,3.7,0,7.4,0,11.1c0,0.4-0.1,0.9-0.3,1.2c-0.3,0.6-0.5,0.6-1,0.5c-1.7-0.3-3.2-0.9-4.6-1.8
		c-2.5-1.6-4.6-3.6-6.6-5.9c0,0-0.1-0.1-0.1-0.1c0.4-0.2,0.8-0.4,1.2-0.6c0.8-0.4,1.6-0.9,2.2-1.5c0.8-0.8,1.2-1.8,0.8-3
		c-0.3-0.9-1-1.5-1.8-1.8c-1.6-0.7-3.3-1-5-1c-4-0.1-8,0-12-0.1c-0.2,0-0.4,0-0.6,0v0.6c0.1,0,0.3,0.1,0.4,0.1
		c0.7,0.1,1.4,0.2,2.1,0.3c1.4,0.2,2.2,1,2.4,2.4c0.1,0.4,0.1,0.9,0.1,1.4c0,2,0,4.1,0,6.1c0,1,0,2,0,3.1c0,1.5-0.5,2-1.9,2.3
		c-0.2,0.1-0.4,0.1-0.7,0.2V42h9.5v-0.5C87.6,41.3,87.1,41.2,86.6,41 M85.6,33.2c0-1.6,0-3.2,0-4.8c0-0.3,0-0.5,0.1-0.8
		c0.1-0.6,0.3-0.9,1-1c1-0.1,2-0.1,2.9,0.4c1.6,0.8,2,2.7,0.7,4c-0.6,0.6-1.3,1-2,1.4c-0.8,0.5-1.7,0.8-2.6,1.2
		C85.6,33.4,85.6,33.3,85.6,33.2 M69,41.9c2.4-0.6,4.6-1.8,6.1-3.9c1.6-2.2,2.1-4.6,1.3-7.2c-0.6-1.9-2-3.3-3.8-4.2
		c-3.2-1.7-6.6-2.1-10.1-1.4c-2.4,0.5-4.6,1.6-6.2,3.6c-1.7,2-2.3,4.3-1.9,6.9c0.4,2.2,1.8,3.7,3.6,4.8c2.3,1.4,4.8,1.9,7.5,2
		C66.7,42.3,67.8,42.2,69,41.9 M70.3,39c-1,1.1-2.3,1.7-3.8,1.8c-3.9,0.2-6.6-2.5-7.3-5.9c-0.4-2.2-0.2-4.3,1.2-6.2
		c1.3-1.8,3.2-2.5,5.4-2.3c3.6,0.4,5.8,3.3,6.2,6.3c0.1,0.4,0.1,0.8,0.1,1.1C72,35.9,71.5,37.6,70.3,39 M118.1,25.8
		c0.3,0.1,0.6,0.2,0.9,0.2c0.7,0.2,1.1,0.7,1.2,1.4c0.1,0.5,0.1,1.1,0.1,1.6c0,2.9,0,5.9,0,8.8c0,0.5,0,0.9-0.1,1.4
		c-0.1,1-0.5,1.6-1.5,1.8c-0.3,0.1-0.7,0.2-1,0.3V42c0.1,0,0.2,0,0.2,0c2.6-0.1,5.2-0.1,7.8-0.2c2.2-0.1,4.3-0.7,6.1-1.9
		c3.1-1.9,5.2-4.5,5.6-8.2c0.2-2.2-0.5-3.9-2.4-5c-0.8-0.4-1.6-0.8-2.5-1c-2.2-0.6-4.5-0.7-6.8-0.7c-2.3,0-4.6,0-6.8,0
		c-0.4,0-0.8,0-1.2,0C117.6,25.7,117.6,25.7,118.1,25.8 M124.7,28.6c0-0.4,0.1-0.8,0.2-1.2c0.1-0.4,0.4-0.7,0.9-0.7
		c1.7-0.1,3.4,0,4.9,0.8c1.6,0.8,2.2,2.2,2.1,3.9c-0.1,3.2-1.5,5.9-4,7.9c-0.8,0.7-1.7,1-2.8,1.2c-0.9,0.1-1.2-0.1-1.3-1
		c-0.1-0.7-0.1-1.4-0.1-2c0-1.2,0-2.5,0-3.7h0C124.7,32,124.6,30.3,124.7,28.6 M32.8,52.4c0.4-1.8,1.1-3.4,2.2-4.9
		c0.1-0.2,0.2-0.4,0.2-0.6c0-5.1,0-10.1,0-15.2c0-0.9,0.1-1.9,0.1-2.8c0.1-1.3,0.7-1.9,1.9-2.3c0.5-0.1,1-0.3,1.6-0.4v-0.6H26.7v0.6
		c0.7,0.2,1.3,0.3,1.9,0.5c0.8,0.3,1.3,0.8,1.4,1.7c0.1,0.7,0.2,1.4,0.2,2c0,5.2,0,10.3,0,15.5c0,0.9,0.1,1.7,0.6,2.4
		c0.1,0.1,0.1,0.1,0.1,0.2c0.7,1.3,1.3,2.7,1.7,4.2C32.8,52.5,32.8,52.4,32.8,52.4 M66.8,18.9c-0.1-0.1-0.1-0.2-0.2-0.3
		c-2.5-2.6-5-5.2-7.6-7.8c-0.7-0.8-1.6-1.1-2.7-1.1c-1.1,0-2.1,0-3.2,0c-0.1,0-0.2,0-0.3,0v0.4c0.3,0.1,0.5,0.1,0.8,0.2
		c0.6,0.1,1,0.5,1.1,1.1c0.1,0.3,0.1,0.7,0.1,1c0,2.4,0,4.8,0,7.3c0,0.4,0,0.8-0.1,1.2c-0.1,0.6-0.4,1-1,1.2
		c-0.3,0.1-0.6,0.2-0.9,0.2v0.4h5.7v-0.4c-0.3-0.1-0.6-0.1-0.8-0.2c-0.6-0.1-1-0.5-1.1-1.1c0-0.3-0.1-0.6-0.1-0.9c0-2.3,0-4.5,0-6.8
		c0-0.1,0-0.2,0-0.2c0,0,0.1,0,0.1,0c0.1,0.1,0.2,0.2,0.3,0.4c2.7,2.8,5.4,5.6,8.2,8.4c0.4,0.4,0.9,0.7,1.5,0.8
		c1.3,0.1,2.7,0.1,4,0.1c0,0,0,0,0.1,0c0.1-0.3,0-0.5-0.3-0.5c-0.1,0-0.2-0.1-0.4-0.1c-1-0.2-1.3-0.6-1.3-1.6c0-2.8,0-5.6,0-8.3
		c0-1.4,0.3-1.7,1.7-2c0.3-0.1,0.4-0.2,0.3-0.5h-5.7c-0.1,0.3,0,0.5,0.3,0.5c0.2,0,0.4,0.1,0.6,0.1c0.6,0.1,0.9,0.5,1,1.1
		c0.1,0.4,0.1,0.9,0.1,1.3c0,1.9,0,3.8,0,5.8c0,0.1,0,0.2,0,0.3C66.9,18.9,66.8,18.9,66.8,18.9 M112.1,22.8c2.1-0.3,4-1.1,5.4-2.7
		c1.5-1.6,2.1-3.6,1.6-5.7c-0.4-1.7-1.6-2.9-3.1-3.7c-2.3-1.2-4.8-1.5-7.4-1.1c-1.6,0.3-3.1,0.9-4.4,2c-1.8,1.5-2.6,3.5-2.3,5.8
		c0.2,1.6,1.1,2.8,2.4,3.8c1.9,1.3,4,1.7,6.4,1.8C111.1,22.9,111.6,22.9,112.1,22.8 M105.6,17.2c-0.2-1.2-0.2-2.4,0.2-3.6
		c1-2.6,3.6-3.8,6.3-2.7c1.9,0.8,3,2.3,3.4,4.2c0.3,1.4,0.1,2.8-0.5,4c-0.8,1.6-2.3,2.5-4.1,2.5C108.3,21.8,106.2,19.9,105.6,17.2
		 M36.1,10.3c0.8,0.2,1.2,0.6,1.2,1.4c0.1,1.5,0,2.9,0.1,4.4c0,0.7,0,1.5,0.1,2.2c0.3,2.1,1.5,3.6,3.6,4.3c1.8,0.5,3.6,0.5,5.4,0.1
		c1.3-0.3,2.4-1.1,2.9-2.4c0.3-0.7,0.5-1.5,0.6-2.2c0.1-1.7,0.1-3.4,0.1-5.1c0-0.5,0-0.9,0.1-1.4c0.1-0.6,0.4-1,1-1.2
		c0.3-0.1,0.6-0.2,0.9-0.3V9.7h-6.3c-0.1,0.4,0.1,0.5,0.4,0.5c1.1,0.2,1.4,0.5,1.6,1.5c0,0.1,0,0.2,0,0.3c0,1.8,0,3.7,0,5.5
		c0,0.5-0.1,1.1-0.2,1.6c-0.2,1.2-0.9,2.1-2.1,2.4c-0.7,0.2-1.4,0.2-2.1,0c-0.8-0.2-1.5-0.6-1.9-1.4c-0.4-0.7-0.6-1.4-0.6-2.2
		c0-2.1,0-4.3,0-6.4c0-0.9,0.4-1.3,1.2-1.5c0.1,0,0.2-0.1,0.4-0.1c0.3,0,0.4-0.2,0.3-0.5h-7.4v0.4C35.6,10.2,35.9,10.2,36.1,10.3
		 M83.9,9.1c-0.4,0.4-0.9,0.5-1.5,0.5c-1,0-2.1-0.1-3.1,0c-2.1,0.2-4,1-5.5,2.4c-3,2.8-2.7,7.1,0.7,9.4c1.7,1.2,3.6,1.6,5.6,1.6
		c0.7,0,1.5-0.2,2.2-0.3c0.1,0.5,0.2,1.1,0.3,1.7c0,0.3,0.2,0.3,0.4,0.3c0.2,0,0.4,0,0.5-0.3c0.2-1.5,0.5-3.1,0.7-4.6
		c0.2-1.6,1.2-2.5,2.4-2.7c0.4,0,0.4-0.2,0.3-0.5h-7.4c-0.1,0.3,0,0.5,0.3,0.5c0.2,0,0.4,0.1,0.6,0.1c0.5,0.2,0.9,0.5,1.2,1
		c0.4,1.1,0.5,2.2,0.7,3.4c-0.4,0-0.8,0.1-1.1,0.1c-2.4,0.2-4.4-1.1-5.3-3.3c-0.4-0.9-0.5-1.9-0.4-2.9c0.1-3,2.2-5.1,5.2-4.9
		c0.7,0,1.5,0.2,2.1,0.7c0.5,0.4,0.7,1,0.8,1.6h0.4c0.2-1.3,0.3-2.6,0.5-4.1C84.1,9,84,9,83.9,9.1 M99.5,9c-0.5,0.5-1.1,0.5-1.7,0.5
		c-1,0-1.9-0.1-2.9,0c-2.1,0.2-4,1-5.5,2.4c-2.9,2.7-2.7,6.9,0.5,9.3c2.8,2.1,6.9,2.3,9.8,0.5c0.6-0.4,1.2-0.8,1.8-1.2
		c-0.1-0.2-0.2-0.3-0.3-0.4c-1.4,1-2.8,1.6-4.5,1.6c-2.1,0.1-3.8-0.7-4.9-2.6c-0.4-0.7-0.7-1.5-0.7-2.4c1.4,0,2.7,0,4,0
		c0.3,0,0.6,0.2,0.6,0.6c0.1,0.3,0.1,0.7,0.2,1h0.4c0.2-1.5,0.4-2.9,0.6-4.4c-0.3-0.1-0.5,0-0.5,0.3c0,0.1-0.1,0.3-0.2,0.4
		c-0.2,0.6-0.6,0.9-1.3,0.9c-1.2,0-2.5,0-3.7,0c-0.1,0-0.1,0-0.2,0c0.1-1.3,0.4-2.5,1.3-3.4c1.3-1.4,2.9-1.7,4.7-1.3
		c0.8,0.2,1.5,0.5,1.9,1.4c0.1,0.3,0.2,0.6,0.3,0.9h0.4c0.2-1.3,0.3-2.6,0.5-4C99.8,9,99.6,9,99.5,9 M11.1,25.5v0.6
		c0.6,0.2,1.2,0.3,1.7,0.4c1,0.3,1.6,0.9,1.7,2c0.1,1.1,0.1,2.2,0.2,3.3c0,0.1,0,0.3,0,0.4c0.1,0,0.1,0,0.2,0c1.6-0.3,3.2-1,4.6-1.9
		c0.1-0.1,0.2-0.2,0.2-0.4c0.1-0.5,0.1-1,0.2-1.4c0.1-0.9,0.5-1.6,1.5-1.9c0.5-0.2,1-0.3,1.5-0.4c0.5-0.1,0.5-0.1,0.5-0.7
		c0,0,0-0.1,0-0.1H11.1z"/>
</g>
</svg>
