<?xml version="1.0" encoding="utf-8"?>
<!-- Generator: Adobe Illustrator 21.0.2, SVG Export Plug-In . SVG Version: 6.00 Build 0)  -->
<svg version="1.1" id="Layer_1" xmlns="http://www.w3.org/2000/svg" xmlns:xlink="http://www.w3.org/1999/xlink" x="0px" y="0px"
	 viewBox="0 0 50 50" style="enable-background:new 0 0 50 50;" xml:space="preserve">
<style type="text/css">
	.st0{fill:#FFFFFF;}
</style>
<g>
	<g>
		<path class="st0" d="M14.5,10.6c-0.6,0.1-1,0.4-1.3,0.8c-0.3,0.3-0.4,0.7-0.5,1.2c-0.1,0.3-0.1,0.6-0.1,0.9c0,0.2,0,0.5,0.1,0.7
			c0.1,0.8,0.4,1.3,0.9,1.7c0.1,0.1,0.3,0.2,0.5,0.2c-0.2,0.1-0.4,0.3-0.6,0.4c-0.3,0.2-0.6,0.2-0.9,0.2c-0.3,0-0.6-0.1-1-0.3
			c-0.4-0.2-0.7-0.4-1.1-0.7c-0.3-0.2-0.7-0.6-1.2-1c0,0,0.1-0.1,0.2-0.2s0.3-0.3,0.6-0.6c0.2-0.2,0.5-0.5,0.7-0.7
			c0.2-0.2,0.4-0.5,0.6-0.7c0.2-0.2,0.2-0.3,0.2-0.4V8.9c0-0.1,0-0.2,0.1-0.2c0.1-0.1,0.1-0.1,0.1-0.1c0,0,0,0,0,0V12l0.3-0.4v-3
			c0,0,0,0,0,0c0.2,0.1,0.4,0.2,0.6,0.2C13,9,13.2,9.1,13.3,9.1c0.2,0.1,0.2,0.2,0.3,0.2c0,0,0,0.1,0.1,0.2c0,0.1,0.1,0.2,0.1,0.3
			c0,0.1,0,0.2,0,0.2c0,0,0-0.1,0-0.2c0-0.1,0.1-0.2,0.1-0.3c0-0.1,0.1-0.2,0.1-0.2c0,0,0.1-0.1,0.2-0.3c0.1-0.2,0.2-0.3,0.4-0.5
			c0.1-0.2,0.3-0.3,0.4-0.5c0.1-0.1,0.2-0.2,0.3-0.2c0,0-0.1-0.1-0.3-0.2c-0.2-0.1-0.4-0.2-0.6-0.4C14.2,7.2,14,7.1,13.7,7
			c-0.2-0.1-0.4-0.2-0.4-0.2c-0.1,0-0.2,0.1-0.4,0.3c-0.2,0.2-0.4,0.4-0.6,0.6c-0.2,0.2-0.4,0.4-0.6,0.6c-0.2,0.2-0.2,0.2-0.2,0.2V7
			c-0.5,0.2-1,0.4-1.4,0.6C9.7,7.7,9.3,8,8.8,8.3C8.3,8.6,7.9,9,7.4,9.4c-0.4,0.4-0.8,0.9-1,1.5C6.1,11.5,6,12.1,6,12.8
			c0,0.7,0.2,1.4,0.5,2c0.3,0.7,0.7,1.3,1.2,1.8c0.5,0.5,1,1,1.6,1.3c0.6,0.3,1.1,0.5,1.7,0.5c0.3,0,0.7-0.1,1-0.2
			c0.3-0.1,0.7-0.3,1-0.6c0.3-0.2,0.6-0.5,0.9-0.7c0.2-0.2,0.4-0.4,0.6-0.6c0.1,0,0.1,0,0.2,0l1.2-0.9l0.1-0.1c0-0.5,0.1-1,0.1-1.4
			C16,12,15.5,10.9,14.5,10.6z M9.1,14.8c-0.3-0.3-0.6-0.7-0.8-1c-0.2-0.3-0.4-0.7-0.5-1.1c-0.2-0.4-0.2-0.9-0.2-1.4
			c0-0.6,0.1-1,0.3-1.5c0.2-0.4,0.5-0.8,0.7-1c0.3-0.3,0.5-0.5,0.7-0.6c0.2-0.1,0.3-0.2,0.3-0.1v5.3c0,0.2,0,0.4-0.1,0.6
			c-0.1,0.2-0.2,0.4-0.3,0.5C9.2,14.7,9.1,14.8,9.1,14.8z M13.7,13.9c-0.1-0.4-0.1-0.7-0.1-1.1c0-0.5,0.1-1,0.3-1.3
			c0.7,0,1,0.9,1,2.6v1.2c-0.3-0.1-0.6-0.3-0.8-0.6C13.8,14.4,13.7,14.2,13.7,13.9z"/>
		<path class="st0" d="M23.9,16.4l1.7-1.3l0-3.2c-0.1-0.5-0.4-0.9-1-1.1l-1.1,0.9c0-0.1-0.1-0.3-0.1-0.4c-0.1-0.1-0.1-0.2-0.2-0.3
			c0,0-0.1-0.1-0.1-0.1c0,0-0.1,0-0.1-0.1l0,0l0,0l0,0h0l-1,0.7c0.1,0,0.2,0.1,0.2,0.2c0.1,0.1,0.1,0.2,0.2,0.3
			c0,0.1,0.1,0.2,0.1,0.4v3.3c-0.3-0.2-0.4-0.4-0.4-0.8v-2.7c0-0.3-0.1-0.5-0.2-0.8c-0.2-0.3-0.5-0.5-0.8-0.6l-1.2,0.9
			c-0.1-0.4-0.5-0.7-1-0.9l-1.2,0.9c0-0.1-0.1-0.3-0.1-0.4c-0.1-0.1-0.1-0.2-0.2-0.3c0,0-0.1-0.1-0.1-0.1c0,0-0.1,0-0.1-0.1l0,0l0,0
			l0,0h0l-1,0.7c0.1,0,0.2,0.1,0.2,0.2c0.2,0.2,0.2,0.4,0.2,0.6v2.8c0,0.5,0.2,0.9,0.7,1.3h0l0,0l1-0.7c-0.3-0.2-0.5-0.5-0.5-0.8
			v-2.7l0.6-0.5c0.2,0.1,0.4,0.3,0.4,0.5v2.9c0,0.5,0.2,0.9,0.7,1.3h0l0,0l1-0.7c-0.3-0.2-0.5-0.5-0.5-0.8v-2.7l0.6-0.5
			c0.2,0.1,0.4,0.3,0.4,0.5v2.9c0,0.5,0.2,0.9,0.7,1.3h0l0,0l0.9-0.7v1.9c0,0.2,0,0.3,0.1,0.5c0.1,0.1,0.1,0.2,0.2,0.3
			c0,0,0.1,0.1,0.1,0.1c0,0,0.1,0.1,0.1,0.1l0,0l0,0l0,0h0l0,0l1-0.7c-0.1,0-0.2-0.1-0.2-0.2c-0.1-0.1-0.1-0.2-0.2-0.3
			c0-0.1-0.1-0.2-0.1-0.4V16C23.7,16.1,23.8,16.3,23.9,16.4z M23.4,12.1l0.6-0.5c0.2,0.1,0.4,0.3,0.4,0.5v3.2
			c-0.2-0.1-0.4-0.2-0.6-0.2c-0.1,0-0.3,0-0.4,0.1V12.1z"/>
		<path class="st0" d="M29.5,15.2c-0.1-0.1-0.1-0.2-0.1-0.3v-2.8c0-0.3-0.1-0.5-0.2-0.8c-0.2-0.3-0.5-0.5-0.8-0.6
			c-0.4,0.2-0.8,0.4-1.2,0.6c-0.3,0.2-0.6,0.4-0.8,0.6c-0.2,0.3-0.4,0.5-0.4,0.7v2.2h0c0,0.1,0,0.2,0,0.3h0c0.1,0.5,0.4,0.9,1,1.1
			l1.2-0.9c0.1,0.2,0.1,0.3,0.2,0.5c0.1,0.2,0.2,0.3,0.4,0.4l1-0.7c-0.1,0-0.2-0.1-0.2-0.2C29.6,15.4,29.5,15.3,29.5,15.2z M28.2,15
			l-0.6,0.5c-0.3-0.1-0.4-0.3-0.4-0.5v-2.3c0-0.4,0.2-0.7,0.6-1c0.3,0.1,0.4,0.3,0.4,0.5L28.2,15z"/>
		<path class="st0" d="M33.4,14.8v-2.7c0-0.3-0.1-0.5-0.2-0.8c-0.2-0.3-0.5-0.5-0.8-0.6l-1.2,0.9c0-0.1-0.1-0.3-0.2-0.4
			c-0.1-0.1-0.1-0.2-0.2-0.3c0,0-0.1-0.1-0.1-0.1c0,0-0.1,0-0.1-0.1l0,0l0,0l0,0h0l-1,0.7c0.1,0,0.2,0.1,0.2,0.2
			C30,11.8,30,12,30,12.3v2.8c0,0.5,0.2,0.9,0.7,1.3h0l0,0l1-0.7c-0.3-0.2-0.5-0.5-0.5-0.8v-2.7l0.6-0.5c0.2,0.1,0.4,0.3,0.4,0.5
			v2.9c0,0.5,0.2,0.9,0.7,1.3h0l0,0l1-0.7C33.6,15.5,33.4,15.2,33.4,14.8z"/>
		<path class="st0" d="M35.2,14.8v-3c0-0.2,0-0.3-0.1-0.5c-0.1-0.1-0.1-0.2-0.2-0.3c0,0-0.1-0.1-0.1-0.1c0,0-0.1-0.1-0.1-0.1l0,0
			l0,0l0,0l0,0h0l-1,0.7c0.1,0,0.2,0.1,0.2,0.2c0.2,0.2,0.2,0.4,0.2,0.6v3c0,0.2,0,0.3,0.1,0.5c0.1,0.1,0.1,0.2,0.2,0.3
			c0,0,0.1,0.1,0.1,0.1c0,0,0.1,0.1,0.1,0.1l0,0l0,0l0,0h0l0,0l1-0.7c-0.1,0-0.2-0.1-0.2-0.2C35.3,15.3,35.2,15,35.2,14.8z"/>
		<path class="st0" d="M34.6,10.4c0.2,0,0.4-0.1,0.5-0.2c0.2-0.2,0.4-0.4,0.6-0.7c-0.1,0-0.2,0-0.3,0c-0.2,0-0.3,0-0.5-0.1
			c-0.1,0-0.1-0.1-0.2-0.2c0-0.1-0.1-0.1-0.1-0.2l-1,0.7C33.9,10.3,34.3,10.4,34.6,10.4z"/>
		<path class="st0" d="M37.7,10.6c-0.6,0.1-1,0.4-1.3,0.8c-0.3,0.3-0.4,0.7-0.5,1.2c-0.1,0.3-0.1,0.6-0.1,0.9c0,0.2,0,0.5,0.1,0.7
			c0.1,0.8,0.4,1.3,0.9,1.7c0.2,0.1,0.4,0.2,0.6,0.3c0.1,0,0.2,0,0.2,0.1c0.1,0,0.1,0,0.2,0l1.2-0.9l0.1-0.1c0-0.5,0.1-1,0.1-1.4
			C39.1,12,38.6,10.9,37.7,10.6z M38,15.3c-0.3-0.1-0.6-0.3-0.8-0.6c-0.2-0.3-0.3-0.6-0.4-0.9c-0.1-0.4-0.1-0.7-0.1-1.1
			c0-0.5,0.1-1,0.3-1.3c0.7,0,1,0.9,1,2.6V15.3z"/>
		<path class="st0" d="M45.3,15.2c0,0-0.7-0.4-1.8-0.1v-2.6L43.1,12v3.1c-0.1,0-0.1,0-0.2,0.1c-0.1-0.1-0.1-0.3-0.1-0.4v-2.7
			c0-0.3-0.1-0.5-0.2-0.8c-0.2-0.3-0.5-0.5-0.8-0.6l-1.2,0.9c0-0.1-0.1-0.3-0.2-0.4c-0.1-0.1-0.1-0.2-0.2-0.3c0,0-0.1-0.1-0.1-0.1
			c0,0-0.1,0-0.1-0.1l0,0l0,0l0,0h0l-1,0.7c0.1,0,0.2,0.1,0.2,0.2c0.2,0.2,0.2,0.4,0.2,0.6v2.8c0,0.5,0.2,0.9,0.7,1.3h0l0,0l1-0.7
			c-0.3-0.2-0.5-0.5-0.5-0.8v-2.7l0.6-0.5c0.2,0.1,0.4,0.3,0.4,0.5v2.9c0,0.5,0.2,0.9,0.7,1.3h0l0,0l0.8-0.6
			C43.7,15.4,44.5,15,45.3,15.2z"/>
	</g>
	<g>
		<path class="st0" d="M38.8,23.7c-0.9-0.5-1.4-0.9-1.6-1.1c0-0.1-0.1-0.1-0.1-0.2c0-0.1,0-0.1,0-0.2v0c0-0.2,0.1-0.3,0.2-0.4l0,0
			c0,0,0.1,0,0.2,0h0c0.3,0,0.5,0.1,0.6,0.2c0.2,0.1,0.4,0.3,0.6,0.5c0.2,0.3,0.3,0.4,0.3,0.4l1.4-1c-0.2-0.4-0.5-0.8-0.9-1.1
			c-0.4-0.3-0.8-0.4-1.2-0.4c-0.1,0-0.1,0-0.2,0l-1.9,1.4l-0.1,0.1c-0.3,0.3-0.5,0.7-0.5,1.2V23c0,0.5,0.2,0.9,0.7,1.3
			c0.2,0.1,0.7,0.4,1.4,0.8c0.7,0.4,1.1,0.8,1.3,1.4c0,0.1,0,0.1,0,0.2c0,0,0,0.1,0,0.1v0.1l0,0.1c0,0.1,0,0.1,0,0.1
			c-0.1,0.2-0.2,0.2-0.4,0.2c-0.1,0-0.1,0-0.2,0c-0.2,0-0.3-0.1-0.5-0.2c-0.3-0.4-0.5-0.8-0.8-1.2c0,0,0.1,0.1,0.1,0.1
			c-0.3-0.4-0.6-0.7-0.9-1c-0.5-0.5-1-0.8-1.6-1.2l0.2-0.2l0.6-0.5l-0.7-3.4c-1.8,0.4-3,1.5-3.4,3c-0.3,0-0.5,0-0.8,0
			c0-0.6,0-0.9,0-1c0-0.2-0.1-0.5-0.2-0.7c-0.1-0.2-0.2-0.3-0.4-0.5c-0.1-0.1-0.1-0.1-0.2-0.2c-0.1,0-0.1-0.1-0.2-0.1l-0.1,0l0,0
			l0,0l0,0h0L28,21.3c0.1,0.1,0.2,0.2,0.4,0.3c0.1,0.1,0.2,0.2,0.2,0.4c0.1,0.2,0.1,0.4,0.1,0.6v0.5c-0.2,0.1-0.5,0.1-0.7,0.2
			c-0.3,0.1-0.5,0.3-0.8,0.4v-1.7c0-0.2-0.1-0.5-0.2-0.7c-0.1-0.2-0.2-0.4-0.3-0.6c-0.2-0.2-0.3-0.4-0.5-0.5l-1.5,1.1
			c0.1,0.1,0.2,0.2,0.4,0.3c0.1,0.1,0.2,0.2,0.2,0.3c0.1,0.1,0.1,0.3,0.1,0.5v4.2c0,0.4,0.1,0.8,0.3,1.2c0.3,0.4,0.7,0.7,1.3,1
			l1.8-1.3c0,0.2,0.1,0.4,0.2,0.6c0.1,0.1,0.2,0.3,0.3,0.4c0.1,0,0.1,0.1,0.2,0.1c0,0,0.1,0.1,0.1,0.1l0.1,0l0,0l0,0h0l1.5-1.1
			c-0.1-0.1-0.2-0.2-0.4-0.3c-0.1-0.1-0.2-0.2-0.2-0.3c0.2,0,0.4,0.1,0.7,0.1c0.1,0,0.3,0.1,0.4,0.1c0.2,0.4,0.5,0.7,0.9,1
			c0.3,0.2,0.5,0.3,0.9,0.4c0.1,0,0.1,0,0.2,0c0.2,0.3,0.5,0.6,0.7,1c0.2,0.4,0.4,0.9,0.5,1.3c0.1,0.5,0.2,1,0.2,1.5
			c0,0.5-0.1,1-0.2,1.6c-0.2,0.7-0.5,1.4-0.8,1.9c-0.2,0.4-0.5,0.7-0.8,1c-3.6,1-7.3,0.2-10.7-1.1c-0.4-0.1-0.8-0.3-1.2-0.5
			c0.4-0.2,0.8-0.6,1.2-1c0.5-0.6,0.9-1.1,1.2-1.7c-0.9,0.6-1.6,0.8-2,0.8h-0.1c-0.5,0-0.9-0.1-1.3-0.3l1.4-1.3
			c1.1-1.1,2-2.7,2.7-4.9c0.3-0.8,0.4-1.6,0.4-2.5v-0.2c0-0.9-0.2-1.7-0.5-2.6c-0.5-1.5-1.5-2.8-3-3.9c-1-0.7-2.1-1.2-3.2-1.4
			c-0.9-0.2-1.5-0.2-1.8-0.2c-0.1,0-0.2,0-0.2,0c-0.2,0.1-0.8,0.4-1.7,1.1c-0.9,0.7-1.5,1.2-1.9,1.6c-0.5,0.5-0.9,0.9-1.2,1.4
			c0-0.4-0.1-0.9-0.1-1.2c0-0.3-0.4,0.3-0.6,0.5c-0.2,0.2-0.4,0.4-0.6,0.6c-0.2-0.5-0.5-0.9-0.9-1.4c-0.5-0.6-0.9-1-1.3-1.2
			c0,0-0.1,0-0.1-0.1c-0.4-0.2-0.9-0.1-1.5,0.1c-0.3,0.1-0.5,0.3-0.8,0.5c0.5-0.2,1.1,0.2,1.4,0.4c0.5,0.3,0.9,0.6,1.3,1.1
			c0.5,0.6,0.9,1.6,1,2.7H8.9c-0.9,0-1.7,0.2-2.4,0.6c-0.7,0.3-1.3,0.8-1.9,1.3c-0.1,0.1-0.1,0.2-0.2,0.2c0,0.1-0.1,0.1-0.2,0.2
			c-1,0.6-1.8,1.3-2.5,2.2c-0.6,0.7-1,1.6-1.4,2.4C0.1,30.4,0,31.2,0,32.1c0,0.7,0.2,1.3,0.4,1.9c0.2,0.6,0.5,1.1,0.8,1.6
			c0.7,1.1,1.7,1.9,2.9,2.5c1.6,0.8,3.3,1.1,5.1,0.8c0.6-0.1,1.2-0.3,1.8-0.5c0.2-0.1,0.4-0.2,0.6-0.3c-0.1,0.1-0.1,0.3-0.2,0.4
			c-0.8,2.2,0.5,4.7,2.9,5.1c0.2,0,0.5,0,0.7,0c1.5-0.1,3.3-0.8,3.5-2.5c0.2-1.3-0.6-2.5-2-2.6c0.6,0,1.4,1.4,1.3,1.9
			c-0.1,0.3-0.3,0.6-0.6,0.8c-2,1.3-4.2,0.5-4.5-1.9c0-1.9,1.1-3.7,3.2-3.7c0.1,0,0.2,0,0.3,0c-0.4,0.2-0.8,0.5-1.1,0.8
			c-2.1,2.1-1.3,3.9-1.3,3.9c0-1.7,1.6-3.6,3.5-3.5c1.4,0.1,3.3,1.3,4.5,2c0,0,0-0.2-0.1-0.6c6.2,3,13.5,3.1,16.8-2.6
			c1.4-2.3,1-5.1-0.1-7.4c0.9-0.6,1.3-1,1.3-1c0.2-0.2,0.4-0.6,0.4-1c0-0.1,0-0.2,0-0.3c0-0.2,0-0.5-0.1-0.8
			C40.2,24.7,39.7,24.2,38.8,23.7z M12,21.9c0.1-0.6,0.4-1.1,0.8-1.6c0.4-0.5,0.8-0.8,1.4-1c0.6-0.3,1.2-0.4,1.9-0.4
			c0.2,0,0.3,0,0.5,0c0.4,0.1,0.7,0.2,0.9,0.3c2.1,1.1,3.6,2.6,4.4,4.4c0.4,1,0.7,2,0.7,3.1c0,0.6-0.1,1.2-0.2,1.8
			c-0.3,1.2-0.8,2.2-1.7,3L19,32.8c-0.3-0.1-0.5-0.2-0.8-0.3v-0.2l0,0c0,0,0,0,0,0v-9.6l-0.6-0.7v9.9c-0.2-0.3-0.4-0.5-0.4-0.9V22
			c0-0.3-0.1-0.5-0.2-0.7c-0.1-0.2-0.3-0.3-0.5-0.5c-0.1-0.1-0.2-0.1-0.3-0.2c-0.1,0-0.2-0.1-0.2-0.1l-0.1,0l-0.1,0l0,0l0,0h0
			l-2,1.1c0.2,0.1,0.3,0.2,0.5,0.3c0.3,0.3,0.5,0.6,0.5,1v7.4c-0.8-0.7-1.4-1.5-1.9-2.4c-0.5-0.9-0.9-1.8-1.1-2.6
			c-0.1-0.5-0.1-0.9-0.2-1c0-0.2,0-0.3,0-0.5C11.7,23.1,11.8,22.5,12,21.9z M6.6,23.4c0.7-0.3,1.5-0.5,2.3-0.6h0.2
			c0,0.2,0,0.5-0.1,0.7c-0.3,0-0.7,0.1-1,0.2c-0.5,0.1-1,0.1-1.5,0.3c-0.6,0.2-1.2,0.4-1.8,0.7C5.3,24.1,5.9,23.7,6.6,23.4z
			 M13.6,35.3c-0.1,0.1-0.2,0.2-0.3,0.3c-0.1-0.2-0.2-0.5-0.4-0.6c0.2,0.3,0.3,0.5,0.3,0.8c-0.5,0.6-1,1.3-1.4,2
			c-0.2,0.1-0.5,0.2-0.7,0.3c-0.6,0.3-1.2,0.4-1.9,0.5c-0.8,0.1-1.7,0.1-2.6,0c-0.9-0.1-1.7-0.4-2.5-0.8c-1.1-0.5-2.1-1.3-2.8-2.4
			C1,35,0.8,34.5,0.5,34c-0.2-0.6-0.3-1.2-0.4-1.9c0-0.8,0.1-1.7,0.4-2.5c0.3-0.8,0.8-1.6,1.3-2.3c0-0.1,0.1-0.1,0.1-0.2
			c0.6-0.6,1.2-1,1.7-1.4c-0.2,0.4-0.4,0.8-0.6,1.3C3,27.7,2.9,28.3,2.9,29c0,0.5,0.1,1.1,0.2,1.6c0.1,0.5,0.3,1,0.6,1.4
			c0.2,0.4,0.5,0.8,0.9,1.1c0.3,0.3,0.7,0.6,1.1,0.9c0.8,0.5,1.7,0.8,2.6,0.8c0.3,0,0.6,0,0.9-0.1c0.9-0.1,2-0.8,1.8-1.8
			c0,0.1,0,0.2,0,0.3c-0.3,1.2-1.6,1.4-2.7,1.4c-0.4,0-0.9-0.1-1.3-0.2c-0.4-0.1-0.8-0.3-1.2-0.5c-0.4-0.2-0.7-0.5-1.1-0.9
			c-0.3-0.3-0.6-0.7-0.9-1.1c-0.2-0.4-0.4-0.9-0.6-1.4c-0.1-0.5-0.2-1-0.2-1.6c0-0.7,0.1-1.4,0.3-2.1c0.2-0.5,0.4-0.9,0.7-1.4
			c1-0.6,1.9-0.7,2.9-0.8c1.5-0.1,2.2,1.1,2.5,2.1c0,0.3,0.1,0.6,0.2,0.9c0,0.3,0,0.5,0,0.5l0,0c0,0.1,0,0.3,0,0.4
			c0,0.4,0,0.6,0,0.6c0,0.1,0,0.2,0,0.2c0,0.1,0,0.1-0.1,0.2c0,0.4-0.1,0.7-0.2,1C9.3,31,9.2,31.2,9,31.4c-0.2,0.2-0.4,0.4-0.6,0.6
			c-0.2,0.2-0.5,0.5-0.8,0.8l0,0l0.1-0.1c0.5-0.3,0.9-0.6,1.3-0.9c0.4-0.3,0.8-0.7,1.2-1c0.1,0.1,0.2,0.2,0.3,0.3
			c0.1,0.1,0.2,0.2,0.3,0.3c0.2,0.2,0.4,0.5,0.6,0.6c0.2,0.2,0.4,0.3,0.6,0.4c0.2,0.1,0.4,0.3,0.6,0.4c0.2,0.1,0.4,0.3,0.6,0.4
			c0.2,0.2,0.5,0.3,0.8,0.5c0.2,0.2,0.4,0.3,0.6,0.5C14.3,34.7,13.9,35,13.6,35.3z M34.1,23.5L34.1,23.5c-0.5-0.2-1-0.4-1.5-0.5
			c0-0.7,0.2-1.2,0.4-1.6C33,21.4,34.1,21.2,34.1,23.5z M32.6,23.4c0-0.1,0-0.1,0-0.2c0.4,0.1,0.9,0.3,1.3,0.5l-1.2,0.9
			C32.6,24.1,32.6,23.7,32.6,23.4z M27.8,27.4c-0.4-0.2-0.6-0.5-0.6-0.7V24c0.6-0.3,1.1-0.6,1.5-0.7v3.4L27.8,27.4z M31.4,27
			c-0.3-0.1-0.5-0.1-0.8-0.2c0-0.1-0.1-0.3-0.1-0.4c0-1.5,0-2.6,0-3.4c0.2,0,0.5,0,0.7,0c0,0.1,0,0.1-0.1,0.2
			c-0.1,0.5-0.1,0.9-0.1,1.3c0,0.4,0,0.7,0.1,1.1c0.1,0.5,0.2,1,0.4,1.4C31.5,27,31.5,27,31.4,27z M34.2,35.9
			c0.3-0.5,0.6-1.1,0.7-1.8c0.1-0.5,0.2-1.1,0.2-1.6c0-0.5-0.1-1.1-0.2-1.5c-0.1-0.5-0.3-0.9-0.5-1.3c-0.2-0.3-0.4-0.6-0.6-0.9
			c0.1,0,0.1,0,0.2,0l1.3-1.5c-0.7,0-1.3-0.2-1.8-0.6c-0.2-0.2-0.4-0.4-0.6-0.7c-0.1-0.2-0.2-0.4-0.3-0.7l1.7-1.3
			c0.6,0.3,1.1,0.7,1.6,1.2c0.3,0.3,0.6,0.6,0.9,0.9L35.7,27c0.1,0.6,0.4,1,1,1.4c0.4,0.2,0.7,0.3,1,0.3c0.2,0,0.3-0.1,0.5-0.1
			c0.1,0.4,0.2,0.9,0.2,1.3c0,0.6,0,1.2-0.1,1.9c-0.2,0.8-0.5,1.6-1,2.3c-0.2,0.3-0.5,0.6-0.8,0.9c-0.8,0.7-1.6,1.3-2.6,1.7
			c-0.1,0-0.3,0.1-0.4,0.1C33.7,36.5,34,36.2,34.2,35.9z M38.8,33.9c-0.8,1.4-1.3,1.2-1.4,0.8c0-0.1-0.1-0.3,0.1-0.5
			c0.5-0.7,0.8-1.5,1-2.4c0.1-0.7,0.2-1.3,0.1-1.9c0-0.2-0.1-0.4-0.1-0.6c0.1,0.2,0.1,0.4,0.2,0.6C39,31.1,39.4,32.8,38.8,33.9z"/>
		<polygon class="st0" points="28.8,31.9 27.3,33.5 28.8,34.9 30.3,33.5 		"/>
		<path class="st0" d="M43.2,21.5v-2.1c0-0.3,0-0.6,0-0.8c0-0.2,0.1-0.4,0.1-0.6c0.2-0.9,1-1.5,2.2-1.9c-0.3-0.1-0.5-0.1-0.7-0.1
			c-1.1,0-1.9,0.8-2.6,2.4c-0.1,0.2-0.2,0.5-0.3,0.8c-0.1,0.3-0.2,0.6-0.3,0.9c-0.1,0.3-0.1,0.6-0.2,0.9c0,0.3,0,0.6,0,0.9
			c-0.5,0.3-0.8,0.6-1,0.9c-0.2,0.3-0.4,0.7-0.5,1c0.3-0.2,0.5-0.4,0.8-0.6c0.3-0.2,0.5-0.3,0.8-0.3v13.9c0,0.7,0,1.3,0.1,1.5
			c0.1,0.7,0.6,1.2,1.3,1.6l1.4-1.8c0,0,0,0,0,0h-0.1c-0.6,0.1-0.9-0.2-0.9-0.8V22.7c0.1,0,0.3,0,0.5,0.1s0.4,0.3,0.4,0.5
			c0.1-0.2,0.3-0.4,0.5-0.5c0.2-0.2,0.4-0.3,0.5-0.5c0.2-0.2,0.3-0.4,0.5-0.6c0.1-0.2,0.3-0.5,0.3-0.8
			C45.5,21.3,44.5,21.6,43.2,21.5z"/>
		<polygon class="st0" points="43.6,40 45.3,37.7 45.3,37.2 43.2,40 		"/>
	</g>
</g>
</svg>
